<svg xmlns="http://www.w3.org/2000/svg" xmlns:xlink="http://www.w3.org/1999/xlink" version="1.1" width="60.64577883628185" height="58.69207781699474" viewBox="-0.23258885814336594 0.6282111697039241 60.64577883628185 58.69207781699474">
  <defs>
    <linearGradient id="grad_1" x2="1">
      <stop offset="0" stop-color="#EDD743" stop-opacity="1"/>
      <stop offset="1" stop-color="#EDD743" stop-opacity="1"/>
    </linearGradient>
    <linearGradient id="grad_2" x2="1">
      <stop offset="0" stop-color="#EDD743" stop-opacity="1"/>
      <stop offset="1" stop-color="#EDD743" stop-opacity="1"/>
    </linearGradient>
    <linearGradient id="grad_3" x2="1">
      <stop offset="0" stop-color="#EDD743" stop-opacity="1"/>
      <stop offset="1" stop-color="#EDD743" stop-opacity="1"/>
    </linearGradient>
  <linearGradient id="grad_1-.086982250213623,0,0,2.693655014038086,-418.35,-479.8" x2="58.0037" x1="2.1769" y1="3.0377" y2="3.0377" gradientUnits="userSpaceOnUse">
      <stop offset="0" stop-color="#EDD743" stop-opacity="1"/>
      <stop offset="1" stop-color="#EDD743" stop-opacity="1"/>
    </linearGradient><linearGradient id="grad_2-.086982250213623,0,0,2.693655014038086,-418.35,-479.8" x2="58.0037" x1="2.1769" y1="3.0377" y2="3.0377" gradientUnits="userSpaceOnUse">
      <stop offset="0" stop-color="#EDD743" stop-opacity="1"/>
      <stop offset="1" stop-color="#EDD743" stop-opacity="1"/>
    </linearGradient><linearGradient id="grad_3-.9473684430122375,0,0,1,-200.95,-151.75" x2="39.6816" x1="21.6816" y1="21.25" y2="21.25" gradientUnits="userSpaceOnUse">
      <stop offset="0" stop-color="#EDD743" stop-opacity="1"/>
      <stop offset="1" stop-color="#EDD743" stop-opacity="1"/>
    </linearGradient></defs>
  <!-- Exported by Scratch - http://scratch.mit.edu/ -->
  <g id="ID0.12350322864949703">
    <path id="ID0.12809083331376314" fill="url(#grad_1-.086982250213623,0,0,2.693655014038086,-418.35,-479.8)" stroke="url(#grad_2-.086982250213623,0,0,2.693655014038086,-418.35,-479.8)" stroke-width="4.818977536233021" d="M 2.1769 3.0377 L 58.0037 3.0377 L 58.0037 56.9108 L 2.1769 56.9108 L 2.1769 3.0377 Z " style="stroke-linejoin: round; stroke-linecap: round;"/>
    <path id="ID0.5915758088231087" fill="none" stroke="#FFFFFF" stroke-width="2" stroke-linecap="round" d="M 18.45 30.8 L 42.85 30.8 "/>
    <path id="ID0.5915758088231087" fill="none" stroke="#FFFFFF" stroke-width="2.000000023855239" stroke-linecap="round" d="M 30.8261 42.6977 L 30.6075 18.2986 "/>
    <path id="ID0.5915758088231087" fill="none" stroke="#FFFFFF" stroke-width="2.0000000594470206" stroke-linecap="round" d="M 38.4108 39.1807 L 21.9192 21.1978 "/>
    <path id="ID0.5915758088231087" fill="none" stroke="#FFFFFF" stroke-width="2.000000140018822" stroke-linecap="round" d="M 22.4392 40.0307 L 38.9308 22.0478 "/>
    <path id="ID0.5574472867883742" fill="#FFFFFF" stroke="url(#grad_3-.9473684430122375,0,0,1,-200.95,-151.75)" stroke-width="1.9480795501290142" d="M 30.6816 21.25 C 33.1646 21.25 35.4146 22.272 37.0441 23.924 C 38.6726 25.576 39.6816 27.857 39.6816 30.375 C 39.6816 32.893 38.6726 35.174 37.0441 36.826 C 35.4146 38.478 33.1646 39.5 30.6816 39.5 C 28.1985 39.5 25.9485 38.478 24.3191 36.826 C 22.6905 35.174 21.6816 32.893 21.6816 30.375 C 21.6816 27.857 22.6905 25.576 24.3191 23.924 C 25.9485 22.272 28.1985 21.25 30.6816 21.25 Z " style="stroke-linejoin: round; stroke-linecap: round;"/>
  </g>
</svg>