<svg xmlns="http://www.w3.org/2000/svg" xmlns:xlink="http://www.w3.org/1999/xlink" version="1.1" width="483.4895654108913" height="363.4895654108913" viewBox="-1.7447827054456644 -1.7447827054456644 483.4895654108913 363.4895654108913">
  <defs>
    <linearGradient id="grad_1" x2="1">
      <stop offset="0" stop-color="#7AC36F" stop-opacity="1"/>
      <stop offset="1" stop-color="#7AC36F" stop-opacity="1"/>
    </linearGradient>
    <linearGradient id="grad_2" x2="1">
      <stop offset="0" stop-color="#7AC36F" stop-opacity="1"/>
      <stop offset="1" stop-color="#7AC36F" stop-opacity="1"/>
    </linearGradient>
    <linearGradient id="grad_3" x2="1">
      <stop offset="0" stop-color="#E5E5E5" stop-opacity="1"/>
      <stop offset="1" stop-color="#E5E5E5" stop-opacity="1"/>
    </linearGradient>
    <linearGradient id="grad_4" x2="1">
      <stop offset="0" stop-color="#E5E5E5" stop-opacity="1"/>
      <stop offset="1" stop-color="#E5E5E5" stop-opacity="1"/>
    </linearGradient>
    <linearGradient id="grad_5" x2="1">
      <stop offset="0" stop-color="#EDD743" stop-opacity="1"/>
      <stop offset="1" stop-color="#EDD743" stop-opacity="1"/>
    </linearGradient>
    <linearGradient id="grad_6" x2="1">
      <stop offset="0" stop-color="#FEC207" stop-opacity="1"/>
      <stop offset="1" stop-color="#FEC207" stop-opacity="1"/>
    </linearGradient>
    <linearGradient id="grad_7" x2="1">
      <stop offset="0" stop-color="#FEC207" stop-opacity="1"/>
      <stop offset="1" stop-color="#FEC207" stop-opacity="1"/>
    </linearGradient>
  <linearGradient id="grad_1-.5112461421414878,0,0,1.9505559403172867,-166.74522545337678,-163.89340746402738" x2="178.1967" x1="137.7709" y1="185.7437" y2="185.7437" gradientUnits="userSpaceOnUse">
      <stop offset="0" stop-color="#7AC36F" stop-opacity="1"/>
      <stop offset="1" stop-color="#7AC36F" stop-opacity="1"/>
    </linearGradient><linearGradient id="grad_2-.5112461421414878,0,0,1.9505559403172867,-166.74522545337678,-163.89340746402738" x2="178.1967" x1="137.7709" y1="185.7437" y2="185.7437" gradientUnits="userSpaceOnUse">
      <stop offset="0" stop-color="#7AC36F" stop-opacity="1"/>
      <stop offset="1" stop-color="#7AC36F" stop-opacity="1"/>
    </linearGradient><linearGradient id="grad_3-.5112461421414878,0,0,1.9505559403172867,-217.4714748740196,-213.82261143922804" x2="127.4705" x1="87.0446" y1="135.8145" y2="135.8145" gradientUnits="userSpaceOnUse">
      <stop offset="0" stop-color="#E5E5E5" stop-opacity="1"/>
      <stop offset="1" stop-color="#E5E5E5" stop-opacity="1"/>
    </linearGradient><linearGradient id="grad_4-.5112461421414878,0,0,1.9505559403172867,-217.4714748740196,-213.82261143922804" x2="127.4705" x1="87.0446" y1="135.8145" y2="135.8145" gradientUnits="userSpaceOnUse">
      <stop offset="0" stop-color="#E5E5E5" stop-opacity="1"/>
      <stop offset="1" stop-color="#E5E5E5" stop-opacity="1"/>
    </linearGradient><linearGradient id="grad_5-.5112461421414878,0,0,1.9505559403172867,-217.75613396167753,-164.00727109909056" x2="127.1858" x1="86.76" y1="185.6299" y2="185.6299" gradientUnits="userSpaceOnUse">
      <stop offset="0" stop-color="#EDD743" stop-opacity="1"/>
      <stop offset="1" stop-color="#EDD743" stop-opacity="1"/>
    </linearGradient><linearGradient id="grad_6-.5112461421414878,0,0,1.9505559403172867,-166.85908908843993,-214.33499779701233" x2="178.0828" x1="137.657" y1="135.3022" y2="135.3022" gradientUnits="userSpaceOnUse">
      <stop offset="0" stop-color="#FEC207" stop-opacity="1"/>
      <stop offset="1" stop-color="#FEC207" stop-opacity="1"/>
    </linearGradient><linearGradient id="grad_7-.5112461421414878,0,0,1.9505559403172867,-166.85908908843993,-214.33499779701233" x2="178.0828" x1="137.657" y1="135.3022" y2="135.3022" gradientUnits="userSpaceOnUse">
      <stop offset="0" stop-color="#FEC207" stop-opacity="1"/>
      <stop offset="1" stop-color="#FEC207" stop-opacity="1"/>
    </linearGradient></defs>
  <!-- Exported by Scratch - http://scratch.mit.edu/ -->
  <path id="ID0.2061915541999042" fill="#282828" stroke="none" d="M 0 0 L 480 0 L 480 360 L 0 360 L 0 0 Z " stroke-width="1"/>
  <g id="ID0.961271520704031">
    <g id="ID0.7086075129918754">
      <g id="ID0.872792074456811">
        <path id="ID0.12809083331376314" fill="url(#grad_1-.5112461421414878,0,0,1.9505559403172867,-166.74522545337678,-163.89340746402738)" stroke="url(#grad_2-.5112461421414878,0,0,1.9505559403172867,-166.74522545337678,-163.89340746402738)" stroke-width="3.4895654108913288" d="M 137.7709 185.7437 L 178.1967 185.7437 L 178.1967 224.7549 L 137.7709 224.7549 L 137.7709 185.7437 Z " style="stroke-linejoin: round; stroke-linecap: round;"/>
        <path id="ID0.12809083331376314" fill="url(#grad_3-.5112461421414878,0,0,1.9505559403172867,-217.4714748740196,-213.82261143922804)" stroke="url(#grad_4-.5112461421414878,0,0,1.9505559403172867,-217.4714748740196,-213.82261143922804)" stroke-width="3.4895654108913288" d="M 87.0446 135.8145 L 127.4705 135.8145 L 127.4705 174.8257 L 87.0446 174.8257 L 87.0446 135.8145 Z " style="stroke-linejoin: round; stroke-linecap: round;"/>
        <path id="ID0.12809083331376314" fill="#EDD743" stroke="url(#grad_5-.5112461421414878,0,0,1.9505559403172867,-217.75613396167753,-164.00727109909056)" stroke-width="3.4895654108913288" d="M 86.76 185.6299 L 127.1858 185.6299 L 127.1858 224.641 L 86.76 224.641 L 86.76 185.6299 Z " style="stroke-linejoin: round; stroke-linecap: round;"/>
        <path id="ID0.12809083331376314" fill="url(#grad_6-.5112461421414878,0,0,1.9505559403172867,-166.85908908843993,-214.33499779701233)" stroke="url(#grad_7-.5112461421414878,0,0,1.9505559403172867,-166.85908908843993,-214.33499779701233)" stroke-width="3.4895654108913288" d="M 137.657 135.3022 L 178.0828 135.3022 L 178.0828 174.3133 L 137.657 174.3133 L 137.657 135.3022 Z " style="stroke-linejoin: round; stroke-linecap: round;"/>
      </g>
    </g>
    <g id="ID0.657235705293715">
      <path id="ID0.7590375300496817" fill="#FFFFFF" d="M 221.7007 152.2659 L 228.7136 152.2659 L 228.7136 164.6631 C 227.0489 165.879 225.0077 166.8697 222.5914 167.6381 C 220.1889 168.3898 217.9018 168.7664 215.73 168.7664 C 212.5897 168.7664 209.7523 168.0647 207.2192 166.6599 C 204.6861 165.2426 202.6894 163.3028 201.2276 160.842 C 199.7797 158.3811 199.0558 155.6244 199.0558 152.5702 C 199.0558 149.5452 199.802 146.8093 201.2929 144.3637 C 202.7978 141.9168 204.8598 139.9993 207.4804 138.6098 C 210.0997 137.2203 213.0301 136.5255 216.2733 136.5255 C 218.5743 136.5255 220.8837 136.9521 223.1986 137.8066 C 225.5149 138.6459 227.4755 139.7742 229.0832 141.1929 L 224.4575 146.8815 C 223.3292 145.8102 222.0258 144.964 220.5502 144.3415 C 219.0884 143.719 217.6475 143.4078 216.2302 143.4078 C 214.5655 143.4078 213.0677 143.8135 211.7351 144.6236 C 210.404 145.4198 209.3465 146.5119 208.5656 147.9014 C 207.7986 149.291 207.4151 150.8472 207.4151 152.5702 C 207.4151 154.321 207.7986 155.9064 208.5656 157.3251 C 209.3465 158.7285 210.4179 159.829 211.7782 160.6252 C 213.1399 161.4214 214.6517 161.8188 216.3163 161.8188 C 217.8795 161.8188 219.6748 161.32 221.7007 160.3209 L 221.7007 152.2659 Z M 243.9621 137.0035 L 268.5606 137.0035 L 268.5606 143.4953 L 252.1032 143.4953 L 252.1032 149.3354 L 266.9543 149.3354 L 266.9543 155.7828 L 252.1032 155.8272 L 252.1032 161.6882 L 268.9941 161.6882 L 268.9941 168.18 L 243.9621 168.18 L 243.9621 137.0035 Z M 281.1329 137.0035 L 307.8588 137.0035 L 307.8588 143.7329 L 298.5227 143.7329 L 298.5227 168.18 L 290.3815 168.18 L 290.3815 143.7329 L 281.1329 143.7329 L 281.1329 137.0035 Z " stroke-width="1.389512300491333"/>
      <path id="ID0.9157314910553396" fill="#7AC36F" d="M 220.7007 205.0674 L 227.7136 205.0674 L 227.7136 217.4646 C 226.0489 218.6804 224.0077 219.6711 221.5914 220.4395 C 219.1889 221.1913 216.9018 221.5678 214.73 221.5678 C 211.5897 221.5678 208.7523 220.8661 206.2192 219.4613 C 203.6861 218.044 201.6894 216.1043 200.2276 213.6434 C 198.7797 211.1826 198.0558 208.4258 198.0558 205.3717 C 198.0558 202.3467 198.802 199.6108 200.2929 197.1652 C 201.7978 194.7183 203.8598 192.8008 206.4804 191.4112 C 209.0997 190.0217 212.0301 189.327 215.2733 189.327 C 217.5743 189.327 219.8837 189.7536 222.1986 190.6081 C 224.5149 191.4474 226.4755 192.5757 228.0832 193.9943 L 223.4575 199.683 C 222.3292 198.6117 221.0258 197.7655 219.5502 197.143 C 218.0884 196.5205 216.6475 196.2092 215.2302 196.2092 C 213.5655 196.2092 212.0677 196.615 210.7351 197.4251 C 209.404 198.2212 208.3465 199.3134 207.5656 200.7029 C 206.7986 202.0924 206.4151 203.6487 206.4151 205.3717 C 206.4151 207.1225 206.7986 208.7079 207.5656 210.1266 C 208.3465 211.53 209.4179 212.6305 210.7782 213.4267 C 212.1399 214.2229 213.6517 214.6203 215.3163 214.6203 C 216.8795 214.6203 218.6748 214.1214 220.7007 213.1224 L 220.7007 205.0674 Z M 261.6774 220.9815 L 257.1615 212.3623 L 256.9656 212.3623 L 251.1032 212.3623 L 251.1032 220.9815 L 242.9621 220.9815 L 242.9621 189.805 L 256.9656 189.805 C 261.091 189.805 264.2827 190.7665 266.5407 192.6924 C 268.8126 194.603 269.9492 197.2875 269.9492 200.7474 C 269.9492 203.0915 269.4712 205.1188 268.5152 206.8265 C 267.5745 208.5189 266.2003 209.8445 264.3911 210.7991 L 270.8829 220.9815 L 261.6774 220.9815 Z M 251.1032 205.8705 L 257.0086 205.8705 C 258.6733 205.8705 259.9544 205.4578 260.852 204.6338 C 261.7636 203.7932 262.2193 202.5857 262.2193 201.0072 C 262.2193 199.5024 261.7636 198.3449 260.852 197.5334 C 259.9544 196.7081 258.6733 196.2968 257.0086 196.2968 L 251.1032 196.2968 L 251.1032 205.8705 Z M 285.0254 189.805 L 309.6239 189.805 L 309.6239 196.2968 L 293.1665 196.2968 L 293.1665 202.1369 L 308.0176 202.1369 L 308.0176 208.5842 L 293.1665 208.6287 L 293.1665 214.4897 L 310.0574 214.4897 L 310.0574 220.9815 L 285.0254 220.9815 L 285.0254 189.805 Z M 324.9099 189.805 L 349.5085 189.805 L 349.5085 196.2968 L 333.0511 196.2968 L 333.0511 202.1369 L 347.9022 202.1369 L 347.9022 208.5842 L 333.0511 208.6287 L 333.0511 214.4897 L 349.9434 214.4897 L 349.9434 220.9815 L 324.9099 220.9815 L 324.9099 189.805 Z M 386.093 189.805 L 393.6491 189.805 L 393.6491 220.9815 L 386.5487 220.9815 L 372.3937 202.3537 L 372.3937 220.9815 L 364.7945 220.9815 L 364.7945 189.805 L 371.9588 189.805 L 386.136 208.5842 L 386.093 189.805 Z " stroke-width="1.389512300491333"/>
    </g>
  </g>
</svg>