<svg xmlns="http://www.w3.org/2000/svg" xmlns:xlink="http://www.w3.org/1999/xlink" version="1.1" width="6.734999656677246" height="12.468999862670898" viewBox="-0.3369999974966049 -0.267999991774559 6.734999656677246 12.468999862670898">
  <!-- Exported by Scratch - http://scratch.mit.edu/ -->
  <g id="ID0.29097703471779823">
    <g id="ID0.4783174800686538">
      <path id="ID0.8287879368290305" fill="#999999" d="M 0.163 10.404 L 2.601 5.732 C 2.82 5.326 2.992 4.972 3.117 4.67 C 3.252 4.357 3.356 4.092 3.429 3.873 C 3.502 3.644 3.554 3.451 3.585 3.295 C 3.617 3.128 3.632 2.982 3.632 2.857 C 3.632 2.66 3.617 2.503 3.585 2.389 C 3.554 2.264 3.512 2.175 3.46 2.123 C 3.408 2.061 3.341 2.019 3.257 1.998 C 3.184 1.967 3.085 1.951 2.96 1.951 C 2.69 1.951 2.486 2.071 2.351 2.311 C 2.226 2.55 2.163 2.941 2.163 3.482 L 2.163 4.357 L 0.413 4.357 C 0.341 3.972 0.283 3.68 0.242 3.482 C 0.21 3.274 0.195 3.045 0.195 2.795 C 0.195 2.493 0.247 2.191 0.351 1.889 C 0.455 1.576 0.622 1.3 0.851 1.061 C 1.08 0.811 1.372 0.613 1.726 0.467 C 2.08 0.311 2.492 0.232 2.96 0.232 C 3.471 0.232 3.908 0.295 4.273 0.42 C 4.637 0.535 4.945 0.717 5.195 0.967 C 5.445 1.206 5.622 1.493 5.726 1.826 C 5.841 2.16 5.898 2.535 5.898 2.951 C 5.898 3.191 5.872 3.425 5.82 3.654 C 5.778 3.883 5.71 4.128 5.617 4.389 C 5.523 4.639 5.398 4.91 5.242 5.201 C 5.096 5.493 4.913 5.826 4.695 6.201 L 2.757 9.873 L 5.757 9.873 L 5.757 11.701 L 0.163 11.701 L 0.163 10.404 Z " stroke-width="1"/>
    </g>
  </g>
</svg>