<svg xmlns="http://www.w3.org/2000/svg" xmlns:xlink="http://www.w3.org/1999/xlink" version="1.1" width="493.27226678308364" height="373.27226678308364" viewBox="-6.636133391541807 -6.636133391541807 493.27226678308364 373.27226678308364">
  <defs>
    <linearGradient id="grad_1" x2="1">
      <stop offset="0" stop-color="#FFFFFF" stop-opacity="1"/>
      <stop offset="1" stop-color="#FFFFFF" stop-opacity="1"/>
    </linearGradient>
    <linearGradient id="grad_2" x2="1">
      <stop offset="0" stop-color="#FFFFFF" stop-opacity="1"/>
      <stop offset="1" stop-color="#FFFFFF" stop-opacity="1"/>
    </linearGradient>
  <linearGradient id="grad_1-.747896671295166,0,0,7.418774604797363,-994.65,-1194" x2="317.3074" x1="163.5512" y1="135.8153" y2="135.8153" gradientUnits="userSpaceOnUse">
      <stop offset="0" stop-color="#FFFFFF" stop-opacity="1"/>
      <stop offset="1" stop-color="#FFFFFF" stop-opacity="1"/>
    </linearGradient><linearGradient id="grad_2-.747896671295166,0,0,7.418774604797363,-994.65,-1194" x2="317.3074" x1="163.5512" y1="135.8153" y2="135.8153" gradientUnits="userSpaceOnUse">
      <stop offset="0" stop-color="#FFFFFF" stop-opacity="1"/>
      <stop offset="1" stop-color="#FFFFFF" stop-opacity="1"/>
    </linearGradient></defs>
  <!-- Exported by Scratch - http://scratch.mit.edu/ -->
  <path id="ID0.2061915541999042" fill="#F3F3F3" stroke="none" d="M 0 0 L 480 0 L 480 360 L 0 360 L 0 0 Z " stroke-width="1"/>
  <g id="ID0.7001365819014609">
    <path id="ID0.7590375300496817" fill="#282828" d="M 218.4438 60.4199 L 223.3922 60.4199 L 223.3922 69.1676 C 222.2176 70.0255 220.7773 70.7246 219.0723 71.2668 C 217.377 71.7972 215.7632 72.0629 214.2307 72.0629 C 212.0148 72.0629 210.0127 71.5678 208.2253 70.5765 C 206.4379 69.5765 205.029 68.2077 203.9976 66.4713 C 202.9759 64.7349 202.4651 62.7897 202.4651 60.6346 C 202.4651 58.5001 202.9916 56.5696 204.0436 54.8439 C 205.1055 53.1173 206.5605 51.7643 208.4097 50.7838 C 210.2578 49.8034 212.3257 49.3131 214.6141 49.3131 C 216.2377 49.3131 217.8673 49.6141 219.5007 50.2171 C 221.1352 50.8093 222.5186 51.6055 223.653 52.6065 L 220.389 56.6206 C 219.5929 55.8646 218.6732 55.2675 217.6319 54.8283 C 216.6005 54.389 215.5837 54.1694 214.5837 54.1694 C 213.4091 54.1694 212.3521 54.4557 211.4119 55.0273 C 210.4726 55.5891 209.7264 56.3598 209.1754 57.3402 C 208.6342 58.3207 208.3636 59.4188 208.3636 60.6346 C 208.3636 61.87 208.6342 62.9887 209.1754 63.9898 C 209.7264 64.98 210.4824 65.7566 211.4422 66.3184 C 212.4031 66.8802 213.4699 67.1606 214.6445 67.1606 C 215.7475 67.1606 217.0142 66.8086 218.4438 66.1036 L 218.4438 60.4199 Z M 234.1518 49.6504 L 251.5091 49.6504 L 251.5091 54.2312 L 239.8964 54.2312 L 239.8964 58.3521 L 250.3756 58.3521 L 250.3756 62.9014 L 239.8964 62.9328 L 239.8964 67.0684 L 251.815 67.0684 L 251.815 71.6492 L 234.1518 71.6492 L 234.1518 49.6504 Z M 260.3803 49.6504 L 279.2387 49.6504 L 279.2387 54.3988 L 272.6509 54.3988 L 272.6509 71.6492 L 266.9063 71.6492 L 266.9063 54.3988 L 260.3803 54.3988 L 260.3803 49.6504 Z " stroke-width="0.9804679155349731"/>
    <path id="ID0.9157314910553396" fill="#7AC36F" d="M 188.9938 97.6777 L 193.9422 97.6777 L 193.9422 106.4254 C 192.7676 107.2833 191.3273 107.9824 189.6223 108.5246 C 187.927 109.055 186.3132 109.3207 184.7807 109.3207 C 182.5648 109.3207 180.5627 108.8256 178.7753 107.8343 C 176.9879 106.8342 175.579 105.4655 174.5476 103.7291 C 173.5259 101.9927 173.0151 100.0474 173.0151 97.8924 C 173.0151 95.7579 173.5416 93.8274 174.5936 92.1017 C 175.6555 90.3751 177.1105 89.0221 178.9597 88.0416 C 180.8078 87.0611 182.8757 86.5709 185.1641 86.5709 C 186.7877 86.5709 188.4173 86.8719 190.0507 87.4749 C 191.6852 88.0671 193.0686 88.8632 194.203 89.8643 L 190.939 93.8783 C 190.1429 93.1224 189.2232 92.5253 188.1819 92.086 C 187.1505 91.6468 186.1337 91.4272 185.1337 91.4272 C 183.9591 91.4272 182.9021 91.7135 181.9619 92.2851 C 181.0226 92.8469 180.2764 93.6175 179.7254 94.598 C 179.1842 95.5785 178.9136 96.6766 178.9136 97.8924 C 178.9136 99.1278 179.1842 100.2465 179.7254 101.2475 C 180.2764 102.2378 181.0324 103.0143 181.9922 103.5761 C 182.9531 104.138 184.0199 104.4184 185.1945 104.4184 C 186.2975 104.4184 187.5642 104.0664 188.9938 103.3614 L 188.9938 97.6777 Z M 217.9078 108.907 L 214.7212 102.8251 L 214.583 102.8251 L 210.4464 102.8251 L 210.4464 108.907 L 204.7018 108.907 L 204.7018 86.9082 L 214.583 86.9082 C 217.494 86.9082 219.7461 87.5867 221.3394 88.9456 C 222.9425 90.2937 223.7445 92.188 223.7445 94.6294 C 223.7445 96.2834 223.4072 97.7139 222.7327 98.9189 C 222.0689 100.1131 221.0992 101.0485 219.8226 101.7221 L 224.4034 108.907 L 217.9078 108.907 Z M 210.4464 98.2444 L 214.6134 98.2444 C 215.788 98.2444 216.692 97.9532 217.3254 97.3717 C 217.9686 96.7786 218.2902 95.9265 218.2902 94.8127 C 218.2902 93.7509 217.9686 92.9341 217.3254 92.3616 C 216.692 91.7792 215.788 91.4889 214.6134 91.4889 L 210.4464 91.4889 L 210.4464 98.2444 Z M 234.3826 86.9082 L 251.7398 86.9082 L 251.7398 91.4889 L 240.1271 91.4889 L 240.1271 95.6098 L 250.6064 95.6098 L 250.6064 100.1592 L 240.1271 100.1906 L 240.1271 104.3262 L 252.0457 104.3262 L 252.0457 108.907 L 234.3826 108.907 L 234.3826 86.9082 Z M 262.5259 86.9082 L 279.8831 86.9082 L 279.8831 91.4889 L 268.2705 91.4889 L 268.2705 95.6098 L 278.7497 95.6098 L 278.7497 100.1592 L 268.2705 100.1906 L 268.2705 104.3262 L 280.19 104.3262 L 280.19 108.907 L 262.5259 108.907 L 262.5259 86.9082 Z M 305.6979 86.9082 L 311.0297 86.9082 L 311.0297 108.907 L 306.0195 108.907 L 296.0315 95.7628 L 296.0315 108.907 L 290.6693 108.907 L 290.6693 86.9082 L 295.7246 86.9082 L 305.7283 100.1592 L 305.6979 86.9082 Z " stroke-width="0.9804679155349731"/>
  </g>
  <path id="ID0.12809083331376314" fill="url(#grad_1-.747896671295166,0,0,7.418774604797363,-994.65,-1194)" stroke="url(#grad_2-.747896671295166,0,0,7.418774604797363,-994.65,-1194)" stroke-width="13.272266783083614" d="M 163.5512 135.8153 L 317.3074 135.8153 L 317.3074 284.1908 L 163.5512 284.1908 L 163.5512 135.8153 Z " style="stroke-linejoin: round; stroke-linecap: round;"/>
  <path id="ID0.36172753432765603" fill="none" stroke="#FFFFFF" stroke-width="7" stroke-linecap="round" d="M 160.5 298.5 L 320.5 298.5 "/>
</svg>