<svg xmlns="http://www.w3.org/2000/svg" xmlns:xlink="http://www.w3.org/1999/xlink" version="1.1" width="484" height="364" viewBox="-2 -2 484 364">
  <!-- Exported by Scratch - http://scratch.mit.edu/ -->
  <path id="ID0.9313635174185038" fill="#234158" stroke="none" d="M 0 0 L 480 0 L 480 360 L 0 360 L 0 0 Z " stroke-width="1"/>
  <g id="ID0.9497344270348549">
    <path id="ID0.11619279952719808" fill="#5EBDAB" stroke="none" stroke-linecap="round" d="M 137.5 84.7165 C 162.054 84.7165 184.304 94.6894 200.416 110.8003 C 216.527 126.9123 226.5 149.1623 226.5 173.7165 C 226.5 198.2707 216.527 220.5207 200.416 236.6326 C 184.304 252.7436 162.054 262.7165 137.5 262.7165 C 112.946 262.7165 90.696 252.7436 74.584 236.6326 C 58.473 220.5207 48.5 198.2707 48.5 173.7165 C 48.5 149.1623 58.473 126.9123 74.584 110.8003 C 90.696 94.6894 112.946 84.7165 137.5 84.7165 Z " stroke-width="0.9890720378355726"/>
    <g id="ID0.7392332786694169">
      <g id="ID0.3620622339658439">
        <path id="ID0.4507804224267602" fill="#ffffff" d="M 99.37 179.303 L 107.151 179.303 L 107.151 206.553 L 123.995 206.553 L 123.995 212.896 L 99.37 212.896 L 99.37 179.303 Z " stroke-width="1"/>
        <path id="ID0.9721732651814818" fill="#ffffff" d="M 132.134 179.303 L 139.915 179.303 L 139.915 212.896 L 132.134 212.896 L 132.134 179.303 Z " stroke-width="1"/>
        <path id="ID0.11776603106409311" fill="#ffffff" d="M 182.463 179.303 L 182.463 212.896 L 176.088 212.896 L 159.322 192.49 L 159.322 212.896 L 151.65 212.896 L 151.65 179.303 L 158.088 179.303 L 174.791 199.693 L 174.791 179.303 L 182.463 179.303 Z " stroke-width="1"/>
        <path id="ID0.7155153374187648" fill="#ffffff" d="M 220.222 206.662 L 220.222 212.896 L 194.206 212.896 L 194.206 179.303 L 219.597 179.303 L 219.597 185.537 L 201.94 185.537 L 201.94 192.834 L 217.534 192.834 L 217.534 198.881 L 201.94 198.881 L 201.94 206.662 L 220.222 206.662 Z " stroke-width="1"/>
        <path id="ID0.5229233293794096" fill="#ffffff" d="M 252.311 205.693 L 236.717 205.693 L 233.733 212.896 L 225.764 212.896 L 240.748 179.303 L 248.42 179.303 L 263.451 212.896 L 255.295 212.896 L 252.311 205.693 Z M 249.858 199.787 L 244.545 186.928 L 239.217 199.787 L 249.858 199.787 Z " stroke-width="1"/>
        <path id="ID0.3587612258270383" fill="#ffffff" d="M 292.132 212.896 L 285.648 203.537 L 285.273 203.537 L 278.507 203.537 L 278.507 212.896 L 270.726 212.896 L 270.726 179.303 L 285.273 179.303 C 288.241 179.303 290.82 179.797 293.007 180.787 C 295.205 181.776 296.898 183.183 298.085 185.006 C 299.273 186.829 299.866 188.99 299.866 191.49 C 299.866 193.99 299.262 196.146 298.054 197.959 C 296.856 199.761 295.153 201.141 292.945 202.099 L 300.491 212.896 L 292.132 212.896 Z M 291.991 191.49 C 291.991 189.605 291.382 188.157 290.163 187.146 C 288.945 186.136 287.168 185.631 284.835 185.631 L 278.507 185.631 L 278.507 197.349 L 284.835 197.349 C 287.168 197.349 288.945 196.839 290.163 195.818 C 291.382 194.787 291.991 193.344 291.991 191.49 Z " stroke-width="1"/>
        <path id="ID0.025766028091311455" fill="#ffffff" d="M 325.856 213.474 C 322.429 213.474 319.33 212.73 316.559 211.24 C 313.799 209.75 311.627 207.688 310.043 205.053 C 308.46 202.407 307.668 199.422 307.668 196.099 C 307.668 192.766 308.46 189.782 310.043 187.146 C 311.627 184.5 313.799 182.438 316.559 180.959 C 319.33 179.469 322.444 178.724 325.903 178.724 C 328.819 178.724 331.45 179.235 333.793 180.256 C 336.147 181.276 338.127 182.75 339.731 184.678 L 334.731 189.287 C 332.46 186.662 329.647 185.349 326.293 185.349 C 324.21 185.349 322.351 185.808 320.715 186.724 C 319.09 187.631 317.819 188.901 316.903 190.537 C 315.996 192.162 315.543 194.016 315.543 196.099 C 315.543 198.172 315.996 200.026 316.903 201.662 C 317.819 203.297 319.09 204.573 320.715 205.49 C 322.351 206.396 324.21 206.849 326.293 206.849 C 329.647 206.849 332.46 205.521 334.731 202.865 L 339.731 207.474 C 338.127 209.422 336.142 210.912 333.778 211.943 C 331.413 212.964 328.772 213.474 325.856 213.474 Z " stroke-width="1"/>
        <path id="ID0.6781743257306516" fill="#ffffff" d="M 355.687 185.631 L 344.937 185.631 L 344.937 179.303 L 374.218 179.303 L 374.218 185.631 L 363.468 185.631 L 363.468 212.896 L 355.687 212.896 L 355.687 185.631 Z " stroke-width="1"/>
        <path id="ID0.582335299346596" fill="#ffffff" d="M 382.17 179.303 L 389.951 179.303 L 389.951 212.896 L 382.17 212.896 L 382.17 179.303 Z " stroke-width="1"/>
        <path id="ID0.4800991634838283" fill="#ffffff" d="M 417.764 213.474 C 414.336 213.474 411.237 212.73 408.467 211.24 C 405.706 209.75 403.534 207.688 401.951 205.053 C 400.368 202.407 399.576 199.422 399.576 196.099 C 399.576 192.766 400.368 189.782 401.951 187.146 C 403.534 184.5 405.706 182.438 408.467 180.959 C 411.237 179.469 414.352 178.724 417.81 178.724 C 420.727 178.724 423.357 179.235 425.701 180.256 C 428.055 181.276 430.034 182.75 431.639 184.678 L 426.639 189.287 C 424.368 186.662 421.555 185.349 418.201 185.349 C 416.118 185.349 414.258 185.808 412.623 186.724 C 410.998 187.631 409.727 188.901 408.81 190.537 C 407.904 192.162 407.451 194.016 407.451 196.099 C 407.451 198.172 407.904 200.026 408.81 201.662 C 409.727 203.297 410.998 204.573 412.623 205.49 C 414.258 206.396 416.118 206.849 418.201 206.849 C 421.555 206.849 424.368 205.521 426.639 202.865 L 431.639 207.474 C 430.034 209.422 428.05 210.912 425.685 211.943 C 423.321 212.964 420.68 213.474 417.764 213.474 Z " stroke-width="1"/>
      </g>
    </g>
    <path id="ID0.8619502750225365" fill="none" stroke="#234158" stroke-width="4" stroke-linecap="round" d="M 222.65 205.8 C 222.65 205.8 221.798 207.974 221.35 209.05 C 220.862 210.224 220.347 211.435 219.75 212.6 C 219.298 213.601 218.743 214.552 218.2 215.55 C 217.381 217.063 215.75 220.1 215.75 220.1 "/>
  </g>
</svg>