<svg xmlns="http://www.w3.org/2000/svg" xmlns:xlink="http://www.w3.org/1999/xlink" version="1.1" width="484" height="394.64910888671875" viewBox="-2 -1.649099975824356 484 394.64910888671875">
  <!-- Exported by Scratch - http://scratch.mit.edu/ -->
  <path id="ID0.9313635174185038" fill="#234158" stroke="none" d="M 0 31 L 480 31 L 480 391 L 0 391 L 0 31 Z " stroke-width="1"/>
  <g id="ID0.3888459652662277">
    <g id="ID0.5060450206510723">
      <g id="ID0.9497344270348549">
        <path id="ID0.11619279952719808" fill="#5EBDAB" stroke="none" stroke-linecap="round" d="M 134.4 113.5665 C 158.954 113.5665 181.204 123.5394 197.316 139.6503 C 213.427 155.7623 223.4 178.0123 223.4 202.5665 C 223.4 227.1207 213.427 249.3707 197.316 265.4826 C 181.204 281.5936 158.954 291.5665 134.4 291.5665 C 109.846 291.5665 87.596 281.5936 71.484 265.4826 C 55.373 249.3707 45.4 227.1207 45.4 202.5665 C 45.4 178.0123 55.373 155.7623 71.484 139.6503 C 87.596 123.5394 109.846 113.5665 134.4 113.5665 Z " stroke-width="0.9890720378355726"/>
        <g id="ID0.7392332786694169">
          <g id="ID0.3620622339658439">
            <path id="ID0.4507804224267602" fill="#ffffff" d="M 96.27 208.253 L 104.051 208.253 L 104.051 235.503 L 120.895 235.503 L 120.895 241.846 L 96.27 241.846 L 96.27 208.253 Z " stroke-width="1"/>
            <path id="ID0.9721732651814818" fill="#ffffff" d="M 129.034 208.253 L 136.815 208.253 L 136.815 241.846 L 129.034 241.846 L 129.034 208.253 Z " stroke-width="1"/>
            <path id="ID0.11776603106409311" fill="#ffffff" d="M 179.363 208.253 L 179.363 241.846 L 172.988 241.846 L 156.222 221.44 L 156.222 241.846 L 148.55 241.846 L 148.55 208.253 L 154.988 208.253 L 171.691 228.643 L 171.691 208.253 L 179.363 208.253 Z " stroke-width="1"/>
            <path id="ID0.7155153374187648" fill="#ffffff" d="M 217.122 235.612 L 217.122 241.846 L 191.106 241.846 L 191.106 208.253 L 216.497 208.253 L 216.497 214.487 L 198.84 214.487 L 198.84 221.784 L 214.434 221.784 L 214.434 227.831 L 198.84 227.831 L 198.84 235.612 L 217.122 235.612 Z " stroke-width="1"/>
            <path id="ID0.5229233293794096" fill="#ffffff" d="M 249.211 234.643 L 233.617 234.643 L 230.633 241.846 L 222.664 241.846 L 237.648 208.253 L 245.32 208.253 L 260.351 241.846 L 252.195 241.846 L 249.211 234.643 Z M 246.758 228.737 L 241.445 215.878 L 236.117 228.737 L 246.758 228.737 Z " stroke-width="1"/>
            <path id="ID0.3587612258270383" fill="#ffffff" d="M 289.032 241.846 L 282.548 232.487 L 282.173 232.487 L 275.407 232.487 L 275.407 241.846 L 267.626 241.846 L 267.626 208.253 L 282.173 208.253 C 285.141 208.253 287.72 208.747 289.907 209.737 C 292.105 210.726 293.798 212.133 294.985 213.956 C 296.173 215.779 296.766 217.94 296.766 220.44 C 296.766 222.94 296.162 225.096 294.954 226.909 C 293.756 228.711 292.053 230.091 289.845 231.049 L 297.391 241.846 L 289.032 241.846 Z M 288.891 220.44 C 288.891 218.555 288.282 217.107 287.063 216.096 C 285.845 215.086 284.068 214.581 281.735 214.581 L 275.407 214.581 L 275.407 226.299 L 281.735 226.299 C 284.068 226.299 285.845 225.789 287.063 224.768 C 288.282 223.737 288.891 222.294 288.891 220.44 Z " stroke-width="1"/>
            <path id="ID0.025766028091311455" fill="#ffffff" d="M 322.756 242.424 C 319.329 242.424 316.23 241.68 313.459 240.19 C 310.699 238.7 308.527 236.638 306.943 234.003 C 305.36 231.357 304.568 228.372 304.568 225.049 C 304.568 221.716 305.36 218.732 306.943 216.096 C 308.527 213.45 310.699 211.388 313.459 209.909 C 316.23 208.419 319.344 207.674 322.803 207.674 C 325.719 207.674 328.35 208.185 330.693 209.206 C 333.047 210.226 335.027 211.7 336.631 213.628 L 331.631 218.237 C 329.36 215.612 326.547 214.299 323.193 214.299 C 321.11 214.299 319.251 214.758 317.615 215.674 C 315.99 216.581 314.719 217.851 313.803 219.487 C 312.896 221.112 312.443 222.966 312.443 225.049 C 312.443 227.122 312.896 228.976 313.803 230.612 C 314.719 232.247 315.99 233.523 317.615 234.44 C 319.251 235.346 321.11 235.799 323.193 235.799 C 326.547 235.799 329.36 234.471 331.631 231.815 L 336.631 236.424 C 335.027 238.372 333.042 239.862 330.678 240.893 C 328.313 241.914 325.672 242.424 322.756 242.424 Z " stroke-width="1"/>
            <path id="ID0.6781743257306516" fill="#ffffff" d="M 352.587 214.581 L 341.837 214.581 L 341.837 208.253 L 371.118 208.253 L 371.118 214.581 L 360.368 214.581 L 360.368 241.846 L 352.587 241.846 L 352.587 214.581 Z " stroke-width="1"/>
            <path id="ID0.582335299346596" fill="#ffffff" d="M 379.07 208.253 L 386.851 208.253 L 386.851 241.846 L 379.07 241.846 L 379.07 208.253 Z " stroke-width="1"/>
            <path id="ID0.4800991634838283" fill="#ffffff" d="M 414.664 242.424 C 411.236 242.424 408.137 241.68 405.367 240.19 C 402.606 238.7 400.434 236.638 398.851 234.003 C 397.268 231.357 396.476 228.372 396.476 225.049 C 396.476 221.716 397.268 218.732 398.851 216.096 C 400.434 213.45 402.606 211.388 405.367 209.909 C 408.137 208.419 411.252 207.674 414.71 207.674 C 417.627 207.674 420.257 208.185 422.601 209.206 C 424.955 210.226 426.934 211.7 428.539 213.628 L 423.539 218.237 C 421.268 215.612 418.455 214.299 415.101 214.299 C 413.018 214.299 411.158 214.758 409.523 215.674 C 407.898 216.581 406.627 217.851 405.71 219.487 C 404.804 221.112 404.351 222.966 404.351 225.049 C 404.351 227.122 404.804 228.976 405.71 230.612 C 406.627 232.247 407.898 233.523 409.523 234.44 C 411.158 235.346 413.018 235.799 415.101 235.799 C 418.455 235.799 421.268 234.471 423.539 231.815 L 428.539 236.424 C 426.934 238.372 424.95 239.862 422.585 240.893 C 420.221 241.914 417.58 242.424 414.664 242.424 Z " stroke-width="1"/>
          </g>
        </g>
        <path id="ID0.8619502750225365" fill="none" stroke="#234158" stroke-width="4" stroke-linecap="round" d="M 219.55 234.75 C 219.55 234.75 218.698 236.924 218.25 238 C 217.762 239.174 217.247 240.385 216.65 241.55 C 216.198 242.551 215.643 243.502 215.1 244.5 C 214.281 246.013 212.65 249.05 212.65 249.05 "/>
      </g>
      <g id="ID0.0857315231114626">
        <g id="ID0.12483491189777851">
          <path id="ID0.8306178883649409" fill="#ffffff" d="M 237.728 280.0932 C 236.8043 280.0932 235.9098 279.9679 235.0456 279.7179 C 234.1866 279.4627 233.4935 279.1366 232.9659 278.7394 L 233.8875 276.701 C 234.3875 277.0652 234.983 277.3585 235.6734 277.5814 C 236.3638 277.8042 237.0543 277.9159 237.7447 277.9159 C 238.5108 277.9159 239.0792 277.8016 239.4486 277.5735 C 239.8187 277.345 240.0034 277.0433 240.0034 276.6681 C 240.0034 276.391 239.8943 276.1598 239.6772 275.975 C 239.4596 275.7903 239.1799 275.6436 238.837 275.5351 C 238.5004 275.4208 238.0406 275.2956 237.4593 275.1599 C 236.5674 274.9532 235.8394 274.7439 235.2736 274.5321 C 234.7085 274.3197 234.2221 273.9799 233.814 273.5128 C 233.4064 273.0452 233.2028 272.42 233.2028 271.6372 C 233.2028 270.9577 233.385 270.3435 233.7487 269.7945 C 234.1187 269.2449 234.673 268.8102 235.4125 268.4898 C 236.1572 268.1636 237.0621 268.0003 238.1278 268.0003 C 238.8725 268.0003 239.601 268.09 240.3134 268.2696 C 241.031 268.4433 241.6557 268.6991 242.1885 269.0357 L 241.3488 271.0908 C 240.2722 270.4766 239.1934 270.1692 238.1116 270.1692 C 237.3559 270.1692 236.796 270.2918 236.4317 270.5361 C 236.0732 270.7808 235.8936 271.1044 235.8936 271.5067 C 235.8936 271.9091 236.1003 272.2081 236.5131 272.4038 C 236.9316 272.5938 237.5704 272.7843 238.4294 272.9743 C 239.3213 273.1867 240.0493 273.3985 240.615 273.6104 C 241.1854 273.8223 241.6724 274.1568 242.0747 274.6135 C 242.4823 275.0701 242.6858 275.687 242.6858 276.4646 C 242.6858 277.1331 242.4985 277.7447 242.1233 278.2989 C 241.7538 278.848 241.1964 279.2858 240.4517 279.612 C 239.707 279.9329 238.7994 280.0932 237.728 280.0932 Z M 254.8622 280.0932 C 253.6718 280.0932 252.5952 279.8348 251.6329 279.3187 C 250.671 278.7968 249.9128 278.0761 249.358 277.1576 C 248.809 276.2386 248.5345 275.2006 248.5345 274.0425 C 248.5345 272.8845 248.809 271.8465 249.358 270.9275 C 249.9128 270.009 250.671 269.2914 251.6329 268.7747 C 252.5952 268.2586 253.677 268.0003 254.8784 268.0003 C 255.8898 268.0003 256.8057 268.1798 257.6266 268.5383 C 258.4475 268.8916 259.1348 269.4031 259.6896 270.0716 L 257.9528 271.6696 C 257.1642 270.7563 256.1831 270.2996 255.0089 270.2996 C 254.2861 270.2996 253.6389 270.4604 253.068 270.7808 C 252.5028 271.096 252.0624 271.5391 251.7472 272.11 C 251.4319 272.6752 251.2743 273.3197 251.2743 274.0425 C 251.2743 274.7659 251.4319 275.4125 251.7472 275.9834 C 252.0624 276.5486 252.5028 276.9917 253.068 277.3126 C 253.6389 277.6278 254.2861 277.7854 255.0089 277.7854 C 256.1831 277.7854 257.1642 277.3236 257.9528 276.3993 L 259.6896 278.0057 C 259.1348 278.6851 258.4444 279.2044 257.6182 279.5629 C 256.7921 279.9162 255.8731 280.0932 254.8622 280.0932 Z M 273.6805 279.8891 L 271.4297 276.6357 L 271.2992 276.6357 L 268.9429 276.6357 L 268.9429 279.8891 L 266.2354 279.8891 L 266.2354 268.196 L 271.2992 268.196 C 272.3325 268.196 273.2291 268.3698 273.9905 268.7178 C 274.7566 269.0602 275.3437 269.5497 275.7518 270.1859 C 276.1646 270.8215 276.3713 271.5746 276.3713 272.4446 C 276.3713 273.3088 276.162 274.0561 275.7435 274.6871 C 275.3302 275.3175 274.7378 275.7986 273.966 276.13 L 276.5915 279.8891 L 273.6805 279.8891 Z M 273.6315 272.4446 C 273.6315 271.7865 273.4196 271.2839 272.9953 270.9358 C 272.5768 270.5825 271.9599 270.4056 271.1442 270.4056 L 268.9429 270.4056 L 268.9429 274.4746 L 271.1442 274.4746 C 271.9599 274.4746 272.5768 274.2983 272.9953 273.9449 C 273.4196 273.5859 273.6315 273.0859 273.6315 272.4446 Z M 290.9337 277.3857 L 285.5114 277.3857 L 284.4755 279.8891 L 281.7033 279.8891 L 286.9137 268.196 L 289.5805 268.196 L 294.8071 279.8891 L 291.9696 279.8891 L 290.9337 277.3857 Z M 290.0857 275.331 L 288.2267 270.8544 L 286.3756 275.331 L 290.0857 275.331 Z M 303.1764 270.4056 L 299.4335 270.4056 L 299.4335 268.196 L 309.6184 268.196 L 309.6184 270.4056 L 305.8833 270.4056 L 305.8833 279.8891 L 303.1764 279.8891 L 303.1764 270.4056 Z M 321.395 280.0932 C 320.2046 280.0932 319.128 279.8348 318.1662 279.3187 C 317.2038 278.7968 316.4456 278.0761 315.8908 277.1576 C 315.3418 276.2386 315.0673 275.2006 315.0673 274.0425 C 315.0673 272.8845 315.3418 271.8465 315.8908 270.9275 C 316.4456 270.009 317.2038 269.2914 318.1662 268.7747 C 319.128 268.2586 320.2098 268.0003 321.4112 268.0003 C 322.4226 268.0003 323.3385 268.1798 324.1594 268.5383 C 324.9803 268.8916 325.6681 269.4031 326.2224 270.0716 L 324.4856 271.6696 C 323.6975 270.7563 322.7159 270.2996 321.5417 270.2996 C 320.8189 270.2996 320.1718 270.4604 319.6013 270.7808 C 319.0356 271.096 318.5957 271.5391 318.28 272.11 C 317.9647 272.6752 317.8071 273.3197 317.8071 274.0425 C 317.8071 274.7659 317.9647 275.4125 318.28 275.9834 C 318.5957 276.5486 319.0356 276.9917 319.6013 277.3126 C 320.1718 277.6278 320.8189 277.7854 321.5417 277.7854 C 322.7159 277.7854 323.6975 277.3236 324.4856 276.3993 L 326.2224 278.0057 C 325.6681 278.6851 324.9777 279.2044 324.151 279.5629 C 323.3249 279.9162 322.4064 280.0932 321.395 280.0932 Z M 343.4912 268.196 L 343.4912 279.8891 L 340.7843 279.8891 L 340.7843 275.0946 L 335.4757 275.0946 L 335.4757 279.8891 L 332.7682 279.8891 L 332.7682 268.196 L 335.4757 268.196 L 335.4757 272.8114 L 340.7843 272.8114 L 340.7843 268.196 L 343.4912 268.196 Z M 354.829 280.0932 C 353.9047 280.0932 353.0107 279.9679 352.146 279.7179 C 351.287 279.4627 350.5939 279.1366 350.0668 278.7394 L 350.9885 276.701 C 351.4884 277.0652 352.0839 277.3585 352.7738 277.5814 C 353.4642 277.8042 354.1547 277.9159 354.8451 277.9159 C 355.6118 277.9159 356.1796 277.8016 356.5496 277.5735 C 356.9191 277.345 357.1038 277.0433 357.1038 276.6681 C 357.1038 276.391 356.9953 276.1598 356.7776 275.975 C 356.5605 275.7903 356.2803 275.6436 355.9379 275.5351 C 355.6008 275.4208 355.1416 275.2956 354.5597 275.1599 C 353.6683 274.9532 352.9398 274.7439 352.3746 274.5321 C 351.8089 274.3197 351.3225 273.9799 350.9149 273.5128 C 350.5073 273.0452 350.3033 272.42 350.3033 271.6372 C 350.3033 270.9577 350.4854 270.3435 350.8497 269.7945 C 351.2191 269.2449 351.7739 268.8102 352.5129 268.4898 C 353.2581 268.1636 354.163 268.0003 355.2287 268.0003 C 355.9734 268.0003 356.7014 268.09 357.4138 268.2696 C 358.1314 268.4433 358.7566 268.6991 359.2894 269.0357 L 358.4492 271.0908 C 357.3731 270.4766 356.2939 270.1692 355.212 270.1692 C 354.4563 270.1692 353.8964 270.2918 353.5326 270.5361 C 353.1736 270.7808 352.994 271.1044 352.994 271.5067 C 352.994 271.9091 353.2007 272.2081 353.614 272.4038 C 354.0326 272.5938 354.6713 272.7843 355.5304 272.9743 C 356.4217 273.1867 357.1503 273.3985 357.7154 273.6104 C 358.2864 273.8223 358.7728 274.1568 359.1751 274.6135 C 359.5827 275.0701 359.7868 275.687 359.7868 276.4646 C 359.7868 277.1331 359.5994 277.7447 359.2242 278.2989 C 358.8542 278.848 358.2973 279.2858 357.5526 279.612 C 356.8079 279.9329 355.8998 280.0932 354.829 280.0932 Z M 368.7907 270.4056 L 365.0478 270.4056 L 365.0478 268.196 L 375.2327 268.196 L 375.2327 270.4056 L 371.4982 270.4056 L 371.4982 279.8891 L 368.7907 279.8891 L 368.7907 270.4056 Z M 389.1135 277.3857 L 383.6907 277.3857 L 382.6553 279.8891 L 379.8826 279.8891 L 385.0935 268.196 L 387.7598 268.196 L 392.9869 279.8891 L 390.1489 279.8891 L 389.1135 277.3857 Z M 388.2655 275.331 L 386.406 270.8544 L 384.555 275.331 L 388.2655 275.331 Z M 409.6571 268.196 L 409.6571 279.8891 L 407.4308 279.8891 L 401.6088 272.7953 L 401.6088 279.8891 L 398.9342 279.8891 L 398.9342 268.196 L 401.1683 268.196 L 406.9825 275.2982 L 406.9825 268.196 L 409.6571 268.196 Z M 425.0551 273.863 L 427.5261 273.863 L 427.5261 278.6011 C 426.89 279.0792 426.1536 279.4492 425.316 279.7101 C 424.4847 279.9653 423.6444 280.0932 422.7964 280.0932 C 421.5841 280.0932 420.4944 279.8348 419.5268 279.3187 C 418.5588 278.7968 417.7979 278.0761 417.2436 277.1576 C 416.6946 276.2386 416.4201 275.2006 416.4201 274.0425 C 416.4201 272.8845 416.6946 271.8465 417.2436 270.9275 C 417.7979 270.009 418.5645 269.2914 419.543 268.7747 C 420.5215 268.2586 421.6222 268.0003 422.8454 268.0003 C 423.873 268.0003 424.8025 268.1741 425.6343 268.5221 C 426.4714 268.8645 427.1728 269.365 427.738 270.0225 L 426.0012 271.621 C 425.1694 270.7401 424.1637 270.2996 422.9843 270.2996 C 422.2395 270.2996 421.5762 270.4573 420.9944 270.773 C 420.4182 271.0825 419.9668 271.5229 419.6406 272.0939 C 419.3202 272.659 419.16 273.3088 419.16 274.0425 C 419.16 274.7659 419.3202 275.4125 419.6406 275.9834 C 419.9668 276.5486 420.4156 276.9917 420.9865 277.3126 C 421.5569 277.6278 422.2119 277.7854 422.9514 277.7854 C 423.729 277.7854 424.4299 277.6195 425.0551 277.2881 L 425.0551 273.863 Z " stroke-width="0.5218750238418579"/>
        </g>
      </g>
    </g>
    <g id="ID0.9931980166584253">
      <path id="ID0.06023149751126766" fill="#234158" stroke="none" d="M 3.4637 150.6167 L 166.8778 0.3509 L 203.429 40.1002 L 40.0149 190.3661 L 3.4637 150.6167 Z " stroke-width="0.9999999803827178"/>
      <path id="ID0.7574801295995712" fill="#234158" stroke="none" d="M 80.0181 80.2219 L 166.8778 0.3509 L 252.8407 93.8355 L 165.981 173.7065 L 80.0181 80.2219 Z " stroke-width="0.9999999803827178"/>
      <path id="ID0.30299328034743667" fill="#234158" stroke="none" d="M 105.0454 57.2082 L 166.8778 0.3509 L 292.7762 137.2654 L 230.9439 194.1227 L 105.0454 57.2082 Z " stroke-width="0.9999999803827178"/>
    </g>
  </g>
</svg>