<svg version="1.1" xmlns="http://www.w3.org/2000/svg" xmlns:xlink="http://www.w3.org/1999/xlink" width="480" height="360"><g data-paper-data="{&quot;isPaintingLayer&quot;:true}" fill="none" fill-rule="nonzero" stroke="none" stroke-width="none" stroke-linecap="butt" stroke-linejoin="miter" stroke-miterlimit="10" stroke-dasharray="" stroke-dashoffset="0" font-family="none" font-weight="none" font-size="none" text-anchor="none" style="mix-blend-mode: normal"><path d="M0,0h480v360h-480z" data-paper-data="{&quot;origPos&quot;:null}" id="ID0.9313635174185038" fill="#5ebdab" stroke-width="1"/><path d="M146.4016,320.724c0.7703,0 1.4335,0.14 1.9913,0.422c0.5588,0.271 0.9911,0.661 1.2995,1.172c0.3076,0.5 0.4618,1.099 0.4618,1.796c0,0.678 -0.1542,1.271 -0.4618,1.782c-0.3084,0.51 -0.7407,0.901 -1.2995,1.172c-0.5578,0.27 -1.221,0.406 -1.9913,0.406h-1.7317v2.578h-1.9913v-9.328zM146.301,325.724c0.5966,0 1.0483,-0.141 1.3567,-0.422c0.3168,-0.281 0.4757,-0.677 0.4757,-1.188c0,-0.531 -0.1589,-0.937 -0.4757,-1.218c-0.3084,-0.282 -0.7601,-0.422 -1.3567,-0.422h-1.6311v3.25zM157.1736,330.052l-1.6597,-2.594h-0.1016h-1.7317v2.594h-1.9913v-9.328h3.723c0.7703,0 1.4335,0.14 1.9922,0.422c0.5579,0.271 0.9911,0.661 1.2986,1.172c0.3076,0.5 0.4618,1.099 0.4618,1.796c0,0.688 -0.1542,1.282 -0.4618,1.782c-0.3075,0.5 -0.7453,0.885 -1.3133,1.156l1.934,3zM157.1441,324.114c0,-0.531 -0.1589,-0.937 -0.4757,-1.218c-0.3084,-0.282 -0.7601,-0.422 -1.3567,-0.422h-1.6311v3.265h1.6311c0.5966,0 1.0483,-0.14 1.3567,-0.421c0.3168,-0.292 0.4757,-0.693 0.4757,-1.204zM167.4044,328.318v1.734h-6.6675v-9.328h6.5087v1.734h-4.5312v2.016h3.9973v1.687h-3.9973v2.157zM171.8257,330.208c-0.6834,0 -1.342,-0.099 -1.9774,-0.297c-0.6345,-0.198 -1.1444,-0.458 -1.5295,-0.781l0.6779,-1.625c0.3658,0.292 0.8036,0.526 1.3134,0.703c0.5098,0.177 1.0197,0.266 1.5295,0.266c0.568,0 0.9864,-0.089 1.2561,-0.266c0.2697,-0.187 0.4036,-0.432 0.4036,-0.734c0,-0.219 -0.0813,-0.401 -0.2448,-0.547c-0.1542,-0.146 -0.3565,-0.26 -0.6068,-0.344c-0.2493,-0.094 -0.5911,-0.192 -1.0242,-0.297c-0.654,-0.177 -1.1933,-0.349 -1.6163,-0.515c-0.4138,-0.167 -0.7694,-0.438 -1.0677,-0.813c-0.2984,-0.375 -0.448,-0.87 -0.448,-1.484c0,-0.542 0.1349,-1.031 0.4046,-1.469c0.2696,-0.448 0.6779,-0.797 1.2265,-1.047c0.5486,-0.26 1.2127,-0.39 1.9913,-0.39c0.5588,0 1.0972,0.073 1.6163,0.218c0.5292,0.136 0.991,0.339 1.3854,0.61l-0.6206,1.625c-0.798,-0.479 -1.5914,-0.719 -2.3811,-0.719c-0.5579,0 -0.9716,0.099 -1.2404,0.297c-0.2697,0.187 -0.4045,0.443 -0.4045,0.765c0,0.323 0.1542,0.563 0.4618,0.719c0.3075,0.146 0.7795,0.297 1.414,0.453c0.6548,0.167 1.1887,0.334 1.6025,0.5c0.423,0.167 0.7841,0.433 1.0824,0.797c0.2983,0.365 0.447,0.86 0.447,1.485c0,0.531 -0.1394,1.02 -0.4183,1.468c-0.2697,0.438 -0.6789,0.787 -1.2266,1.047c-0.5486,0.25 -1.2173,0.375 -2.0061,0.375zM179.6792,330.208c-0.6826,0 -1.342,-0.099 -1.9766,-0.297c-0.6354,-0.198 -1.1452,-0.458 -1.5304,-0.781l0.6789,-1.625c0.3657,0.292 0.8026,0.526 1.3133,0.703c0.5099,0.177 1.0197,0.266 1.5295,0.266c0.5671,0 0.9864,-0.089 1.2552,-0.266c0.2697,-0.187 0.4045,-0.432 0.4045,-0.734c0,-0.219 -0.0822,-0.401 -0.2456,-0.547c-0.1543,-0.146 -0.3556,-0.26 -0.6059,-0.344c-0.2503,-0.094 -0.592,-0.192 -1.0252,-0.297c-0.6539,-0.177 -1.1924,-0.349 -1.6163,-0.515c-0.4129,-0.167 -0.7694,-0.438 -1.0677,-0.813c-0.2983,-0.375 -0.447,-0.87 -0.447,-1.484c0,-0.542 0.1348,-1.031 0.4036,-1.469c0.2697,-0.448 0.6788,-0.797 1.2265,-1.047c0.5486,-0.26 1.2127,-0.39 1.9922,-0.39c0.5579,0 1.0964,0.073 1.6163,0.218c0.5293,0.136 0.9911,0.339 1.3855,0.61l-0.6207,1.625c-0.7989,-0.479 -1.5923,-0.719 -2.3811,-0.719c-0.5578,0 -0.9716,0.099 -1.2413,0.297c-0.2697,0.187 -0.4045,0.443 -0.4045,0.765c0,0.323 0.1542,0.563 0.4618,0.719c0.3085,0.146 0.7795,0.297 1.4149,0.453c0.654,0.167 1.1878,0.334 1.6016,0.5c0.423,0.167 0.7841,0.433 1.0824,0.797c0.2984,0.365 0.4471,0.86 0.4471,1.485c0,0.531 -0.1395,1.02 -0.4184,1.468c-0.2688,0.438 -0.678,0.787 -1.2266,1.047c-0.5486,0.25 -1.2173,0.375 -2.006,0.375zM191.0164,330.208c-0.6825,0 -1.342,-0.099 -1.9765,-0.297c-0.6354,-0.198 -1.1453,-0.458 -1.5304,-0.781l0.6788,-1.625c0.3658,0.292 0.8036,0.526 1.3134,0.703c0.5098,0.177 1.0197,0.266 1.5295,0.266c0.568,0 0.9864,-0.089 1.2552,-0.266c0.2697,-0.187 0.4045,-0.432 0.4045,-0.734c0,-0.219 -0.0822,-0.401 -0.2457,-0.547c-0.1533,-0.146 -0.3556,-0.26 -0.6059,-0.344c-0.2503,-0.094 -0.592,-0.192 -1.0242,-0.297c-0.6549,-0.177 -1.1933,-0.349 -1.6163,-0.515c-0.4138,-0.167 -0.7703,-0.438 -1.0687,-0.813c-0.2983,-0.375 -0.447,-0.87 -0.447,-1.484c0,-0.542 0.1349,-1.031 0.4036,-1.469c0.2697,-0.448 0.6789,-0.797 1.2275,-1.047c0.5477,-0.26 1.2118,-0.39 1.9913,-0.39c0.5579,0 1.0963,0.073 1.6163,0.218c0.5292,0.136 0.991,0.339 1.3854,0.61l-0.6206,1.625c-0.799,-0.479 -1.5923,-0.719 -2.3811,-0.719c-0.5579,0 -0.9716,0.099 -1.2413,0.297c-0.2697,0.187 -0.4036,0.443 -0.4036,0.765c0,0.323 0.1533,0.563 0.4618,0.719c0.3075,0.146 0.7786,0.297 1.414,0.453c0.6539,0.167 1.1878,0.334 1.6015,0.5c0.424,0.167 0.7842,0.433 1.0825,0.797c0.2983,0.365 0.447,0.86 0.447,1.485c0,0.531 -0.1394,1.02 -0.4184,1.468c-0.2687,0.438 -0.6779,0.787 -1.2265,1.047c-0.5486,0.25 -1.2164,0.375 -2.0061,0.375zM199.7648,320.724c0.7703,0 1.4334,0.14 1.9922,0.422c0.5579,0.271 0.9911,0.661 1.2986,1.172c0.3076,0.5 0.4618,1.099 0.4618,1.796c0,0.678 -0.1542,1.271 -0.4618,1.782c-0.3075,0.51 -0.7407,0.901 -1.2986,1.172c-0.5588,0.27 -1.2219,0.406 -1.9922,0.406h-1.7318v2.578h-1.9912v-9.328zM199.6641,325.724c0.5967,0 1.0483,-0.141 1.3568,-0.422c0.3177,-0.281 0.4757,-0.677 0.4757,-1.188c0,-0.531 -0.158,-0.937 -0.4757,-1.218c-0.3085,-0.282 -0.7601,-0.422 -1.3568,-0.422h-1.6311v3.25zM210.7243,328.052h-3.9974l-0.7647,2h-2.0495l3.8385,-9.328h1.9775l3.8532,9.328h-2.0928zM210.1036,326.411l-1.3706,-3.562l-1.3715,3.562zM218.6091,330.208c-0.8848,0 -1.6837,-0.203 -2.3949,-0.609c-0.7028,-0.417 -1.2607,-0.99 -1.6745,-1.719c-0.4036,-0.739 -0.6059,-1.573 -0.6059,-2.5c0,-0.917 0.2023,-1.739 0.6059,-2.469c0.4138,-0.739 0.9717,-1.312 1.6745,-1.718c0.7112,-0.417 1.5101,-0.625 2.3949,-0.625c0.7509,0 1.4242,0.14 2.0209,0.421c0.6059,0.282 1.1157,0.688 1.5295,1.219l-1.2848,1.281c-0.5772,-0.729 -1.2986,-1.093 -2.164,-1.093c-0.5292,0 -1.0058,0.13 -1.4288,0.39c-0.4138,0.25 -0.7407,0.605 -0.9818,1.063c-0.2309,0.448 -0.3463,0.958 -0.3463,1.531c0,0.583 0.1154,1.104 0.3463,1.563c0.2411,0.448 0.568,0.802 0.9818,1.062c0.423,0.25 0.8996,0.375 1.4288,0.375c0.8654,0 1.5868,-0.37 2.164,-1.109l1.2848,1.281c-0.4138,0.542 -0.9236,0.953 -1.5295,1.234c-0.6059,0.282 -1.2801,0.422 -2.0209,0.422zM230.1727,328.318v1.734h-6.6675v-9.328h6.5086v1.734h-4.5312v2.016h3.9974v1.687h-3.9974v2.157zM237.024,322.474h-2.7561v-1.75h7.5182v1.75h-2.756v7.578h-2.0061zM247.0266,330.208c-0.894,0 -1.7022,-0.208 -2.4244,-0.625c-0.7112,-0.416 -1.2746,-0.989 -1.6884,-1.719c-0.4036,-0.739 -0.6059,-1.567 -0.6059,-2.484c0,-0.906 0.2023,-1.724 0.6059,-2.453c0.4138,-0.74 0.9772,-1.318 1.6884,-1.734c0.7222,-0.417 1.5304,-0.625 2.4244,-0.625c0.895,0 1.6985,0.208 2.4106,0.625c0.7121,0.416 1.2746,0.994 1.6884,1.734c0.4138,0.729 0.6207,1.547 0.6207,2.453c0,0.917 -0.2069,1.745 -0.6207,2.484c-0.4138,0.73 -0.9763,1.303 -1.6884,1.719c-0.7121,0.417 -1.5156,0.625 -2.4106,0.625zM247.0266,328.38c0.5108,0 0.9671,-0.125 1.3716,-0.375c0.4138,-0.26 0.7361,-0.614 0.967,-1.062c0.2401,-0.459 0.3602,-0.98 0.3602,-1.563c0,-0.573 -0.1201,-1.083 -0.3602,-1.531c-0.2309,-0.458 -0.5532,-0.813 -0.967,-1.063c-0.4045,-0.26 -0.8608,-0.39 -1.3716,-0.39c-0.5098,0 -0.9716,0.13 -1.3854,0.39c-0.4036,0.25 -0.7259,0.605 -0.9661,1.063c-0.2309,0.448 -0.3463,0.958 -0.3463,1.531c0,0.583 0.1154,1.104 0.3463,1.563c0.2402,0.448 0.5625,0.802 0.9661,1.062c0.4138,0.25 0.8756,0.375 1.3854,0.375zM260.8567,330.208c-0.8848,0 -1.6837,-0.203 -2.3949,-0.609c-0.7029,-0.417 -1.2607,-0.99 -1.6745,-1.719c-0.4036,-0.739 -0.6059,-1.573 -0.6059,-2.5c0,-0.917 0.2023,-1.739 0.6059,-2.469c0.4138,-0.739 0.9716,-1.312 1.6745,-1.718c0.7112,-0.417 1.5101,-0.625 2.3949,-0.625c0.7509,0 1.4242,0.14 2.0209,0.421c0.6058,0.282 1.1157,0.688 1.5295,1.219l-1.2848,1.281c-0.5772,-0.729 -1.2986,-1.093 -2.164,-1.093c-0.5292,0 -1.0058,0.13 -1.4288,0.39c-0.4138,0.25 -0.7407,0.605 -0.9818,1.063c-0.2309,0.448 -0.3464,0.958 -0.3464,1.531c0,0.583 0.1155,1.104 0.3464,1.563c0.2411,0.448 0.568,0.802 0.9818,1.062c0.423,0.25 0.8996,0.375 1.4288,0.375c0.8654,0 1.5868,-0.37 2.164,-1.109l1.2848,1.281c-0.4138,0.542 -0.9237,0.953 -1.5295,1.234c-0.6059,0.282 -1.2802,0.422 -2.0209,0.422zM269.9237,330.208c-0.8949,0 -1.7031,-0.208 -2.4244,-0.625c-0.7121,-0.416 -1.2755,-0.989 -1.6884,-1.719c-0.4045,-0.739 -0.6068,-1.567 -0.6068,-2.484c0,-0.906 0.2023,-1.724 0.6068,-2.453c0.4129,-0.74 0.9763,-1.318 1.6884,-1.734c0.7213,-0.417 1.5295,-0.625 2.4244,-0.625c0.8941,0 1.6976,0.208 2.4097,0.625c0.7121,0.416 1.2746,0.994 1.6884,1.734c0.4138,0.729 0.6207,1.547 0.6207,2.453c0,0.917 -0.2069,1.745 -0.6207,2.484c-0.4138,0.73 -0.9763,1.303 -1.6884,1.719c-0.7121,0.417 -1.5156,0.625 -2.4097,0.625zM269.9237,328.38c0.5099,0 0.9671,-0.125 1.3707,-0.375c0.4138,-0.26 0.7361,-0.614 0.967,-1.062c0.2401,-0.459 0.3611,-0.98 0.3611,-1.563c0,-0.573 -0.121,-1.083 -0.3611,-1.531c-0.2309,-0.458 -0.5532,-0.813 -0.967,-1.063c-0.4036,-0.26 -0.8608,-0.39 -1.3707,-0.39c-0.5098,0 -0.9716,0.13 -1.3854,0.39c-0.4045,0.25 -0.7268,0.605 -0.967,1.063c-0.2309,0.448 -0.3463,0.958 -0.3463,1.531c0,0.583 0.1154,1.104 0.3463,1.563c0.2402,0.448 0.5625,0.802 0.967,1.062c0.4138,0.25 0.8756,0.375 1.3854,0.375zM284.0364,320.724v9.328h-1.631l-4.3004,-5.672v5.672h-1.9626v-9.328h1.6449l4.2865,5.656v-5.656zM287.8639,322.474h-2.7561v-1.75h7.5182v1.75h-2.7561v7.578h-2.006zM293.6964,320.724h1.9913v9.328h-1.9913zM305.6276,320.724v9.328h-1.6302l-4.3012,-5.672v5.672h-1.9627v-9.328h1.6459l4.2855,5.656v-5.656zM311.5045,330.208c-1.2312,0 -2.189,-0.364 -2.8715,-1.094c-0.6835,-0.739 -1.0252,-1.796 -1.0252,-3.171v-5.219h1.9922v5.14c0,1.678 0.6391,2.516 1.9193,2.516c0.6252,0 1.1009,-0.203 1.4288,-0.609c0.3269,-0.407 0.4904,-1.042 0.4904,-1.907v-5.14h1.9627v5.219c0,1.375 -0.3418,2.432 -1.0243,3.171c-0.6835,0.73 -1.6413,1.094 -2.8724,1.094zM324.048,328.318v1.734h-6.6675v-9.328h6.5086v1.734h-4.5312v2.016h3.9974v1.687h-3.9974v2.157z" id="ID0.07051425520330667" fill="#ffffff" stroke-width="0.96256"/><g id="ID0.9927206472493708" stroke-width="1"><path d="M164.372,110.115h3.125v16.796h-3.125zM179.012,113.958c1.615,0 2.912,0.474 3.891,1.422c0.979,0.938 1.469,2.333 1.469,4.188v7.343h-3v-6.953c0,-1.125 -0.266,-1.968 -0.797,-2.531c-0.521,-0.573 -1.271,-0.859 -2.25,-0.859c-1.105,0 -1.98,0.333 -2.625,1c-0.636,0.656 -0.953,1.609 -0.953,2.859v6.484h-3v-12.812h2.859v1.656c0.489,-0.594 1.109,-1.042 1.859,-1.344c0.761,-0.302 1.61,-0.453 2.547,-0.453zM192.14,127.083c-1.032,0 -2.047,-0.135 -3.047,-0.406c-0.99,-0.271 -1.782,-0.615 -2.375,-1.031l1.156,-2.281c0.573,0.385 1.26,0.692 2.062,0.921c0.813,0.23 1.615,0.344 2.407,0.344c1.791,0 2.687,-0.474 2.687,-1.422c0,-0.448 -0.229,-0.755 -0.687,-0.922c-0.459,-0.177 -1.193,-0.349 -2.203,-0.515c-1.052,-0.156 -1.912,-0.339 -2.579,-0.547c-0.656,-0.208 -1.229,-0.573 -1.718,-1.094c-0.49,-0.521 -0.735,-1.245 -0.735,-2.172c0,-1.218 0.506,-2.187 1.516,-2.906c1.021,-0.729 2.396,-1.094 4.125,-1.094c0.875,0 1.75,0.099 2.625,0.297c0.885,0.198 1.609,0.464 2.172,0.797l-1.156,2.281c-1.084,-0.635 -2.308,-0.953 -3.672,-0.953c-0.875,0 -1.542,0.13 -2,0.391c-0.459,0.26 -0.688,0.609 -0.688,1.047c0,0.479 0.245,0.817 0.735,1.015c0.489,0.198 1.244,0.386 2.265,0.563c1.031,0.166 1.87,0.354 2.516,0.562c0.656,0.209 1.219,0.563 1.687,1.063c0.48,0.489 0.719,1.187 0.719,2.094c0,1.208 -0.521,2.171 -1.562,2.89c-1.042,0.719 -2.459,1.078 -4.25,1.078zM208.25,126.208c-0.355,0.292 -0.787,0.511 -1.297,0.657c-0.5,0.145 -1.026,0.218 -1.578,0.218c-1.407,0 -2.495,-0.37 -3.266,-1.109c-0.771,-0.74 -1.156,-1.813 -1.156,-3.219v-6.156h-2.11v-2.406h2.11v-2.922h3v2.922h3.437v2.406h-3.437v6.094c0,0.625 0.151,1.104 0.453,1.437c0.302,0.323 0.745,0.485 1.328,0.485c0.667,0 1.224,-0.178 1.672,-0.532zM213.582,115.974c0.864,-1.344 2.385,-2.016 4.562,-2.016v2.844c-0.26,-0.042 -0.495,-0.062 -0.703,-0.062c-1.167,0 -2.078,0.338 -2.734,1.015c-0.656,0.677 -0.985,1.656 -0.985,2.938v6.218h-3v-12.812h2.86zM233.209,114.099v12.812h-2.86v-1.625c-0.479,0.573 -1.078,1.016 -1.797,1.329c-0.718,0.312 -1.494,0.468 -2.328,0.468c-1.708,0 -3.057,-0.474 -4.047,-1.422c-0.979,-0.958 -1.468,-2.375 -1.468,-4.25v-7.312h3v6.906c0,1.156 0.26,2.021 0.781,2.594c0.521,0.562 1.26,0.844 2.219,0.844c1.073,0 1.922,-0.334 2.547,-1c0.635,-0.667 0.953,-1.625 0.953,-2.875v-6.469zM243.021,127.083c-1.323,0 -2.515,-0.281 -3.578,-0.843c-1.052,-0.563 -1.875,-1.344 -2.469,-2.344c-0.593,-1 -0.89,-2.13 -0.89,-3.391c0,-1.26 0.297,-2.385 0.89,-3.375c0.594,-1 1.412,-1.776 2.454,-2.328c1.052,-0.562 2.25,-0.844 3.593,-0.844c1.271,0 2.381,0.255 3.328,0.766c0.948,0.51 1.662,1.245 2.141,2.203l-2.297,1.344c-0.364,-0.594 -0.823,-1.037 -1.375,-1.328c-0.552,-0.302 -1.156,-0.453 -1.812,-0.453c-1.125,0 -2.058,0.364 -2.797,1.093c-0.729,0.729 -1.094,1.703 -1.094,2.922c0,1.219 0.365,2.193 1.094,2.922c0.729,0.719 1.661,1.078 2.797,1.078c0.656,0 1.26,-0.146 1.812,-0.437c0.552,-0.292 1.011,-0.735 1.375,-1.328l2.297,1.343c-0.489,0.959 -1.213,1.698 -2.172,2.219c-0.948,0.521 -2.047,0.781 -3.297,0.781zM258.793,126.208c-0.354,0.292 -0.786,0.511 -1.296,0.657c-0.5,0.145 -1.026,0.218 -1.579,0.218c-1.406,0 -2.494,-0.37 -3.265,-1.109c-0.771,-0.74 -1.156,-1.813 -1.156,-3.219v-6.156h-2.11v-2.406h2.11v-2.922h3v2.922h3.437v2.406h-3.437v6.094c0,0.625 0.151,1.104 0.453,1.437c0.302,0.323 0.744,0.485 1.328,0.485c0.666,0 1.224,-0.178 1.672,-0.532zM261.266,114.099h3v12.812h-3zM262.782,111.99c-0.542,0 -1,-0.172 -1.375,-0.516c-0.365,-0.344 -0.547,-0.776 -0.547,-1.297c0,-0.51 0.182,-0.937 0.547,-1.281c0.375,-0.344 0.833,-0.516 1.375,-0.516c0.542,0 0.995,0.167 1.359,0.5c0.375,0.323 0.563,0.735 0.563,1.235c0,0.52 -0.183,0.963 -0.547,1.328c-0.354,0.364 -0.813,0.547 -1.375,0.547zM273.968,127.083c-1.302,0 -2.474,-0.281 -3.516,-0.843c-1.041,-0.563 -1.854,-1.344 -2.437,-2.344c-0.584,-1 -0.875,-2.13 -0.875,-3.391c0,-1.26 0.291,-2.385 0.875,-3.375c0.583,-1 1.396,-1.776 2.437,-2.328c1.042,-0.562 2.214,-0.844 3.516,-0.844c1.312,0 2.484,0.282 3.515,0.844c1.042,0.552 1.855,1.328 2.438,2.328c0.583,0.99 0.875,2.115 0.875,3.375c0,1.261 -0.292,2.391 -0.875,3.391c-0.583,1 -1.396,1.781 -2.438,2.344c-1.031,0.562 -2.203,0.843 -3.515,0.843zM273.968,124.505c1.104,0 2.015,-0.364 2.734,-1.094c0.719,-0.739 1.078,-1.708 1.078,-2.906c0,-1.198 -0.359,-2.167 -1.078,-2.906c-0.719,-0.74 -1.63,-1.109 -2.734,-1.109c-1.104,0 -2.016,0.369 -2.735,1.109c-0.708,0.739 -1.062,1.708 -1.062,2.906c0,1.198 0.354,2.167 1.062,2.906c0.719,0.73 1.631,1.094 2.735,1.094zM290.948,113.958c1.614,0 2.911,0.474 3.89,1.422c0.98,0.938 1.469,2.333 1.469,4.188v7.343h-3v-6.953c0,-1.125 -0.265,-1.968 -0.797,-2.531c-0.521,-0.573 -1.271,-0.859 -2.25,-0.859c-1.104,0 -1.979,0.333 -2.625,1c-0.635,0.656 -0.953,1.609 -0.953,2.859v6.484h-3v-12.812h2.86v1.656c0.489,-0.594 1.109,-1.042 1.859,-1.344c0.76,-0.302 1.609,-0.453 2.547,-0.453zM304.075,127.083c-1.031,0 -2.047,-0.135 -3.047,-0.406c-0.989,-0.271 -1.781,-0.615 -2.375,-1.031l1.157,-2.281c0.573,0.385 1.26,0.692 2.062,0.921c0.813,0.23 1.615,0.344 2.406,0.344c1.792,0 2.688,-0.474 2.688,-1.422c0,-0.448 -0.229,-0.755 -0.688,-0.922c-0.458,-0.177 -1.192,-0.349 -2.203,-0.515c-1.052,-0.156 -1.911,-0.339 -2.578,-0.547c-0.656,-0.208 -1.229,-0.573 -1.719,-1.094c-0.489,-0.521 -0.734,-1.245 -0.734,-2.172c0,-1.218 0.505,-2.187 1.516,-2.906c1.02,-0.729 2.395,-1.094 4.125,-1.094c0.875,0 1.75,0.099 2.625,0.297c0.885,0.198 1.609,0.464 2.172,0.797l-1.157,2.281c-1.083,-0.635 -2.307,-0.953 -3.672,-0.953c-0.875,0 -1.541,0.13 -2,0.391c-0.458,0.26 -0.687,0.609 -0.687,1.047c0,0.479 0.245,0.817 0.734,1.015c0.49,0.198 1.245,0.386 2.266,0.563c1.031,0.166 1.87,0.354 2.516,0.562c0.656,0.209 1.218,0.563 1.687,1.063c0.479,0.489 0.719,1.187 0.719,2.094c0,1.208 -0.521,2.171 -1.563,2.89c-1.041,0.719 -2.458,1.078 -4.25,1.078z" id="ID0.7490663155913353" fill="#234158"/><path d="M148.576,172.901c-1.292,0 -2.459,-0.287 -3.5,-0.86c-1.031,-0.573 -1.844,-1.364 -2.438,-2.375c-0.593,-1.01 -0.89,-2.145 -0.89,-3.406c0,-1.25 0.297,-2.38 0.89,-3.39c0.594,-1.021 1.412,-1.818 2.453,-2.391c1.042,-0.573 2.209,-0.859 3.5,-0.859c0.969,0 1.865,0.161 2.688,0.484c0.823,0.323 1.521,0.797 2.094,1.422l-0.875,0.875c-1.021,-1.031 -2.308,-1.547 -3.86,-1.547c-1.031,0 -1.974,0.239 -2.828,0.719c-0.844,0.468 -1.505,1.114 -1.984,1.937c-0.479,0.813 -0.719,1.729 -0.719,2.75c0,1.021 0.24,1.943 0.719,2.766c0.479,0.823 1.14,1.469 1.984,1.937c0.854,0.469 1.797,0.703 2.828,0.703c1.563,0 2.849,-0.52 3.86,-1.562l0.875,0.875c-0.573,0.625 -1.276,1.104 -2.11,1.437c-0.823,0.323 -1.718,0.485 -2.687,0.485zM160.052,172.885c-0.948,0 -1.802,-0.213 -2.562,-0.64c-0.75,-0.428 -1.344,-1.021 -1.782,-1.782c-0.437,-0.76 -0.656,-1.62 -0.656,-2.578c0,-0.958 0.219,-1.818 0.656,-2.578c0.438,-0.76 1.032,-1.349 1.782,-1.766c0.76,-0.427 1.614,-0.64 2.562,-0.64c0.948,0 1.797,0.213 2.547,0.64c0.76,0.417 1.354,1.006 1.781,1.766c0.438,0.76 0.657,1.62 0.657,2.578c0,0.958 -0.219,1.818 -0.657,2.578c-0.427,0.761 -1.021,1.354 -1.781,1.782c-0.75,0.427 -1.599,0.64 -2.547,0.64zM160.052,171.713c0.698,0 1.323,-0.156 1.875,-0.468c0.552,-0.323 0.985,-0.777 1.297,-1.36c0.313,-0.583 0.469,-1.25 0.469,-2c0,-0.75 -0.156,-1.417 -0.469,-2c-0.312,-0.583 -0.745,-1.031 -1.297,-1.344c-0.552,-0.323 -1.177,-0.484 -1.875,-0.484c-0.698,0 -1.323,0.161 -1.875,0.484c-0.552,0.313 -0.989,0.761 -1.312,1.344c-0.313,0.583 -0.469,1.25 -0.469,2c0,0.75 0.156,1.417 0.469,2c0.323,0.583 0.76,1.037 1.312,1.36c0.552,0.312 1.177,0.468 1.875,0.468zM172.734,162.901c1.229,0 2.208,0.359 2.937,1.078c0.73,0.708 1.094,1.75 1.094,3.125v5.687h-1.328v-5.562c0,-1.021 -0.255,-1.797 -0.766,-2.328c-0.51,-0.531 -1.234,-0.797 -2.171,-0.797c-1.063,0 -1.901,0.312 -2.516,0.937c-0.615,0.625 -0.922,1.49 -0.922,2.594v5.156h-1.328v-9.812h1.266v1.812c0.364,-0.604 0.864,-1.067 1.5,-1.39c0.645,-0.334 1.39,-0.5 2.234,-0.5zM185.536,172.198c-0.25,0.218 -0.557,0.39 -0.922,0.515c-0.364,0.115 -0.75,0.172 -1.156,0.172c-0.917,0 -1.625,-0.25 -2.125,-0.75c-0.49,-0.5 -0.734,-1.203 -0.734,-2.109v-5.922h-1.766v-1.125h1.766v-2.141h1.312v2.141h2.985v1.125h-2.985v5.859c0,0.584 0.146,1.026 0.438,1.328c0.291,0.302 0.713,0.454 1.265,0.454c0.271,0 0.532,-0.042 0.782,-0.125c0.26,-0.094 0.484,-0.219 0.671,-0.375zM189.204,164.901c0.313,-0.656 0.776,-1.151 1.391,-1.485c0.615,-0.343 1.38,-0.515 2.297,-0.515v1.297l-0.328,-0.032c-1.032,0 -1.839,0.318 -2.422,0.954c-0.584,0.635 -0.875,1.526 -0.875,2.671v5h-1.328v-9.812h1.265zM199.435,172.885c-0.947,0 -1.802,-0.213 -2.562,-0.64c-0.75,-0.428 -1.344,-1.021 -1.781,-1.782c-0.438,-0.76 -0.657,-1.62 -0.657,-2.578c0,-0.958 0.219,-1.818 0.657,-2.578c0.437,-0.76 1.031,-1.349 1.781,-1.766c0.76,-0.427 1.615,-0.64 2.562,-0.64c0.948,0 1.797,0.213 2.547,0.64c0.761,0.417 1.355,1.006 1.782,1.766c0.437,0.76 0.656,1.62 0.656,2.578c0,0.958 -0.219,1.818 -0.656,2.578c-0.427,0.761 -1.021,1.354 -1.782,1.782c-0.75,0.427 -1.599,0.64 -2.547,0.64zM199.435,171.713c0.698,0 1.323,-0.156 1.875,-0.468c0.553,-0.323 0.985,-0.777 1.297,-1.36c0.313,-0.583 0.469,-1.25 0.469,-2c0,-0.75 -0.156,-1.417 -0.469,-2c-0.312,-0.583 -0.744,-1.031 -1.297,-1.344c-0.552,-0.323 -1.177,-0.484 -1.875,-0.484c-0.697,0 -1.322,0.161 -1.875,0.484c-0.552,0.313 -0.989,0.761 -1.312,1.344c-0.313,0.583 -0.469,1.25 -0.469,2c0,0.75 0.156,1.417 0.469,2c0.323,0.583 0.76,1.037 1.312,1.36c0.553,0.312 1.178,0.468 1.875,0.468zM207.117,158.948h1.328v13.843h-1.328zM222.196,172.198c-0.25,0.218 -0.558,0.39 -0.922,0.515c-0.365,0.115 -0.75,0.172 -1.156,0.172c-0.917,0 -1.625,-0.25 -2.125,-0.75c-0.49,-0.5 -0.735,-1.203 -0.735,-2.109v-5.922h-1.765v-1.125h1.765v-2.141h1.313v2.141h2.984v1.125h-2.984v5.859c0,0.584 0.146,1.026 0.437,1.328c0.292,0.302 0.714,0.454 1.266,0.454c0.271,0 0.531,-0.042 0.781,-0.125c0.26,-0.094 0.484,-0.219 0.672,-0.375zM229.598,162.901c1.229,0 2.209,0.359 2.938,1.078c0.729,0.708 1.093,1.75 1.093,3.125v5.687h-1.328v-5.562c0,-1.021 -0.255,-1.797 -0.765,-2.328c-0.511,-0.531 -1.235,-0.797 -2.172,-0.797c-1.063,0 -1.901,0.312 -2.516,0.937c-0.614,0.625 -0.922,1.49 -0.922,2.594v5.156h-1.328v-13.843h1.328v5.75c0.365,-0.573 0.86,-1.016 1.485,-1.328c0.635,-0.313 1.364,-0.469 2.187,-0.469zM245.775,168.291h-8.203c0.073,1.021 0.464,1.849 1.172,2.485c0.708,0.625 1.604,0.937 2.688,0.937c0.604,0 1.161,-0.109 1.672,-0.328c0.51,-0.219 0.953,-0.542 1.328,-0.969l0.75,0.86c-0.438,0.521 -0.985,0.922 -1.641,1.203c-0.646,0.271 -1.365,0.406 -2.156,0.406c-1,0 -1.891,-0.213 -2.672,-0.64c-0.771,-0.428 -1.375,-1.021 -1.813,-1.782c-0.437,-0.76 -0.656,-1.62 -0.656,-2.578c0,-0.958 0.208,-1.818 0.625,-2.578c0.417,-0.76 0.99,-1.349 1.719,-1.766c0.729,-0.427 1.547,-0.64 2.453,-0.64c0.906,0 1.719,0.213 2.438,0.64c0.718,0.417 1.281,1.006 1.687,1.766c0.417,0.75 0.625,1.609 0.625,2.578zM241.041,164.041c-0.948,0 -1.745,0.302 -2.391,0.907c-0.635,0.604 -0.994,1.39 -1.078,2.359h6.953c-0.083,-0.969 -0.448,-1.755 -1.093,-2.359c-0.636,-0.605 -1.433,-0.907 -2.391,-0.907zM258.447,162.901c0.917,0 1.745,0.208 2.485,0.625c0.75,0.416 1.338,1.005 1.765,1.765c0.427,0.761 0.641,1.625 0.641,2.594c0,0.969 -0.214,1.833 -0.641,2.594c-0.427,0.76 -1.015,1.354 -1.765,1.781c-0.74,0.417 -1.568,0.625 -2.485,0.625c-0.823,0 -1.562,-0.172 -2.218,-0.515c-0.646,-0.355 -1.172,-0.86 -1.579,-1.516v1.937h-1.265v-13.843h1.328v5.89c0.406,-0.635 0.927,-1.114 1.562,-1.437c0.646,-0.334 1.37,-0.5 2.172,-0.5zM258.354,171.713c0.677,0 1.296,-0.156 1.859,-0.468c0.562,-0.323 1,-0.777 1.312,-1.36c0.323,-0.583 0.485,-1.25 0.485,-2c0,-0.75 -0.162,-1.417 -0.485,-2c-0.312,-0.583 -0.75,-1.031 -1.312,-1.344c-0.563,-0.323 -1.182,-0.484 -1.859,-0.484c-0.698,0 -1.323,0.161 -1.875,0.484c-0.553,0.313 -0.99,0.761 -1.313,1.344c-0.312,0.583 -0.469,1.25 -0.469,2c0,0.75 0.157,1.417 0.469,2c0.323,0.583 0.76,1.037 1.313,1.36c0.552,0.312 1.177,0.468 1.875,0.468zM266.034,158.948h1.328v13.843h-1.328zM279.896,162.979v9.812h-1.266v-1.796c-0.343,0.604 -0.822,1.072 -1.437,1.406c-0.604,0.323 -1.302,0.484 -2.094,0.484c-1.281,0 -2.291,-0.354 -3.031,-1.062c-0.74,-0.719 -1.109,-1.771 -1.109,-3.157v-5.687h1.328v5.562c0,1.032 0.255,1.818 0.765,2.36c0.511,0.531 1.24,0.797 2.188,0.797c1.031,0 1.844,-0.313 2.437,-0.938c0.594,-0.635 0.891,-1.515 0.891,-2.64v-5.141zM292.155,168.291h-8.203c0.073,1.021 0.463,1.849 1.172,2.485c0.708,0.625 1.604,0.937 2.687,0.937c0.604,0 1.162,-0.109 1.672,-0.328c0.51,-0.219 0.953,-0.542 1.328,-0.969l0.75,0.86c-0.437,0.521 -0.984,0.922 -1.641,1.203c-0.645,0.271 -1.364,0.406 -2.156,0.406c-1,0 -1.89,-0.213 -2.672,-0.64c-0.771,-0.428 -1.375,-1.021 -1.812,-1.782c-0.438,-0.76 -0.656,-1.62 -0.656,-2.578c0,-0.958 0.208,-1.818 0.625,-2.578c0.416,-0.76 0.989,-1.349 1.718,-1.766c0.729,-0.427 1.547,-0.64 2.453,-0.64c0.907,0 1.719,0.213 2.438,0.64c0.719,0.417 1.281,1.006 1.687,1.766c0.417,0.75 0.625,1.609 0.625,2.578zM287.42,164.041c-0.947,0 -1.744,0.302 -2.39,0.907c-0.636,0.604 -0.995,1.39 -1.078,2.359h6.953c-0.084,-0.969 -0.448,-1.755 -1.094,-2.359c-0.635,-0.605 -1.432,-0.907 -2.391,-0.907zM299.764,158.948h1.328v13.843h-1.328zM304.783,162.979h1.328v9.812h-1.328zM305.455,160.838c-0.271,0 -0.5,-0.093 -0.688,-0.281c-0.187,-0.187 -0.281,-0.411 -0.281,-0.672c0,-0.25 0.094,-0.469 0.281,-0.656c0.188,-0.188 0.417,-0.281 0.688,-0.281c0.271,0 0.5,0.093 0.687,0.281c0.188,0.177 0.281,0.391 0.281,0.641c0,0.27 -0.093,0.5 -0.281,0.687c-0.187,0.188 -0.416,0.281 -0.687,0.281zM314.801,162.901c1.23,0 2.209,0.359 2.938,1.078c0.729,0.708 1.094,1.75 1.094,3.125v5.687h-1.329v-5.562c0,-1.021 -0.255,-1.797 -0.765,-2.328c-0.511,-0.531 -1.235,-0.797 -2.172,-0.797c-1.063,0 -1.901,0.312 -2.516,0.937c-0.614,0.625 -0.922,1.49 -0.922,2.594v5.156h-1.328v-9.812h1.266v1.812c0.365,-0.604 0.865,-1.067 1.5,-1.39c0.646,-0.334 1.391,-0.5 2.234,-0.5zM330.978,168.291h-8.203c0.073,1.021 0.464,1.849 1.172,2.485c0.709,0.625 1.604,0.937 2.688,0.937c0.604,0 1.161,-0.109 1.672,-0.328c0.51,-0.219 0.953,-0.542 1.328,-0.969l0.75,0.86c-0.438,0.521 -0.985,0.922 -1.641,1.203c-0.646,0.271 -1.364,0.406 -2.156,0.406c-1,0 -1.891,-0.213 -2.672,-0.64c-0.771,-0.428 -1.375,-1.021 -1.813,-1.782c-0.437,-0.76 -0.656,-1.62 -0.656,-2.578c0,-0.958 0.209,-1.818 0.625,-2.578c0.417,-0.76 0.99,-1.349 1.719,-1.766c0.729,-0.427 1.547,-0.64 2.453,-0.64c0.906,0 1.719,0.213 2.438,0.64c0.718,0.417 1.281,1.006 1.687,1.766c0.417,0.75 0.625,1.609 0.625,2.578zM326.244,164.041c-0.948,0 -1.745,0.302 -2.391,0.907c-0.635,0.604 -0.994,1.39 -1.078,2.359h6.953c-0.083,-0.969 -0.447,-1.755 -1.093,-2.359c-0.636,-0.605 -1.433,-0.907 -2.391,-0.907z" id="ID0.6819249792024493" fill="#ffffff"/><path d="M171.749,184.979l-3.719,9.812h-1.25l-3.094,-8.046l-3.094,8.046h-1.25l-3.687,-9.812h1.266l3.078,8.344l3.156,-8.344h1.125l3.141,8.344l3.109,-8.344zM173.741,184.979h1.328v9.812h-1.328zM174.413,182.838c-0.271,0 -0.5,-0.093 -0.687,-0.281c-0.188,-0.187 -0.282,-0.411 -0.282,-0.672c0,-0.25 0.094,-0.469 0.282,-0.656c0.187,-0.188 0.416,-0.281 0.687,-0.281c0.271,0 0.5,0.093 0.688,0.281c0.187,0.177 0.281,0.391 0.281,0.641c0,0.27 -0.094,0.5 -0.281,0.687c-0.188,0.188 -0.417,0.281 -0.688,0.281zM183.932,194.198c-0.25,0.218 -0.558,0.39 -0.922,0.515c-0.365,0.115 -0.75,0.172 -1.156,0.172c-0.917,0 -1.625,-0.25 -2.125,-0.75c-0.49,-0.5 -0.735,-1.203 -0.735,-2.109v-5.922h-1.765v-1.125h1.765v-2.141h1.313v2.141h2.984v1.125h-2.984v5.859c0,0.584 0.146,1.026 0.437,1.328c0.292,0.302 0.714,0.454 1.266,0.454c0.271,0 0.531,-0.042 0.781,-0.125c0.261,-0.094 0.484,-0.219 0.672,-0.375zM191.334,184.901c1.229,0 2.209,0.359 2.938,1.078c0.729,0.708 1.094,1.75 1.094,3.125v5.687h-1.329v-5.562c0,-1.021 -0.255,-1.797 -0.765,-2.328c-0.511,-0.531 -1.235,-0.797 -2.172,-0.797c-1.063,0 -1.901,0.312 -2.516,0.937c-0.614,0.625 -0.922,1.49 -0.922,2.594v5.156h-1.328v-13.843h1.328v5.75c0.365,-0.573 0.86,-1.016 1.485,-1.328c0.635,-0.313 1.364,-0.469 2.187,-0.469zM212.102,184.979l-4.906,10.984c-0.396,0.927 -0.859,1.584 -1.39,1.969c-0.521,0.385 -1.146,0.578 -1.875,0.578c-0.469,0 -0.912,-0.078 -1.329,-0.234c-0.406,-0.146 -0.76,-0.37 -1.062,-0.672l0.625,-0.984c0.49,0.5 1.083,0.75 1.781,0.75c0.448,0 0.828,-0.125 1.141,-0.375c0.323,-0.25 0.62,-0.672 0.89,-1.266l0.438,-0.953l-4.391,-9.797h1.391l3.687,8.344l3.688,-8.344zM217.98,194.885c-0.948,0 -1.802,-0.213 -2.563,-0.64c-0.75,-0.428 -1.343,-1.021 -1.781,-1.782c-0.437,-0.76 -0.656,-1.62 -0.656,-2.578c0,-0.958 0.219,-1.818 0.656,-2.578c0.438,-0.76 1.031,-1.349 1.781,-1.766c0.761,-0.427 1.615,-0.64 2.563,-0.64c0.948,0 1.797,0.213 2.547,0.64c0.76,0.417 1.354,1.006 1.781,1.766c0.437,0.76 0.656,1.62 0.656,2.578c0,0.958 -0.219,1.818 -0.656,2.578c-0.427,0.761 -1.021,1.354 -1.781,1.782c-0.75,0.427 -1.599,0.64 -2.547,0.64zM217.98,193.713c0.698,0 1.323,-0.156 1.875,-0.468c0.552,-0.323 0.984,-0.777 1.297,-1.36c0.312,-0.583 0.468,-1.25 0.468,-2c0,-0.75 -0.156,-1.417 -0.468,-2c-0.313,-0.583 -0.745,-1.031 -1.297,-1.344c-0.552,-0.323 -1.177,-0.484 -1.875,-0.484c-0.698,0 -1.323,0.161 -1.875,0.484c-0.552,0.313 -0.99,0.761 -1.313,1.344c-0.312,0.583 -0.468,1.25 -0.468,2c0,0.75 0.156,1.417 0.468,2c0.323,0.583 0.761,1.037 1.313,1.36c0.552,0.312 1.177,0.468 1.875,0.468zM234.505,184.979v9.812h-1.265v-1.796c-0.344,0.604 -0.823,1.072 -1.438,1.406c-0.604,0.323 -1.302,0.484 -2.093,0.484c-1.282,0 -2.292,-0.354 -3.032,-1.062c-0.739,-0.719 -1.109,-1.771 -1.109,-3.157v-5.687h1.328v5.562c0,1.032 0.255,1.818 0.766,2.36c0.51,0.531 1.239,0.797 2.187,0.797c1.031,0 1.844,-0.313 2.438,-0.938c0.593,-0.635 0.89,-1.515 0.89,-2.64v-5.141zM239.483,186.901c0.312,-0.656 0.776,-1.151 1.391,-1.485c0.614,-0.343 1.38,-0.515 2.296,-0.515v1.297l-0.328,-0.032c-1.031,0 -1.838,0.318 -2.422,0.954c-0.583,0.635 -0.875,1.526 -0.875,2.671v5h-1.328v-9.812h1.266zM262.821,184.901c1.239,0 2.208,0.354 2.906,1.062c0.708,0.709 1.063,1.755 1.063,3.141v5.687h-1.329v-5.562c0,-1.021 -0.25,-1.797 -0.75,-2.328c-0.489,-0.531 -1.177,-0.797 -2.062,-0.797c-1.021,0 -1.828,0.312 -2.422,0.937c-0.583,0.625 -0.875,1.49 -0.875,2.594v5.156h-1.312v-5.562c0,-1.021 -0.25,-1.797 -0.75,-2.328c-0.49,-0.531 -1.188,-0.797 -2.094,-0.797c-1.011,0 -1.813,0.312 -2.406,0.937c-0.584,0.625 -0.875,1.49 -0.875,2.594v5.156h-1.329v-9.812h1.266v1.797c0.354,-0.604 0.839,-1.068 1.453,-1.391c0.625,-0.323 1.344,-0.484 2.156,-0.484c0.823,0 1.532,0.177 2.125,0.531c0.605,0.344 1.058,0.859 1.36,1.547c0.364,-0.646 0.885,-1.151 1.562,-1.516c0.677,-0.375 1.448,-0.562 2.313,-0.562zM274.396,194.885c-0.948,0 -1.802,-0.213 -2.562,-0.64c-0.75,-0.428 -1.344,-1.021 -1.781,-1.782c-0.438,-0.76 -0.657,-1.62 -0.657,-2.578c0,-0.958 0.219,-1.818 0.657,-2.578c0.437,-0.76 1.031,-1.349 1.781,-1.766c0.76,-0.427 1.614,-0.64 2.562,-0.64c0.948,0 1.797,0.213 2.547,0.64c0.761,0.417 1.354,1.006 1.781,1.766c0.438,0.76 0.657,1.62 0.657,2.578c0,0.958 -0.219,1.818 -0.657,2.578c-0.427,0.761 -1.02,1.354 -1.781,1.782c-0.75,0.427 -1.599,0.64 -2.547,0.64zM274.396,193.713c0.698,0 1.323,-0.156 1.875,-0.468c0.552,-0.323 0.985,-0.777 1.297,-1.36c0.313,-0.583 0.469,-1.25 0.469,-2c0,-0.75 -0.156,-1.417 -0.469,-2c-0.312,-0.583 -0.745,-1.031 -1.297,-1.344c-0.552,-0.323 -1.177,-0.484 -1.875,-0.484c-0.698,0 -1.323,0.161 -1.875,0.484c-0.552,0.313 -0.989,0.761 -1.312,1.344c-0.313,0.583 -0.469,1.25 -0.469,2c0,0.75 0.156,1.417 0.469,2c0.323,0.583 0.76,1.037 1.312,1.36c0.552,0.312 1.177,0.468 1.875,0.468zM290.922,184.979v9.812h-1.266v-1.796c-0.343,0.604 -0.823,1.072 -1.437,1.406c-0.604,0.323 -1.302,0.484 -2.094,0.484c-1.281,0 -2.292,-0.354 -3.031,-1.062c-0.74,-0.719 -1.11,-1.771 -1.11,-3.157v-5.687h1.329v5.562c0,1.032 0.255,1.818 0.765,2.36c0.511,0.531 1.24,0.797 2.188,0.797c1.031,0 1.843,-0.313 2.437,-0.938c0.594,-0.635 0.891,-1.515 0.891,-2.64v-5.141zM297.274,194.885c-0.802,0 -1.567,-0.114 -2.296,-0.344c-0.73,-0.229 -1.297,-0.52 -1.704,-0.875l0.594,-1.046c0.417,0.333 0.932,0.604 1.547,0.812c0.625,0.198 1.276,0.297 1.953,0.297c0.886,0 1.542,-0.141 1.969,-0.422c0.437,-0.281 0.656,-0.677 0.656,-1.187c0,-0.355 -0.12,-0.636 -0.359,-0.844c-0.229,-0.209 -0.526,-0.365 -0.891,-0.469c-0.364,-0.104 -0.844,-0.208 -1.437,-0.312c-0.792,-0.146 -1.433,-0.297 -1.922,-0.454c-0.49,-0.156 -0.906,-0.416 -1.25,-0.781c-0.334,-0.375 -0.5,-0.896 -0.5,-1.562c0,-0.823 0.338,-1.495 1.015,-2.016c0.688,-0.521 1.641,-0.781 2.86,-0.781c0.635,0 1.271,0.083 1.906,0.25c0.635,0.166 1.156,0.39 1.563,0.672l-0.579,1.062c-0.802,-0.562 -1.765,-0.844 -2.89,-0.844c-0.844,0 -1.479,0.151 -1.906,0.454c-0.428,0.291 -0.641,0.682 -0.641,1.171c0,0.375 0.12,0.677 0.359,0.907c0.24,0.218 0.537,0.38 0.891,0.484c0.365,0.104 0.865,0.214 1.5,0.328c0.781,0.146 1.406,0.297 1.875,0.453c0.479,0.146 0.885,0.401 1.219,0.766c0.343,0.354 0.515,0.849 0.515,1.484c0,0.854 -0.359,1.537 -1.078,2.047c-0.719,0.5 -1.708,0.75 -2.969,0.75zM312.304,190.291h-8.204c0.073,1.021 0.464,1.849 1.172,2.485c0.709,0.625 1.605,0.937 2.688,0.937c0.604,0 1.161,-0.109 1.672,-0.328c0.51,-0.219 0.953,-0.542 1.328,-0.969l0.75,0.86c-0.438,0.521 -0.985,0.922 -1.641,1.203c-0.646,0.271 -1.364,0.406 -2.156,0.406c-1,0 -1.891,-0.213 -2.672,-0.64c-0.771,-0.428 -1.375,-1.021 -1.812,-1.782c-0.438,-0.76 -0.657,-1.62 -0.657,-2.578c0,-0.958 0.209,-1.818 0.625,-2.578c0.417,-0.76 0.99,-1.349 1.719,-1.766c0.729,-0.427 1.547,-0.64 2.453,-0.64c0.906,0 1.719,0.213 2.438,0.64c0.718,0.417 1.281,1.006 1.687,1.766c0.417,0.75 0.625,1.609 0.625,2.578zM307.569,186.041c-0.948,0 -1.745,0.302 -2.39,0.907c-0.636,0.604 -0.995,1.39 -1.079,2.359h6.954c-0.084,-0.969 -0.448,-1.755 -1.094,-2.359c-0.636,-0.605 -1.432,-0.907 -2.391,-0.907zM315.166,194.885c-0.282,0 -0.521,-0.099 -0.719,-0.297c-0.188,-0.198 -0.281,-0.442 -0.281,-0.734c0,-0.281 0.093,-0.516 0.281,-0.703c0.198,-0.198 0.437,-0.297 0.719,-0.297c0.271,0 0.505,0.099 0.703,0.297c0.198,0.187 0.297,0.422 0.297,0.703c0,0.292 -0.099,0.536 -0.297,0.734c-0.198,0.198 -0.432,0.297 -0.703,0.297z" id="ID0.212786300573498" fill="#ffffff"/><path d="M148.053,216.901c-1.291,0 -2.458,-0.287 -3.5,-0.86c-1.031,-0.573 -1.843,-1.364 -2.437,-2.375c-0.594,-1.01 -0.891,-2.145 -0.891,-3.406c0,-1.25 0.297,-2.38 0.891,-3.39c0.594,-1.021 1.411,-1.818 2.453,-2.391c1.042,-0.573 2.208,-0.859 3.5,-0.859c0.969,0 1.865,0.161 2.688,0.484c0.822,0.323 1.52,0.797 2.093,1.422l-0.875,0.875c-1.021,-1.031 -2.307,-1.547 -3.859,-1.547c-1.031,0 -1.974,0.239 -2.828,0.719c-0.844,0.468 -1.505,1.114 -1.985,1.937c-0.479,0.813 -0.718,1.729 -0.718,2.75c0,1.021 0.239,1.943 0.718,2.766c0.48,0.823 1.141,1.469 1.985,1.937c0.854,0.469 1.797,0.703 2.828,0.703c1.562,0 2.849,-0.52 3.859,-1.562l0.875,0.875c-0.573,0.625 -1.276,1.104 -2.109,1.437c-0.823,0.323 -1.719,0.485 -2.688,0.485zM159.53,216.885c-0.948,0 -1.802,-0.213 -2.563,-0.64c-0.75,-0.428 -1.343,-1.021 -1.781,-1.782c-0.437,-0.76 -0.656,-1.62 -0.656,-2.578c0,-0.958 0.219,-1.818 0.656,-2.578c0.438,-0.76 1.031,-1.349 1.781,-1.766c0.761,-0.427 1.615,-0.64 2.563,-0.64c0.948,0 1.797,0.213 2.547,0.64c0.76,0.417 1.354,1.006 1.781,1.766c0.437,0.76 0.656,1.62 0.656,2.578c0,0.958 -0.219,1.818 -0.656,2.578c-0.427,0.761 -1.021,1.354 -1.781,1.782c-0.75,0.427 -1.599,0.64 -2.547,0.64zM159.53,215.713c0.698,0 1.323,-0.156 1.875,-0.468c0.552,-0.323 0.984,-0.777 1.297,-1.36c0.312,-0.583 0.468,-1.25 0.468,-2c0,-0.75 -0.156,-1.417 -0.468,-2c-0.313,-0.583 -0.745,-1.031 -1.297,-1.344c-0.552,-0.323 -1.177,-0.484 -1.875,-0.484c-0.698,0 -1.323,0.161 -1.875,0.484c-0.552,0.313 -0.99,0.761 -1.313,1.344c-0.312,0.583 -0.468,1.25 -0.468,2c0,0.75 0.156,1.417 0.468,2c0.323,0.583 0.761,1.037 1.313,1.36c0.552,0.312 1.177,0.468 1.875,0.468zM167.212,202.948h1.328v13.843h-1.328zM172.23,202.948h1.328v13.843h-1.328zM185.796,212.291h-8.204c0.073,1.021 0.464,1.849 1.172,2.485c0.709,0.625 1.604,0.937 2.688,0.937c0.604,0 1.161,-0.109 1.672,-0.328c0.51,-0.219 0.953,-0.542 1.328,-0.969l0.75,0.86c-0.438,0.521 -0.985,0.922 -1.641,1.203c-0.646,0.271 -1.364,0.406 -2.156,0.406c-1,0 -1.891,-0.213 -2.672,-0.64c-0.771,-0.428 -1.375,-1.021 -1.812,-1.782c-0.438,-0.76 -0.657,-1.62 -0.657,-2.578c0,-0.958 0.209,-1.818 0.625,-2.578c0.417,-0.76 0.99,-1.349 1.719,-1.766c0.729,-0.427 1.547,-0.64 2.453,-0.64c0.906,0 1.719,0.213 2.438,0.64c0.718,0.417 1.281,1.006 1.687,1.766c0.417,0.75 0.625,1.609 0.625,2.578zM181.061,208.041c-0.948,0 -1.745,0.302 -2.39,0.907c-0.636,0.604 -0.995,1.39 -1.079,2.359h6.954c-0.084,-0.969 -0.448,-1.755 -1.094,-2.359c-0.636,-0.605 -1.432,-0.907 -2.391,-0.907zM192.58,216.885c-0.969,0 -1.834,-0.208 -2.594,-0.625c-0.761,-0.427 -1.36,-1.021 -1.797,-1.781c-0.438,-0.771 -0.656,-1.636 -0.656,-2.594c0,-0.958 0.218,-1.818 0.656,-2.578c0.437,-0.76 1.036,-1.349 1.797,-1.766c0.76,-0.427 1.625,-0.64 2.594,-0.64c0.854,0 1.609,0.166 2.265,0.5c0.667,0.323 1.193,0.802 1.578,1.437l-0.984,0.672c-0.323,-0.479 -0.734,-0.838 -1.234,-1.078c-0.49,-0.25 -1.032,-0.375 -1.625,-0.375c-0.709,0 -1.344,0.161 -1.907,0.484c-0.562,0.313 -1.005,0.761 -1.328,1.344c-0.312,0.583 -0.469,1.25 -0.469,2c0,0.761 0.157,1.432 0.469,2.016c0.323,0.573 0.766,1.021 1.328,1.344c0.563,0.312 1.198,0.468 1.907,0.468c0.593,0 1.135,-0.12 1.625,-0.359c0.5,-0.24 0.911,-0.599 1.234,-1.078l0.984,0.672c-0.385,0.635 -0.916,1.119 -1.593,1.453c-0.667,0.323 -1.417,0.484 -2.25,0.484zM204.192,216.198c-0.25,0.218 -0.557,0.39 -0.921,0.515c-0.365,0.115 -0.75,0.172 -1.157,0.172c-0.916,0 -1.625,-0.25 -2.125,-0.75c-0.489,-0.5 -0.734,-1.203 -0.734,-2.109v-5.922h-1.766v-1.125h1.766v-2.141h1.312v2.141h2.985v1.125h-2.985v5.859c0,0.584 0.146,1.026 0.438,1.328c0.292,0.302 0.713,0.454 1.266,0.454c0.27,0 0.531,-0.042 0.781,-0.125c0.26,-0.094 0.484,-0.219 0.672,-0.375zM212.749,208.901c0.312,-0.656 0.776,-1.151 1.39,-1.485c0.615,-0.343 1.38,-0.515 2.297,-0.515v1.297l-0.328,-0.032c-1.031,0 -1.839,0.318 -2.422,0.954c-0.583,0.635 -0.875,1.526 -0.875,2.671v5h-1.328v-9.812h1.266zM222.98,216.885c-0.948,0 -1.802,-0.213 -2.563,-0.64c-0.75,-0.428 -1.344,-1.021 -1.781,-1.782c-0.438,-0.76 -0.656,-1.62 -0.656,-2.578c0,-0.958 0.218,-1.818 0.656,-2.578c0.437,-0.76 1.031,-1.349 1.781,-1.766c0.761,-0.427 1.615,-0.64 2.563,-0.64c0.948,0 1.797,0.213 2.547,0.64c0.76,0.417 1.354,1.006 1.781,1.766c0.437,0.76 0.656,1.62 0.656,2.578c0,0.958 -0.219,1.818 -0.656,2.578c-0.427,0.761 -1.021,1.354 -1.781,1.782c-0.75,0.427 -1.599,0.64 -2.547,0.64zM222.98,215.713c0.698,0 1.323,-0.156 1.875,-0.468c0.552,-0.323 0.984,-0.777 1.297,-1.36c0.312,-0.583 0.468,-1.25 0.468,-2c0,-0.75 -0.156,-1.417 -0.468,-2c-0.313,-0.583 -0.745,-1.031 -1.297,-1.344c-0.552,-0.323 -1.177,-0.484 -1.875,-0.484c-0.698,0 -1.323,0.161 -1.875,0.484c-0.552,0.313 -0.99,0.761 -1.313,1.344c-0.312,0.583 -0.469,1.25 -0.469,2c0,0.75 0.157,1.417 0.469,2c0.323,0.583 0.761,1.037 1.313,1.36c0.552,0.312 1.177,0.468 1.875,0.468zM235.833,216.198c-0.25,0.218 -0.557,0.39 -0.921,0.515c-0.365,0.115 -0.75,0.172 -1.157,0.172c-0.916,0 -1.625,-0.25 -2.125,-0.75c-0.489,-0.5 -0.734,-1.203 -0.734,-2.109v-5.922h-1.766v-1.125h1.766v-2.141h1.312v2.141h2.985v1.125h-2.985v5.859c0,0.584 0.146,1.026 0.438,1.328c0.292,0.302 0.713,0.454 1.266,0.454c0.27,0 0.531,-0.042 0.781,-0.125c0.26,-0.094 0.484,-0.219 0.672,-0.375zM241.673,206.901c1.282,0 2.261,0.323 2.938,0.969c0.687,0.635 1.031,1.583 1.031,2.843v6.078h-1.265v-1.531c-0.302,0.511 -0.745,0.912 -1.329,1.203c-0.572,0.282 -1.255,0.422 -2.046,0.422c-1.094,0 -1.964,-0.26 -2.61,-0.781c-0.646,-0.521 -0.969,-1.214 -0.969,-2.078c0,-0.834 0.297,-1.505 0.891,-2.016c0.604,-0.51 1.568,-0.765 2.891,-0.765h3.109v-0.594c0,-0.844 -0.234,-1.485 -0.703,-1.922c-0.469,-0.448 -1.156,-0.672 -2.063,-0.672c-0.625,0 -1.223,0.104 -1.796,0.313c-0.573,0.208 -1.063,0.489 -1.469,0.843l-0.61,-0.984c0.5,-0.427 1.099,-0.755 1.797,-0.984c0.698,-0.23 1.433,-0.344 2.203,-0.344zM241.205,215.838c0.75,0 1.39,-0.172 1.922,-0.515c0.531,-0.344 0.927,-0.839 1.187,-1.485v-1.593h-3.078c-1.677,0 -2.516,0.583 -2.516,1.75c0,0.572 0.219,1.026 0.657,1.359c0.437,0.323 1.046,0.484 1.828,0.484zM254.415,216.198c-0.25,0.218 -0.557,0.39 -0.922,0.515c-0.364,0.115 -0.75,0.172 -1.156,0.172c-0.917,0 -1.625,-0.25 -2.125,-0.75c-0.49,-0.5 -0.734,-1.203 -0.734,-2.109v-5.922h-1.766v-1.125h1.766v-2.141h1.312v2.141h2.984v1.125h-2.984v5.859c0,0.584 0.146,1.026 0.438,1.328c0.291,0.302 0.713,0.454 1.265,0.454c0.271,0 0.531,-0.042 0.781,-0.125c0.261,-0.094 0.485,-0.219 0.672,-0.375zM256.818,206.979h1.328v9.812h-1.328zM257.489,204.838c-0.27,0 -0.5,-0.093 -0.687,-0.281c-0.188,-0.187 -0.281,-0.411 -0.281,-0.672c0,-0.25 0.093,-0.469 0.281,-0.656c0.187,-0.188 0.417,-0.281 0.687,-0.281c0.271,0 0.5,0.093 0.688,0.281c0.187,0.177 0.281,0.391 0.281,0.641c0,0.27 -0.094,0.5 -0.281,0.687c-0.188,0.188 -0.417,0.281 -0.688,0.281zM266.836,206.901c1.229,0 2.208,0.359 2.938,1.078c0.729,0.708 1.093,1.75 1.093,3.125v5.687h-1.328v-5.562c0,-1.021 -0.255,-1.797 -0.765,-2.328c-0.511,-0.531 -1.235,-0.797 -2.172,-0.797c-1.063,0 -1.901,0.312 -2.516,0.937c-0.614,0.625 -0.922,1.49 -0.922,2.594v5.156h-1.328v-9.812h1.266v1.812c0.364,-0.604 0.864,-1.067 1.5,-1.39c0.646,-0.334 1.39,-0.5 2.234,-0.5zM283.56,206.979v8.625c0,1.667 -0.411,2.901 -1.234,3.703c-0.813,0.802 -2.037,1.203 -3.672,1.203c-0.906,0 -1.771,-0.135 -2.594,-0.406c-0.812,-0.271 -1.474,-0.641 -1.984,-1.109l0.672,-1.016c0.468,0.427 1.041,0.755 1.718,0.984c0.688,0.24 1.401,0.36 2.141,0.36c1.25,0 2.167,-0.292 2.75,-0.875c0.583,-0.573 0.875,-1.469 0.875,-2.688v-1.25c-0.406,0.625 -0.943,1.099 -1.609,1.422c-0.667,0.323 -1.407,0.484 -2.219,0.484c-0.917,0 -1.755,-0.198 -2.516,-0.593c-0.75,-0.407 -1.338,-0.974 -1.765,-1.703c-0.427,-0.73 -0.641,-1.558 -0.641,-2.485c0,-0.917 0.214,-1.734 0.641,-2.453c0.427,-0.719 1.015,-1.276 1.765,-1.672c0.75,-0.406 1.589,-0.609 2.516,-0.609c0.833,0 1.583,0.172 2.25,0.515c0.677,0.334 1.219,0.818 1.625,1.454v-1.891zM278.529,215.245c0.719,0 1.359,-0.152 1.922,-0.454c0.573,-0.312 1.015,-0.739 1.328,-1.281c0.323,-0.552 0.484,-1.177 0.484,-1.875c0,-0.687 -0.161,-1.302 -0.484,-1.844c-0.313,-0.541 -0.75,-0.963 -1.313,-1.265c-0.562,-0.313 -1.208,-0.469 -1.937,-0.469c-0.708,0 -1.344,0.151 -1.906,0.453c-0.563,0.302 -1.006,0.729 -1.328,1.281c-0.313,0.542 -0.469,1.157 -0.469,1.844c0,0.698 0.156,1.323 0.469,1.875c0.322,0.542 0.765,0.969 1.328,1.281c0.562,0.302 1.198,0.454 1.906,0.454zM295.59,206.901c1.281,0 2.26,0.323 2.938,0.969c0.687,0.635 1.031,1.583 1.031,2.843v6.078h-1.266v-1.531c-0.302,0.511 -0.745,0.912 -1.328,1.203c-0.573,0.282 -1.255,0.422 -2.047,0.422c-1.094,0 -1.963,-0.26 -2.609,-0.781c-0.646,-0.521 -0.969,-1.214 -0.969,-2.078c0,-0.834 0.297,-1.505 0.891,-2.016c0.604,-0.51 1.567,-0.765 2.89,-0.765h3.11v-0.594c0,-0.844 -0.235,-1.485 -0.703,-1.922c-0.469,-0.448 -1.157,-0.672 -2.063,-0.672c-0.625,0 -1.224,0.104 -1.797,0.313c-0.573,0.208 -1.062,0.489 -1.469,0.843l-0.609,-0.984c0.5,-0.427 1.099,-0.755 1.797,-0.984c0.698,-0.23 1.432,-0.344 2.203,-0.344zM295.121,215.838c0.75,0 1.391,-0.172 1.922,-0.515c0.531,-0.344 0.927,-0.839 1.188,-1.485v-1.593h-3.078c-1.678,0 -2.516,0.583 -2.516,1.75c0,0.572 0.219,1.026 0.656,1.359c0.438,0.323 1.047,0.484 1.828,0.484zM304.425,208.901c0.313,-0.656 0.776,-1.151 1.391,-1.485c0.615,-0.343 1.38,-0.515 2.297,-0.515v1.297l-0.328,-0.032c-1.032,0 -1.839,0.318 -2.422,0.954c-0.584,0.635 -0.875,1.526 -0.875,2.671v5h-1.328v-9.812h1.265zM314.703,216.885c-0.968,0 -1.833,-0.208 -2.593,-0.625c-0.761,-0.427 -1.36,-1.021 -1.797,-1.781c-0.438,-0.771 -0.656,-1.636 -0.656,-2.594c0,-0.958 0.218,-1.818 0.656,-2.578c0.437,-0.76 1.036,-1.349 1.797,-1.766c0.76,-0.427 1.625,-0.64 2.593,-0.64c0.855,0 1.61,0.166 2.266,0.5c0.667,0.323 1.193,0.802 1.578,1.437l-0.984,0.672c-0.323,-0.479 -0.735,-0.838 -1.235,-1.078c-0.489,-0.25 -1.031,-0.375 -1.625,-0.375c-0.708,0 -1.343,0.161 -1.906,0.484c-0.562,0.313 -1.005,0.761 -1.328,1.344c-0.312,0.583 -0.469,1.25 -0.469,2c0,0.761 0.157,1.432 0.469,2.016c0.323,0.573 0.766,1.021 1.328,1.344c0.563,0.312 1.198,0.468 1.906,0.468c0.594,0 1.136,-0.12 1.625,-0.359c0.5,-0.24 0.912,-0.599 1.235,-1.078l0.984,0.672c-0.385,0.635 -0.917,1.119 -1.594,1.453c-0.666,0.323 -1.416,0.484 -2.25,0.484zM323.785,216.885c-0.802,0 -1.568,-0.114 -2.297,-0.344c-0.729,-0.229 -1.297,-0.52 -1.703,-0.875l0.594,-1.046c0.416,0.333 0.932,0.604 1.547,0.812c0.625,0.198 1.276,0.297 1.953,0.297c0.885,0 1.541,-0.141 1.968,-0.422c0.438,-0.281 0.657,-0.677 0.657,-1.187c0,-0.355 -0.12,-0.636 -0.36,-0.844c-0.229,-0.209 -0.526,-0.365 -0.89,-0.469c-0.365,-0.104 -0.844,-0.208 -1.438,-0.312c-0.791,-0.146 -1.432,-0.297 -1.922,-0.454c-0.489,-0.156 -0.906,-0.416 -1.25,-0.781c-0.333,-0.375 -0.5,-0.896 -0.5,-1.562c0,-0.823 0.339,-1.495 1.016,-2.016c0.687,-0.521 1.641,-0.781 2.859,-0.781c0.636,0 1.271,0.083 1.907,0.25c0.635,0.166 1.156,0.39 1.562,0.672l-0.578,1.062c-0.802,-0.562 -1.766,-0.844 -2.891,-0.844c-0.843,0 -1.479,0.151 -1.906,0.454c-0.427,0.291 -0.641,0.682 -0.641,1.171c0,0.375 0.12,0.677 0.36,0.907c0.239,0.218 0.536,0.38 0.89,0.484c0.365,0.104 0.865,0.214 1.5,0.328c0.782,0.146 1.407,0.297 1.875,0.453c0.48,0.146 0.886,0.401 1.219,0.766c0.344,0.354 0.516,0.849 0.516,1.484c0,0.854 -0.36,1.537 -1.078,2.047c-0.719,0.5 -1.709,0.75 -2.969,0.75zM330.408,216.885c-0.281,0 -0.521,-0.099 -0.719,-0.297c-0.187,-0.198 -0.281,-0.442 -0.281,-0.734c0,-0.281 0.094,-0.516 0.281,-0.703c0.198,-0.198 0.438,-0.297 0.719,-0.297c0.271,0 0.505,0.099 0.703,0.297c0.198,0.187 0.297,0.422 0.297,0.703c0,0.292 -0.099,0.536 -0.297,0.734c-0.198,0.198 -0.432,0.297 -0.703,0.297z" id="ID0.10709544736891985" fill="#ffffff"/><path d="M157.36,235.307h-7.266l-1.578,3.484h-1.437l5.968,-13.062h1.375l5.969,13.062h-1.453zM156.86,234.182l-3.141,-7.016l-3.125,7.016zM170.518,228.979l-4.36,9.812h-1.375l-4.343,-9.812h1.39l3.672,8.359l3.703,-8.359zM176.395,238.885c-0.948,0 -1.802,-0.213 -2.562,-0.64c-0.75,-0.428 -1.344,-1.021 -1.782,-1.782c-0.437,-0.76 -0.656,-1.62 -0.656,-2.578c0,-0.958 0.219,-1.818 0.656,-2.578c0.438,-0.76 1.032,-1.349 1.782,-1.766c0.76,-0.427 1.614,-0.64 2.562,-0.64c0.948,0 1.797,0.213 2.547,0.64c0.76,0.417 1.354,1.006 1.781,1.766c0.438,0.76 0.656,1.62 0.656,2.578c0,0.958 -0.218,1.818 -0.656,2.578c-0.427,0.761 -1.021,1.354 -1.781,1.782c-0.75,0.427 -1.599,0.64 -2.547,0.64zM176.395,237.713c0.698,0 1.323,-0.156 1.875,-0.468c0.552,-0.323 0.984,-0.777 1.297,-1.36c0.312,-0.583 0.469,-1.25 0.469,-2c0,-0.75 -0.157,-1.417 -0.469,-2c-0.313,-0.583 -0.745,-1.031 -1.297,-1.344c-0.552,-0.323 -1.177,-0.484 -1.875,-0.484c-0.698,0 -1.323,0.161 -1.875,0.484c-0.552,0.313 -0.99,0.761 -1.312,1.344c-0.313,0.583 -0.469,1.25 -0.469,2c0,0.75 0.156,1.417 0.469,2c0.322,0.583 0.76,1.037 1.312,1.36c0.552,0.312 1.177,0.468 1.875,0.468zM184.077,228.979h1.328v9.812h-1.328zM184.749,226.838c-0.271,0 -0.5,-0.093 -0.688,-0.281c-0.187,-0.187 -0.281,-0.411 -0.281,-0.672c0,-0.25 0.094,-0.469 0.281,-0.656c0.188,-0.188 0.417,-0.281 0.688,-0.281c0.271,0 0.5,0.093 0.687,0.281c0.188,0.177 0.281,0.391 0.281,0.641c0,0.27 -0.093,0.5 -0.281,0.687c-0.187,0.188 -0.416,0.281 -0.687,0.281zM198.049,224.948v13.843h-1.266v-1.937c-0.396,0.656 -0.922,1.161 -1.578,1.516c-0.646,0.343 -1.38,0.515 -2.203,0.515c-0.927,0 -1.766,-0.208 -2.516,-0.625c-0.74,-0.427 -1.323,-1.021 -1.75,-1.781c-0.417,-0.761 -0.625,-1.625 -0.625,-2.594c0,-0.969 0.208,-1.833 0.625,-2.594c0.427,-0.76 1.01,-1.349 1.75,-1.765c0.75,-0.417 1.589,-0.625 2.516,-0.625c0.791,0 1.505,0.166 2.14,0.5c0.646,0.323 1.177,0.802 1.594,1.437v-5.89zM193.111,237.713c0.688,0 1.307,-0.156 1.859,-0.468c0.552,-0.323 0.985,-0.777 1.297,-1.36c0.323,-0.583 0.485,-1.25 0.485,-2c0,-0.75 -0.162,-1.417 -0.485,-2c-0.312,-0.583 -0.745,-1.031 -1.297,-1.344c-0.552,-0.323 -1.171,-0.484 -1.859,-0.484c-0.698,0 -1.323,0.161 -1.875,0.484c-0.552,0.313 -0.99,0.761 -1.312,1.344c-0.313,0.583 -0.469,1.25 -0.469,2c0,0.75 0.156,1.417 0.469,2c0.322,0.583 0.76,1.037 1.312,1.36c0.552,0.312 1.177,0.468 1.875,0.468zM211.804,238.198c-0.25,0.218 -0.557,0.39 -0.922,0.515c-0.364,0.115 -0.75,0.172 -1.156,0.172c-0.917,0 -1.625,-0.25 -2.125,-0.75c-0.49,-0.5 -0.734,-1.203 -0.734,-2.109v-5.922h-1.766v-1.125h1.766v-2.141h1.312v2.141h2.985v1.125h-2.985v5.859c0,0.584 0.146,1.026 0.438,1.328c0.291,0.302 0.713,0.454 1.265,0.454c0.271,0 0.532,-0.042 0.782,-0.125c0.26,-0.094 0.484,-0.219 0.671,-0.375zM219.207,228.901c1.229,0 2.208,0.359 2.937,1.078c0.729,0.708 1.094,1.75 1.094,3.125v5.687h-1.328v-5.562c0,-1.021 -0.255,-1.797 -0.766,-2.328c-0.51,-0.531 -1.234,-0.797 -2.172,-0.797c-1.062,0 -1.901,0.312 -2.515,0.937c-0.615,0.625 -0.922,1.49 -0.922,2.594v5.156h-1.328v-13.843h1.328v5.75c0.364,-0.573 0.859,-1.016 1.484,-1.328c0.636,-0.313 1.365,-0.469 2.188,-0.469zM235.384,234.291h-8.203c0.073,1.021 0.463,1.849 1.172,2.485c0.708,0.625 1.604,0.937 2.687,0.937c0.604,0 1.162,-0.109 1.672,-0.328c0.51,-0.219 0.953,-0.542 1.328,-0.969l0.75,0.86c-0.437,0.521 -0.984,0.922 -1.64,1.203c-0.646,0.271 -1.365,0.406 -2.157,0.406c-1,0 -1.89,-0.213 -2.672,-0.64c-0.77,-0.428 -1.375,-1.021 -1.812,-1.782c-0.438,-0.76 -0.656,-1.62 -0.656,-2.578c0,-0.958 0.208,-1.818 0.625,-2.578c0.416,-0.76 0.989,-1.349 1.718,-1.766c0.73,-0.427 1.547,-0.64 2.454,-0.64c0.906,0 1.718,0.213 2.437,0.64c0.719,0.417 1.281,1.006 1.688,1.766c0.416,0.75 0.625,1.609 0.625,2.578zM230.65,230.041c-0.948,0 -1.745,0.302 -2.391,0.907c-0.636,0.604 -0.995,1.39 -1.078,2.359h6.953c-0.083,-0.969 -0.448,-1.755 -1.094,-2.359c-0.635,-0.605 -1.432,-0.907 -2.39,-0.907zM252.087,228.979v8.625c0,1.667 -0.411,2.901 -1.234,3.703c-0.813,0.802 -2.037,1.203 -3.672,1.203c-0.906,0 -1.771,-0.135 -2.594,-0.406c-0.812,-0.271 -1.474,-0.641 -1.984,-1.109l0.672,-1.016c0.468,0.427 1.041,0.755 1.718,0.984c0.688,0.24 1.401,0.36 2.141,0.36c1.25,0 2.167,-0.292 2.75,-0.875c0.583,-0.573 0.875,-1.469 0.875,-2.688v-1.25c-0.406,0.625 -0.943,1.099 -1.609,1.422c-0.667,0.323 -1.407,0.484 -2.219,0.484c-0.917,0 -1.755,-0.198 -2.516,-0.593c-0.75,-0.407 -1.338,-0.974 -1.765,-1.703c-0.428,-0.73 -0.641,-1.558 -0.641,-2.485c0,-0.917 0.213,-1.734 0.641,-2.453c0.427,-0.719 1.015,-1.276 1.765,-1.672c0.75,-0.406 1.589,-0.609 2.516,-0.609c0.833,0 1.583,0.172 2.25,0.515c0.677,0.334 1.219,0.818 1.625,1.454v-1.891zM247.056,237.245c0.719,0 1.359,-0.152 1.922,-0.454c0.573,-0.312 1.015,-0.739 1.328,-1.281c0.323,-0.552 0.484,-1.177 0.484,-1.875c0,-0.687 -0.161,-1.302 -0.484,-1.844c-0.313,-0.541 -0.75,-0.963 -1.313,-1.265c-0.562,-0.313 -1.208,-0.469 -1.937,-0.469c-0.709,0 -1.344,0.151 -1.906,0.453c-0.563,0.302 -1.006,0.729 -1.329,1.281c-0.312,0.542 -0.468,1.157 -0.468,1.844c0,0.698 0.156,1.323 0.468,1.875c0.323,0.542 0.766,0.969 1.329,1.281c0.562,0.302 1.197,0.454 1.906,0.454zM257.057,230.901c0.313,-0.656 0.776,-1.151 1.391,-1.485c0.614,-0.343 1.38,-0.515 2.297,-0.515v1.297l-0.329,-0.032c-1.031,0 -1.838,0.318 -2.421,0.954c-0.584,0.635 -0.875,1.526 -0.875,2.671v5h-1.329v-9.812h1.266zM271.82,234.291h-8.204c0.073,1.021 0.464,1.849 1.172,2.485c0.709,0.625 1.604,0.937 2.688,0.937c0.604,0 1.161,-0.109 1.672,-0.328c0.51,-0.219 0.953,-0.542 1.328,-0.969l0.75,0.86c-0.438,0.521 -0.985,0.922 -1.641,1.203c-0.646,0.271 -1.364,0.406 -2.156,0.406c-1,0 -1.891,-0.213 -2.672,-0.64c-0.771,-0.428 -1.375,-1.021 -1.812,-1.782c-0.438,-0.76 -0.657,-1.62 -0.657,-2.578c0,-0.958 0.209,-1.818 0.625,-2.578c0.417,-0.76 0.99,-1.349 1.719,-1.766c0.729,-0.427 1.547,-0.64 2.453,-0.64c0.906,0 1.719,0.213 2.438,0.64c0.718,0.417 1.281,1.006 1.687,1.766c0.417,0.75 0.625,1.609 0.625,2.578zM267.085,230.041c-0.948,0 -1.745,0.302 -2.39,0.907c-0.636,0.604 -0.995,1.39 -1.079,2.359h6.954c-0.084,-0.969 -0.448,-1.755 -1.094,-2.359c-0.636,-0.605 -1.433,-0.907 -2.391,-0.907zM282.791,228.979l-4.906,10.984c-0.396,0.927 -0.86,1.584 -1.391,1.969c-0.521,0.385 -1.146,0.578 -1.875,0.578c-0.469,0 -0.911,-0.078 -1.328,-0.234c-0.406,-0.146 -0.76,-0.37 -1.062,-0.672l0.625,-0.984c0.489,0.5 1.083,0.75 1.781,0.75c0.448,0 0.828,-0.125 1.14,-0.375c0.323,-0.25 0.62,-0.672 0.891,-1.266l0.438,-0.953l-4.391,-9.797h1.391l3.687,8.344l3.688,-8.344zM289.541,224.948h1.328v13.843h-1.328zM294.559,228.979h1.328v9.812h-1.328zM295.231,226.838c-0.271,0 -0.5,-0.093 -0.687,-0.281c-0.188,-0.187 -0.282,-0.411 -0.282,-0.672c0,-0.25 0.094,-0.469 0.282,-0.656c0.187,-0.188 0.416,-0.281 0.687,-0.281c0.271,0 0.5,0.093 0.688,0.281c0.187,0.177 0.281,0.391 0.281,0.641c0,0.27 -0.094,0.5 -0.281,0.687c-0.188,0.188 -0.417,0.281 -0.688,0.281zM304.578,228.901c1.229,0 2.208,0.359 2.937,1.078c0.729,0.708 1.094,1.75 1.094,3.125v5.687h-1.328v-5.562c0,-1.021 -0.255,-1.797 -0.766,-2.328c-0.51,-0.531 -1.234,-0.797 -2.172,-0.797c-1.062,0 -1.901,0.312 -2.515,0.937c-0.615,0.625 -0.922,1.49 -0.922,2.594v5.156h-1.328v-9.812h1.265v1.812c0.365,-0.604 0.865,-1.067 1.5,-1.39c0.646,-0.334 1.391,-0.5 2.235,-0.5zM320.755,234.291h-8.203c0.073,1.021 0.463,1.849 1.172,2.485c0.708,0.625 1.604,0.937 2.687,0.937c0.604,0 1.162,-0.109 1.672,-0.328c0.51,-0.219 0.953,-0.542 1.328,-0.969l0.75,0.86c-0.437,0.521 -0.984,0.922 -1.64,1.203c-0.646,0.271 -1.365,0.406 -2.157,0.406c-1,0 -1.89,-0.213 -2.672,-0.64c-0.77,-0.428 -1.375,-1.021 -1.812,-1.782c-0.438,-0.76 -0.656,-1.62 -0.656,-2.578c0,-0.958 0.208,-1.818 0.625,-2.578c0.416,-0.76 0.989,-1.349 1.718,-1.766c0.73,-0.427 1.547,-0.64 2.454,-0.64c0.906,0 1.718,0.213 2.437,0.64c0.719,0.417 1.281,1.006 1.688,1.766c0.416,0.75 0.625,1.609 0.625,2.578zM316.021,230.041c-0.948,0 -1.745,0.302 -2.391,0.907c-0.636,0.604 -0.995,1.39 -1.078,2.359h6.953c-0.083,-0.969 -0.448,-1.755 -1.094,-2.359c-0.635,-0.605 -1.432,-0.907 -2.39,-0.907zM323.617,238.885c-0.281,0 -0.521,-0.099 -0.719,-0.297c-0.187,-0.198 -0.281,-0.442 -0.281,-0.734c0,-0.281 0.094,-0.516 0.281,-0.703c0.198,-0.198 0.438,-0.297 0.719,-0.297c0.271,0 0.505,0.099 0.703,0.297c0.198,0.187 0.297,0.422 0.297,0.703c0,0.292 -0.099,0.536 -0.297,0.734c-0.198,0.198 -0.432,0.297 -0.703,0.297z" id="ID0.8406591019593179" fill="#ffffff"/></g><text transform="translate(202,347.42302) scale(0.28999,0.28999)" font-size="40" xml:space="preserve" data-paper-data="{&quot;origPos&quot;:null}" fill="#ffffff" fill-rule="nonzero" stroke="none" stroke-width="1" stroke-linecap="butt" stroke-linejoin="miter" stroke-miterlimit="10" stroke-dasharray="" stroke-dashoffset="0" font-family="Sans Serif" font-weight="normal" text-anchor="start" style="mix-blend-mode: normal"><tspan x="0" dy="0">OR CLICK</tspan></text></g></svg>