<svg xmlns="http://www.w3.org/2000/svg" xmlns:xlink="http://www.w3.org/1999/xlink" version="1.1" width="484" height="364" viewBox="-2 -2 484 364">
  <!-- Exported by Scratch - http://scratch.mit.edu/ -->
  <path id="ID0.9313635174185038" fill="#234158" stroke="none" d="M 0 0 L 480 0 L 480 360 L 0 360 L 0 0 Z " stroke-width="1"/>
  <g id="ID0.5060450206510723">
    <g id="ID0.9497344270348549">
      <path id="ID0.11619279952719808" fill="#5EBDAB" stroke="none" stroke-linecap="round" d="M 137.4 90.6665 C 161.954 90.6665 184.204 100.6394 200.316 116.7503 C 216.427 132.8623 226.4 155.1123 226.4 179.6665 C 226.4 204.2207 216.427 226.4707 200.316 242.5826 C 184.204 258.6936 161.954 268.6665 137.4 268.6665 C 112.846 268.6665 90.596 258.6936 74.484 242.5826 C 58.373 226.4707 48.4 204.2207 48.4 179.6665 C 48.4 155.1123 58.373 132.8623 74.484 116.7503 C 90.596 100.6394 112.846 90.6665 137.4 90.6665 Z " stroke-width="0.9890720378355726"/>
      <g id="ID0.7392332786694169">
        <g id="ID0.3620622339658439">
          <path id="ID0.4507804224267602" fill="#ffffff" d="M 99.27 185.253 L 107.051 185.253 L 107.051 212.503 L 123.895 212.503 L 123.895 218.846 L 99.27 218.846 L 99.27 185.253 Z " stroke-width="1"/>
          <path id="ID0.9721732651814818" fill="#ffffff" d="M 132.034 185.253 L 139.815 185.253 L 139.815 218.846 L 132.034 218.846 L 132.034 185.253 Z " stroke-width="1"/>
          <path id="ID0.11776603106409311" fill="#ffffff" d="M 182.363 185.253 L 182.363 218.846 L 175.988 218.846 L 159.222 198.44 L 159.222 218.846 L 151.55 218.846 L 151.55 185.253 L 157.988 185.253 L 174.691 205.643 L 174.691 185.253 L 182.363 185.253 Z " stroke-width="1"/>
          <path id="ID0.7155153374187648" fill="#ffffff" d="M 220.122 212.612 L 220.122 218.846 L 194.106 218.846 L 194.106 185.253 L 219.497 185.253 L 219.497 191.487 L 201.84 191.487 L 201.84 198.784 L 217.434 198.784 L 217.434 204.831 L 201.84 204.831 L 201.84 212.612 L 220.122 212.612 Z " stroke-width="1"/>
          <path id="ID0.5229233293794096" fill="#ffffff" d="M 252.211 211.643 L 236.617 211.643 L 233.633 218.846 L 225.664 218.846 L 240.648 185.253 L 248.32 185.253 L 263.351 218.846 L 255.195 218.846 L 252.211 211.643 Z M 249.758 205.737 L 244.445 192.878 L 239.117 205.737 L 249.758 205.737 Z " stroke-width="1"/>
          <path id="ID0.3587612258270383" fill="#ffffff" d="M 292.032 218.846 L 285.548 209.487 L 285.173 209.487 L 278.407 209.487 L 278.407 218.846 L 270.626 218.846 L 270.626 185.253 L 285.173 185.253 C 288.141 185.253 290.72 185.747 292.907 186.737 C 295.105 187.726 296.798 189.133 297.985 190.956 C 299.173 192.779 299.766 194.94 299.766 197.44 C 299.766 199.94 299.162 202.096 297.954 203.909 C 296.756 205.711 295.053 207.091 292.845 208.049 L 300.391 218.846 L 292.032 218.846 Z M 291.891 197.44 C 291.891 195.555 291.282 194.107 290.063 193.096 C 288.845 192.086 287.068 191.581 284.735 191.581 L 278.407 191.581 L 278.407 203.299 L 284.735 203.299 C 287.068 203.299 288.845 202.789 290.063 201.768 C 291.282 200.737 291.891 199.294 291.891 197.44 Z " stroke-width="1"/>
          <path id="ID0.025766028091311455" fill="#ffffff" d="M 325.756 219.424 C 322.329 219.424 319.23 218.68 316.459 217.19 C 313.699 215.7 311.527 213.638 309.943 211.003 C 308.36 208.357 307.568 205.372 307.568 202.049 C 307.568 198.716 308.36 195.732 309.943 193.096 C 311.527 190.45 313.699 188.388 316.459 186.909 C 319.23 185.419 322.344 184.674 325.803 184.674 C 328.719 184.674 331.35 185.185 333.693 186.206 C 336.047 187.226 338.027 188.7 339.631 190.628 L 334.631 195.237 C 332.36 192.612 329.547 191.299 326.193 191.299 C 324.11 191.299 322.251 191.758 320.615 192.674 C 318.99 193.581 317.719 194.851 316.803 196.487 C 315.896 198.112 315.443 199.966 315.443 202.049 C 315.443 204.122 315.896 205.976 316.803 207.612 C 317.719 209.247 318.99 210.523 320.615 211.44 C 322.251 212.346 324.11 212.799 326.193 212.799 C 329.547 212.799 332.36 211.471 334.631 208.815 L 339.631 213.424 C 338.027 215.372 336.042 216.862 333.678 217.893 C 331.313 218.914 328.672 219.424 325.756 219.424 Z " stroke-width="1"/>
          <path id="ID0.6781743257306516" fill="#ffffff" d="M 355.587 191.581 L 344.837 191.581 L 344.837 185.253 L 374.118 185.253 L 374.118 191.581 L 363.368 191.581 L 363.368 218.846 L 355.587 218.846 L 355.587 191.581 Z " stroke-width="1"/>
          <path id="ID0.582335299346596" fill="#ffffff" d="M 382.07 185.253 L 389.851 185.253 L 389.851 218.846 L 382.07 218.846 L 382.07 185.253 Z " stroke-width="1"/>
          <path id="ID0.4800991634838283" fill="#ffffff" d="M 417.664 219.424 C 414.236 219.424 411.137 218.68 408.367 217.19 C 405.606 215.7 403.434 213.638 401.851 211.003 C 400.268 208.357 399.476 205.372 399.476 202.049 C 399.476 198.716 400.268 195.732 401.851 193.096 C 403.434 190.45 405.606 188.388 408.367 186.909 C 411.137 185.419 414.252 184.674 417.71 184.674 C 420.627 184.674 423.257 185.185 425.601 186.206 C 427.955 187.226 429.934 188.7 431.539 190.628 L 426.539 195.237 C 424.268 192.612 421.455 191.299 418.101 191.299 C 416.018 191.299 414.158 191.758 412.523 192.674 C 410.898 193.581 409.627 194.851 408.71 196.487 C 407.804 198.112 407.351 199.966 407.351 202.049 C 407.351 204.122 407.804 205.976 408.71 207.612 C 409.627 209.247 410.898 210.523 412.523 211.44 C 414.158 212.346 416.018 212.799 418.101 212.799 C 421.455 212.799 424.268 211.471 426.539 208.815 L 431.539 213.424 C 429.934 215.372 427.95 216.862 425.585 217.893 C 423.221 218.914 420.58 219.424 417.664 219.424 Z " stroke-width="1"/>
        </g>
      </g>
      <path id="ID0.8619502750225365" fill="none" stroke="#234158" stroke-width="4" stroke-linecap="round" d="M 222.55 211.75 C 222.55 211.75 221.698 213.924 221.25 215 C 220.762 216.174 220.247 217.385 219.65 218.55 C 219.198 219.551 218.643 220.502 218.1 221.5 C 217.281 223.013 215.65 226.05 215.65 226.05 "/>
    </g>
    <g id="ID0.0857315231114626">
      <g id="ID0.12483491189777851">
        <path id="ID0.8306178883649409" fill="#ffffff" d="M 240.728 257.0932 C 239.8043 257.0932 238.9098 256.9679 238.0456 256.7179 C 237.1866 256.4627 236.4935 256.1366 235.9659 255.7394 L 236.8875 253.701 C 237.3875 254.0652 237.983 254.3585 238.6734 254.5814 C 239.3638 254.8042 240.0543 254.9159 240.7447 254.9159 C 241.5108 254.9159 242.0792 254.8016 242.4486 254.5735 C 242.8187 254.345 243.0034 254.0433 243.0034 253.6681 C 243.0034 253.391 242.8943 253.1598 242.6772 252.975 C 242.4596 252.7903 242.1799 252.6436 241.837 252.5351 C 241.5004 252.4208 241.0406 252.2956 240.4593 252.1599 C 239.5674 251.9532 238.8394 251.7439 238.2736 251.5321 C 237.7085 251.3197 237.2221 250.9799 236.814 250.5128 C 236.4064 250.0452 236.2028 249.42 236.2028 248.6372 C 236.2028 247.9577 236.385 247.3435 236.7487 246.7945 C 237.1187 246.2449 237.673 245.8102 238.4125 245.4898 C 239.1572 245.1636 240.0621 245.0003 241.1278 245.0003 C 241.8725 245.0003 242.601 245.09 243.3134 245.2696 C 244.031 245.4433 244.6557 245.6991 245.1885 246.0357 L 244.3488 248.0908 C 243.2722 247.4766 242.1934 247.1692 241.1116 247.1692 C 240.3559 247.1692 239.796 247.2918 239.4317 247.5361 C 239.0732 247.7808 238.8936 248.1044 238.8936 248.5067 C 238.8936 248.9091 239.1003 249.2081 239.5131 249.4038 C 239.9316 249.5938 240.5704 249.7843 241.4294 249.9743 C 242.3213 250.1867 243.0493 250.3985 243.615 250.6104 C 244.1854 250.8223 244.6724 251.1568 245.0747 251.6135 C 245.4823 252.0701 245.6858 252.687 245.6858 253.4646 C 245.6858 254.1331 245.4985 254.7447 245.1233 255.2989 C 244.7538 255.848 244.1964 256.2858 243.4517 256.612 C 242.707 256.9329 241.7994 257.0932 240.728 257.0932 Z M 257.8622 257.0932 C 256.6718 257.0932 255.5952 256.8348 254.6329 256.3187 C 253.671 255.7968 252.9128 255.0761 252.358 254.1576 C 251.809 253.2386 251.5345 252.2006 251.5345 251.0425 C 251.5345 249.8845 251.809 248.8465 252.358 247.9275 C 252.9128 247.009 253.671 246.2914 254.6329 245.7747 C 255.5952 245.2586 256.677 245.0003 257.8784 245.0003 C 258.8898 245.0003 259.8057 245.1798 260.6266 245.5383 C 261.4475 245.8916 262.1348 246.4031 262.6896 247.0716 L 260.9528 248.6696 C 260.1642 247.7563 259.1831 247.2996 258.0089 247.2996 C 257.2861 247.2996 256.6389 247.4604 256.068 247.7808 C 255.5028 248.096 255.0624 248.5391 254.7472 249.11 C 254.4319 249.6752 254.2743 250.3197 254.2743 251.0425 C 254.2743 251.7659 254.4319 252.4125 254.7472 252.9834 C 255.0624 253.5486 255.5028 253.9917 256.068 254.3126 C 256.6389 254.6278 257.2861 254.7854 258.0089 254.7854 C 259.1831 254.7854 260.1642 254.3236 260.9528 253.3993 L 262.6896 255.0057 C 262.1348 255.6851 261.4444 256.2044 260.6182 256.5629 C 259.7921 256.9162 258.8731 257.0932 257.8622 257.0932 Z M 276.6805 256.8891 L 274.4297 253.6357 L 274.2992 253.6357 L 271.9429 253.6357 L 271.9429 256.8891 L 269.2354 256.8891 L 269.2354 245.196 L 274.2992 245.196 C 275.3325 245.196 276.2291 245.3698 276.9905 245.7178 C 277.7566 246.0602 278.3437 246.5497 278.7518 247.1859 C 279.1646 247.8215 279.3713 248.5746 279.3713 249.4446 C 279.3713 250.3088 279.162 251.0561 278.7435 251.6871 C 278.3302 252.3175 277.7378 252.7986 276.966 253.13 L 279.5915 256.8891 L 276.6805 256.8891 Z M 276.6315 249.4446 C 276.6315 248.7865 276.4196 248.2839 275.9953 247.9358 C 275.5768 247.5825 274.9599 247.4056 274.1442 247.4056 L 271.9429 247.4056 L 271.9429 251.4746 L 274.1442 251.4746 C 274.9599 251.4746 275.5768 251.2983 275.9953 250.9449 C 276.4196 250.5859 276.6315 250.0859 276.6315 249.4446 Z M 293.9337 254.3857 L 288.5114 254.3857 L 287.4755 256.8891 L 284.7033 256.8891 L 289.9137 245.196 L 292.5805 245.196 L 297.8071 256.8891 L 294.9696 256.8891 L 293.9337 254.3857 Z M 293.0857 252.331 L 291.2267 247.8544 L 289.3756 252.331 L 293.0857 252.331 Z M 306.1764 247.4056 L 302.4335 247.4056 L 302.4335 245.196 L 312.6184 245.196 L 312.6184 247.4056 L 308.8833 247.4056 L 308.8833 256.8891 L 306.1764 256.8891 L 306.1764 247.4056 Z M 324.395 257.0932 C 323.2046 257.0932 322.128 256.8348 321.1662 256.3187 C 320.2038 255.7968 319.4456 255.0761 318.8908 254.1576 C 318.3418 253.2386 318.0673 252.2006 318.0673 251.0425 C 318.0673 249.8845 318.3418 248.8465 318.8908 247.9275 C 319.4456 247.009 320.2038 246.2914 321.1662 245.7747 C 322.128 245.2586 323.2098 245.0003 324.4112 245.0003 C 325.4226 245.0003 326.3385 245.1798 327.1594 245.5383 C 327.9803 245.8916 328.6681 246.4031 329.2224 247.0716 L 327.4856 248.6696 C 326.6975 247.7563 325.7159 247.2996 324.5417 247.2996 C 323.8189 247.2996 323.1718 247.4604 322.6013 247.7808 C 322.0356 248.096 321.5957 248.5391 321.28 249.11 C 320.9647 249.6752 320.8071 250.3197 320.8071 251.0425 C 320.8071 251.7659 320.9647 252.4125 321.28 252.9834 C 321.5957 253.5486 322.0356 253.9917 322.6013 254.3126 C 323.1718 254.6278 323.8189 254.7854 324.5417 254.7854 C 325.7159 254.7854 326.6975 254.3236 327.4856 253.3993 L 329.2224 255.0057 C 328.6681 255.6851 327.9777 256.2044 327.151 256.5629 C 326.3249 256.9162 325.4064 257.0932 324.395 257.0932 Z M 346.4912 245.196 L 346.4912 256.8891 L 343.7843 256.8891 L 343.7843 252.0946 L 338.4757 252.0946 L 338.4757 256.8891 L 335.7682 256.8891 L 335.7682 245.196 L 338.4757 245.196 L 338.4757 249.8114 L 343.7843 249.8114 L 343.7843 245.196 L 346.4912 245.196 Z M 357.829 257.0932 C 356.9047 257.0932 356.0107 256.9679 355.146 256.7179 C 354.287 256.4627 353.5939 256.1366 353.0668 255.7394 L 353.9885 253.701 C 354.4884 254.0652 355.0839 254.3585 355.7738 254.5814 C 356.4642 254.8042 357.1547 254.9159 357.8451 254.9159 C 358.6118 254.9159 359.1796 254.8016 359.5496 254.5735 C 359.9191 254.345 360.1038 254.0433 360.1038 253.6681 C 360.1038 253.391 359.9953 253.1598 359.7776 252.975 C 359.5605 252.7903 359.2803 252.6436 358.9379 252.5351 C 358.6008 252.4208 358.1416 252.2956 357.5597 252.1599 C 356.6683 251.9532 355.9398 251.7439 355.3746 251.5321 C 354.8089 251.3197 354.3225 250.9799 353.9149 250.5128 C 353.5073 250.0452 353.3033 249.42 353.3033 248.6372 C 353.3033 247.9577 353.4854 247.3435 353.8497 246.7945 C 354.2191 246.2449 354.7739 245.8102 355.5129 245.4898 C 356.2581 245.1636 357.163 245.0003 358.2287 245.0003 C 358.9734 245.0003 359.7014 245.09 360.4138 245.2696 C 361.1314 245.4433 361.7566 245.6991 362.2894 246.0357 L 361.4492 248.0908 C 360.3731 247.4766 359.2939 247.1692 358.212 247.1692 C 357.4563 247.1692 356.8964 247.2918 356.5326 247.5361 C 356.1736 247.7808 355.994 248.1044 355.994 248.5067 C 355.994 248.9091 356.2007 249.2081 356.614 249.4038 C 357.0326 249.5938 357.6713 249.7843 358.5304 249.9743 C 359.4217 250.1867 360.1503 250.3985 360.7154 250.6104 C 361.2864 250.8223 361.7728 251.1568 362.1751 251.6135 C 362.5827 252.0701 362.7868 252.687 362.7868 253.4646 C 362.7868 254.1331 362.5994 254.7447 362.2242 255.2989 C 361.8542 255.848 361.2973 256.2858 360.5526 256.612 C 359.8079 256.9329 358.8998 257.0932 357.829 257.0932 Z M 371.7907 247.4056 L 368.0478 247.4056 L 368.0478 245.196 L 378.2327 245.196 L 378.2327 247.4056 L 374.4982 247.4056 L 374.4982 256.8891 L 371.7907 256.8891 L 371.7907 247.4056 Z M 392.1135 254.3857 L 386.6907 254.3857 L 385.6553 256.8891 L 382.8826 256.8891 L 388.0935 245.196 L 390.7598 245.196 L 395.9869 256.8891 L 393.1489 256.8891 L 392.1135 254.3857 Z M 391.2655 252.331 L 389.406 247.8544 L 387.555 252.331 L 391.2655 252.331 Z M 412.6571 245.196 L 412.6571 256.8891 L 410.4308 256.8891 L 404.6088 249.7953 L 404.6088 256.8891 L 401.9342 256.8891 L 401.9342 245.196 L 404.1683 245.196 L 409.9825 252.2982 L 409.9825 245.196 L 412.6571 245.196 Z M 428.0551 250.863 L 430.5261 250.863 L 430.5261 255.6011 C 429.89 256.0792 429.1536 256.4492 428.316 256.7101 C 427.4847 256.9653 426.6444 257.0932 425.7964 257.0932 C 424.5841 257.0932 423.4944 256.8348 422.5268 256.3187 C 421.5588 255.7968 420.7979 255.0761 420.2436 254.1576 C 419.6946 253.2386 419.4201 252.2006 419.4201 251.0425 C 419.4201 249.8845 419.6946 248.8465 420.2436 247.9275 C 420.7979 247.009 421.5645 246.2914 422.543 245.7747 C 423.5215 245.2586 424.6222 245.0003 425.8454 245.0003 C 426.873 245.0003 427.8025 245.1741 428.6343 245.5221 C 429.4714 245.8645 430.1728 246.365 430.738 247.0225 L 429.0012 248.621 C 428.1694 247.7401 427.1637 247.2996 425.9843 247.2996 C 425.2395 247.2996 424.5762 247.4573 423.9944 247.773 C 423.4182 248.0825 422.9668 248.5229 422.6406 249.0939 C 422.3202 249.659 422.16 250.3088 422.16 251.0425 C 422.16 251.7659 422.3202 252.4125 422.6406 252.9834 C 422.9668 253.5486 423.4156 253.9917 423.9865 254.3126 C 424.5569 254.6278 425.2119 254.7854 425.9514 254.7854 C 426.729 254.7854 427.4299 254.6195 428.0551 254.2881 L 428.0551 250.863 Z " stroke-width="0.5218750238418579"/>
      </g>
    </g>
  </g>
</svg>