<svg xmlns="http://www.w3.org/2000/svg" xmlns:xlink="http://www.w3.org/1999/xlink" version="1.1" width="7.062000274658203" height="12.563000679016113" viewBox="-0.3799999952316284 -0.21799999475479126 7.062000274658203 12.563000679016113">
  <!-- Exported by Scratch - http://scratch.mit.edu/ -->
  <g id="ID0.22816033521667123">
    <g id="ID0.7677697883918881">
      <path id="ID0.4034628411754966" fill="#999999" d="M 0.12 8.189 C 0.12 7.855 0.156 7.553 0.229 7.282 C 0.302 7.012 0.406 6.772 0.542 6.564 C 0.687 6.355 0.849 6.178 1.026 6.032 C 1.213 5.876 1.422 5.808 1.651 5.829 L 1.651 5.876 C 1.463 5.907 1.292 5.861 1.135 5.736 C 0.979 5.611 0.838 5.454 0.713 5.267 C 0.588 5.079 0.484 4.861 0.401 4.611 C 0.318 4.361 0.276 4.074 0.276 3.751 L 0.276 2.986 C 0.276 2.6 0.323 2.267 0.417 1.986 C 0.51 1.704 0.635 1.46 0.792 1.251 C 0.948 1.043 1.13 0.876 1.338 0.751 C 1.547 0.616 1.755 0.517 1.963 0.454 C 2.172 0.381 2.38 0.335 2.588 0.314 C 2.797 0.293 2.984 0.282 3.151 0.282 C 3.328 0.282 3.516 0.293 3.713 0.314 C 3.922 0.335 4.13 0.381 4.338 0.454 C 4.557 0.517 4.766 0.616 4.963 0.751 C 5.172 0.876 5.354 1.043 5.51 1.251 C 5.667 1.449 5.792 1.694 5.885 1.986 C 5.979 2.267 6.026 2.6 6.026 2.986 L 6.026 3.736 C 6.026 4.048 5.989 4.335 5.917 4.595 C 5.844 4.845 5.739 5.069 5.604 5.267 C 5.479 5.454 5.333 5.611 5.167 5.736 C 5 5.861 4.828 5.902 4.651 5.861 L 4.651 5.814 C 4.891 5.803 5.099 5.871 5.276 6.017 C 5.463 6.163 5.625 6.34 5.76 6.548 C 5.896 6.756 6 6.996 6.073 7.267 C 6.146 7.538 6.182 7.845 6.182 8.189 L 6.182 8.845 C 6.182 9.241 6.141 9.595 6.057 9.907 C 5.984 10.21 5.87 10.475 5.713 10.704 C 5.557 10.933 5.38 11.121 5.182 11.267 C 4.984 11.413 4.771 11.532 4.542 11.626 C 4.312 11.71 4.078 11.767 3.838 11.798 C 3.609 11.829 3.38 11.845 3.151 11.845 C 2.922 11.845 2.687 11.829 2.448 11.798 C 2.208 11.767 1.974 11.71 1.745 11.626 C 1.526 11.532 1.312 11.413 1.104 11.267 C 0.906 11.121 0.734 10.933 0.588 10.704 C 0.443 10.475 0.328 10.21 0.245 9.907 C 0.161 9.605 0.12 9.256 0.12 8.861 L 0.12 8.189 Z M 3.229 5.017 C 3.323 5.017 3.401 5.006 3.463 4.986 C 3.536 4.954 3.599 4.907 3.651 4.845 C 3.713 4.782 3.76 4.683 3.792 4.548 C 3.833 4.413 3.854 4.23 3.854 4.001 L 3.854 3.111 C 3.854 2.715 3.797 2.433 3.682 2.267 C 3.578 2.09 3.401 2.001 3.151 2.001 C 2.911 2.001 2.734 2.09 2.62 2.267 C 2.516 2.444 2.463 2.73 2.463 3.126 L 2.463 4.017 C 2.463 4.236 2.479 4.413 2.51 4.548 C 2.552 4.683 2.594 4.782 2.635 4.845 C 2.687 4.907 2.745 4.954 2.807 4.986 C 2.88 5.006 2.969 5.017 3.073 5.017 L 3.229 5.017 Z M 2.323 8.986 C 2.323 9.236 2.349 9.433 2.401 9.579 C 2.453 9.715 2.51 9.819 2.573 9.892 C 2.646 9.965 2.729 10.017 2.823 10.048 C 2.917 10.069 3.026 10.079 3.151 10.079 C 3.266 10.079 3.37 10.069 3.463 10.048 C 3.568 10.017 3.651 9.965 3.713 9.892 C 3.786 9.819 3.849 9.71 3.901 9.564 C 3.953 9.418 3.979 9.225 3.979 8.986 L 3.979 7.798 C 3.979 7.579 3.958 7.402 3.917 7.267 C 3.885 7.131 3.838 7.027 3.776 6.954 C 3.713 6.871 3.635 6.814 3.542 6.782 C 3.458 6.751 3.354 6.736 3.229 6.736 L 3.073 6.736 C 2.844 6.736 2.661 6.814 2.526 6.97 C 2.391 7.126 2.323 7.402 2.323 7.798 L 2.323 8.986 Z " stroke-width="1"/>
    </g>
  </g>
</svg>