<svg xmlns="http://www.w3.org/2000/svg" xmlns:xlink="http://www.w3.org/1999/xlink" version="1.1" width="146.97801208496094" height="219.79476928710938" viewBox="2.8661818504333496 0.17471402883529663 146.97801208496094 219.79476928710938">
  <!-- Exported by Scratch - http://scratch.mit.edu/ -->
  <g id="ID0.4154147864319384">
    <path id="ID0.7137846001423895" fill="#7AC36F" stroke="none" stroke-linecap="round" d="M 19.8877 144.1901 C 19.98 143.6651 20.9465 144.1919 21.4809 144.317 C 23.6062 144.8137 25.8602 144.8057 27.5593 146.0036 C 29.5525 147.3087 31.0264 149.4106 32.034 151.4705 C 32.8418 153.1141 33.3175 155.0475 33.1072 156.8669 C 33.0402 157.4371 31.9701 156.8866 31.4065 156.8317 C 29.3893 156.6341 27.0212 157.0319 25.2647 155.9416 C 23.1189 154.6151 21.6127 152.364 20.6226 150.0606 C 19.7504 148.2936 19.5498 146.1272 19.8877 144.1901 Z " stroke-width="0.5650606670290467"/>
    <path id="ID0.7137846001423895" fill="#7AC36F" stroke="none" stroke-linecap="round" d="M 29.0306 136.3661 C 29.3927 135.975 29.9194 136.9416 30.3005 137.3364 C 31.8171 138.906 33.7155 140.1213 34.4939 142.049 C 35.4612 144.2262 35.5602 146.7915 35.2901 149.0686 C 35.0779 150.8877 34.4295 152.7702 33.2665 154.185 C 32.901 154.6279 32.3003 153.5851 31.8565 153.2334 C 30.2685 151.9738 28.063 151.0243 27.178 149.1559 C 26.094 146.8779 26.0488 144.1698 26.4656 141.6974 C 26.6906 139.7399 27.6965 137.8107 29.0306 136.3661 Z " stroke-width="0.5650606437029003"/>
    <path id="ID0.7137846001423895" fill="#7AC36F" stroke="none" stroke-linecap="round" d="M 41.6551 140.3098 C 42.1836 140.2404 41.9712 141.3204 42.0121 141.8677 C 42.176 144.0441 42.86 146.1919 42.2271 148.1721 C 41.5801 150.465 40.0174 152.5017 38.3547 154.0809 C 37.0292 155.3447 35.3277 156.3786 33.529 156.7239 C 32.9649 156.8311 33.169 155.6451 33.0523 155.091 C 32.6355 153.1075 31.5455 150.9679 32.0584 148.9651 C 32.68 146.5202 34.3755 144.408 36.2757 142.7723 C 37.6995 141.4102 39.7059 140.5688 41.6551 140.3098 Z " stroke-width="0.5650606602739991"/>
    <path id="ID0.7137846001423895" fill="#7AC36F" stroke="none" stroke-linecap="round" d="M 49.8224 147.8113 C 50.2862 148.0739 49.4665 148.8085 49.1699 149.2702 C 47.9908 151.1069 47.2444 153.2338 45.5471 154.4343 C 43.6505 155.8761 41.1766 156.562 38.8983 156.8224 C 37.0792 157.0339 35.0981 156.8355 33.4538 156.0287 C 32.9388 155.7748 33.8156 154.9506 34.0559 154.4378 C 34.9169 152.6029 35.3341 150.2381 36.9492 148.9475 C 38.917 147.369 41.5423 146.7027 44.0443 146.5401 C 46.0012 146.3093 48.1099 146.8449 49.8224 147.8113 Z " stroke-width="0.5650606808144032"/>
  </g>
  <g id="ID0.7243137410841882">
    <path id="ID0.7137846001423895" fill="#7AC36F" stroke="none" stroke-linecap="round" d="M 28.2565 171.7855 C 27.7334 171.8875 27.8785 170.7964 27.8037 170.2527 C 27.5054 168.0906 26.6896 165.9894 27.1986 163.9737 C 27.7022 161.6451 29.1358 159.5155 30.6974 157.8363 C 31.9421 156.4929 33.5763 155.3555 35.3501 154.8994 C 35.9065 154.7575 35.7762 155.9538 35.9271 156.4997 C 36.466 158.4536 37.6865 160.5216 37.2985 162.5522 C 36.8297 165.031 35.2683 167.2442 33.4731 168.9944 C 32.1364 170.4422 30.186 171.4063 28.2565 171.7855 Z " stroke-width="0.5650607129281804"/>
    <path id="ID0.7137846001423895" fill="#7AC36F" stroke="none" stroke-linecap="round" d="M 17.6916 166.0556 C 17.1967 165.8577 17.9101 165.0196 18.142 164.5221 C 19.0635 162.5436 19.5171 160.3357 21.0376 158.9179 C 22.7232 157.2342 25.0823 156.2219 27.3049 155.6575 C 29.0791 155.2033 31.0689 155.1336 32.8067 155.7119 C 33.3511 155.8943 32.5931 156.829 32.424 157.3694 C 31.8175 159.3034 31.722 161.7028 30.2952 163.1989 C 28.5574 165.0276 26.0456 166.0408 23.5882 166.5383 C 21.6801 167.0302 19.5185 166.783 17.6916 166.0556 Z " stroke-width="0.5650606785761705"/>
    <path id="ID0.7137846001423895" fill="#7AC36F" stroke="none" stroke-linecap="round" d="M 16.8115 152.8101 C 16.5572 152.3417 17.6415 152.1528 18.1377 151.9183 C 20.1107 150.9849 21.8703 149.5762 23.9458 149.457 C 26.3182 149.2387 28.7799 149.9672 30.8503 150.9531 C 32.5053 151.7373 34.0806 152.955 35.0479 154.5102 C 35.3502 154.9983 34.1699 155.233 33.6945 155.5407 C 31.9923 156.641 30.3858 158.4258 28.3323 158.6651 C 25.8271 158.9616 23.2474 158.1362 21.0392 156.9489 C 19.257 156.1082 17.7521 154.5369 16.8115 152.8101 Z " stroke-width="0.565060675243248"/>
  </g>
  <g id="ID0.4154147864319384">
    <path id="ID0.7137846001423895" fill="#7AC36F" stroke="none" stroke-linecap="round" d="M 29.6501 169.084 C 29.7877 169.5989 30.7047 168.99 31.2261 168.8188 C 33.3001 168.1389 35.5463 167.9506 37.1346 166.6093 C 39.0066 165.1356 40.2919 162.9134 41.1162 160.7735 C 41.7778 159.0658 42.0834 157.0984 41.7155 155.3042 C 41.599 154.7419 40.581 155.3836 40.0243 155.4874 C 38.032 155.8598 35.6382 155.6698 33.9833 156.9089 C 31.9612 158.4172 30.6568 160.7909 29.871 163.1718 C 29.156 165.008 29.1448 167.1836 29.6501 169.084 Z " stroke-width="0.5650607214834932"/>
    <path id="ID0.7137846001423895" fill="#7AC36F" stroke="none" stroke-linecap="round" d="M 39.5047 176.0428 C 39.8995 176.4008 40.34 175.3921 40.6853 174.9655 C 42.0595 173.2698 43.8449 171.8939 44.4524 169.9058 C 45.2264 167.6526 45.1017 165.0884 44.6344 162.8434 C 44.2645 161.0498 43.4547 159.2309 42.1728 157.9227 C 41.7702 157.5134 41.2626 158.6044 40.8511 158.9934 C 39.3788 160.3865 37.2643 161.5245 36.5454 163.4629 C 35.664 165.8266 35.8547 168.5284 36.4852 170.955 C 36.8798 172.8856 38.0499 174.7198 39.5047 176.0428 Z " stroke-width="0.565060681458096"/>
    <path id="ID0.7137846001423895" fill="#7AC36F" stroke="none" stroke-linecap="round" d="M 51.7394 171.0211 C 52.2719 171.0442 51.9663 169.9868 51.9594 169.4381 C 51.9331 167.2557 52.4275 165.0565 51.6246 163.1389 C 50.7804 160.911 49.0462 159.0181 47.2524 157.5897 C 45.8219 156.4461 44.0367 155.5643 42.2148 155.3769 C 41.6436 155.3193 41.9502 156.483 41.8822 157.0451 C 41.6396 159.0575 40.7401 161.2839 41.4255 163.2343 C 42.2576 165.6159 44.1305 167.5724 46.166 169.0364 C 47.703 170.2694 49.7751 170.9329 51.7394 171.0211 Z " stroke-width="0.5650606640448109"/>
    <path id="ID0.7137846001423895" fill="#7AC36F" stroke="none" stroke-linecap="round" d="M 59.2586 162.8769 C 59.6978 162.575 58.8172 161.9145 58.4815 161.4803 C 57.147 159.7533 56.2182 157.6995 54.4228 156.6513 C 52.4078 155.3802 49.8837 154.9123 47.5914 154.8512 C 45.7607 154.799 43.8044 155.1692 42.2366 156.116 C 41.7457 156.4139 42.691 157.1586 42.975 157.6485 C 43.9924 159.4015 44.6141 161.7209 46.3353 162.866 C 48.4332 164.2671 51.1065 164.7023 53.6131 164.6464 C 55.5827 164.706 57.6367 163.9888 59.2586 162.8769 Z " stroke-width="0.5650606712173666"/>
  </g>
  <path id="ID0.7137846001423895" fill="#7AC36F" stroke="none" stroke-linecap="round" d="M 54.1001 189.984 C 54.2377 190.4989 55.1547 189.89 55.6761 189.7188 C 57.7501 189.0389 59.9963 188.8506 61.5846 187.5093 C 63.4566 186.0356 64.7419 183.8134 65.5662 181.6735 C 66.2278 179.9658 66.5334 177.9984 66.1655 176.2042 C 66.049 175.6419 65.031 176.2836 64.4743 176.3874 C 62.482 176.7598 60.0882 176.5698 58.4333 177.8089 C 56.4112 179.3172 55.1068 181.6909 54.321 184.0718 C 53.606 185.908 53.5948 188.0836 54.1001 189.984 Z " stroke-width="0.5650607214834932"/>
  <path id="ID0.7137846001423895" fill="#7AC36F" stroke="none" stroke-linecap="round" d="M 57.5007 170.5133 C 56.9866 170.6539 57.6005 171.5675 57.7745 172.0879 C 58.4659 174.1581 58.6666 176.4033 60.0166 177.9841 C 61.5007 179.8479 63.73 181.121 65.8743 181.9335 C 67.5856 182.5857 69.5547 182.8803 71.3469 182.5025 C 71.9085 182.383 71.2612 181.3685 71.1543 180.8124 C 70.7709 178.8221 70.9477 176.4274 69.6996 174.7793 C 68.1801 172.7656 65.7992 171.4743 63.414 170.7016 C 61.5739 169.9968 59.3982 169.9976 57.5007 170.5133 Z " stroke-width="0.5650606614218567"/>
  <g id="ID0.4154147864319384">
    <path id="ID0.7137846001423895" fill="#7AC36F" stroke="none" stroke-linecap="round" d="M 52.9377 142.4401 C 53.03 141.9151 53.9965 142.4419 54.5309 142.567 C 56.6562 143.0637 58.9102 143.0557 60.6093 144.2536 C 62.6025 145.5587 64.0764 147.6606 65.084 149.7205 C 65.8918 151.3641 66.3675 153.2975 66.1572 155.1169 C 66.0902 155.6871 65.0201 155.1366 64.4565 155.0817 C 62.4393 154.8841 60.0712 155.2819 58.3147 154.1916 C 56.1689 152.8651 54.6627 150.614 53.6726 148.3106 C 52.8004 146.5436 52.5998 144.3772 52.9377 142.4401 Z " stroke-width="0.5650606670290467"/>
    <path id="ID0.7137846001423895" fill="#7AC36F" stroke="none" stroke-linecap="round" d="M 62.0306 134.6161 C 62.3927 134.225 62.9194 135.1916 63.3005 135.5864 C 64.8171 137.156 66.7155 138.3713 67.4939 140.299 C 68.4612 142.4762 68.5602 145.0415 68.2901 147.3186 C 68.0779 149.1377 67.4295 151.0202 66.2665 152.435 C 65.901 152.8779 65.3003 151.8351 64.8565 151.4834 C 63.2685 150.2238 61.063 149.2743 60.178 147.4059 C 59.094 145.1279 59.0488 142.4198 59.4656 139.9474 C 59.6906 137.9899 60.6965 136.0607 62.0306 134.6161 Z " stroke-width="0.5650606437029003"/>
    <path id="ID0.7137846001423895" fill="#7AC36F" stroke="none" stroke-linecap="round" d="M 74.6551 138.5598 C 75.1836 138.4904 74.9712 139.5704 75.0121 140.1177 C 75.176 142.2941 75.86 144.4419 75.2271 146.4221 C 74.5801 148.715 73.0174 150.7517 71.3547 152.3309 C 70.0292 153.5947 68.3277 154.6286 66.529 154.9739 C 65.9649 155.0811 66.169 153.8951 66.0523 153.341 C 65.6355 151.3575 64.5455 149.2179 65.0584 147.2151 C 65.68 144.7702 67.3755 142.658 69.2757 141.0223 C 70.6995 139.6602 72.7059 138.8188 74.6551 138.5598 Z " stroke-width="0.5650606602739991"/>
    <path id="ID0.7137846001423895" fill="#7AC36F" stroke="none" stroke-linecap="round" d="M 82.8224 146.0613 C 83.2862 146.3239 82.4665 147.0585 82.1699 147.5202 C 80.9908 149.3569 80.2444 151.4838 78.5471 152.6843 C 76.6505 154.1261 74.1766 154.812 71.8983 155.0724 C 70.0792 155.2839 68.0981 155.0855 66.4538 154.2787 C 65.9388 154.0248 66.8156 153.2006 67.0559 152.6878 C 67.9169 150.8529 68.3341 148.4881 69.9492 147.1975 C 71.917 145.619 74.5423 144.9527 77.0443 144.7901 C 79.0012 144.5593 81.1099 145.0949 82.8224 146.0613 Z " stroke-width="0.5650606808144032"/>
  </g>
  <g id="ID0.4154147864319384">
    <path id="ID0.7137846001423895" fill="#7AC36F" stroke="none" stroke-linecap="round" d="M 112.1911 170.8243 C 112.4709 171.1194 111.7088 171.4723 111.3893 171.7429 C 110.1189 172.8195 109.0994 174.2045 107.5931 174.7012 C 105.8875 175.3295 103.9295 175.2774 102.2093 174.9586 C 100.8349 174.7066 99.434 174.1194 98.4146 173.1637 C 98.0956 172.8634 98.9193 172.4579 99.2091 172.1375 C 100.247 170.9911 101.0795 169.3592 102.546 168.7783 C 104.3341 168.0662 106.3981 168.1664 108.2597 168.6065 C 109.7389 168.8751 111.1576 169.7368 112.1911 170.8243 Z " stroke-width="0.43111201153624257"/>
    <path id="ID0.7137846001423895" fill="#7AC36F" stroke="none" stroke-linecap="round" d="M 112.7736 179.9781 C 112.8486 180.3778 112.017 180.2612 111.6018 180.3154 C 109.9507 180.5313 108.3431 181.1424 106.8081 180.7432 C 105.0342 180.3464 103.4172 179.2413 102.1445 178.0408 C 101.1263 177.084 100.2674 175.8311 99.9289 174.4753 C 99.8237 174.0501 100.7357 174.1559 101.1529 174.0438 C 102.6465 173.6431 104.2308 172.7231 105.778 173.03 C 107.6665 173.4011 109.3467 174.6042 110.6723 175.9832 C 111.7696 177.0109 112.4947 178.5041 112.7736 179.9781 Z " stroke-width="0.43111200182981696"/>
    <path id="ID0.7137846001423895" fill="#7AC36F" stroke="none" stroke-linecap="round" d="M 104.6412 185.9273 C 104.4436 186.2827 103.8783 185.6617 103.5243 185.4381 C 102.1162 184.5493 100.4891 183.9923 99.5633 182.7044 C 98.4522 181.2659 97.9144 179.3826 97.7023 177.6459 C 97.5303 176.2593 97.6701 174.7467 98.2759 173.4875 C 98.4667 173.0931 99.1006 173.7572 99.4932 173.9375 C 100.8982 174.5836 102.7048 174.8881 103.6989 176.1127 C 104.9147 177.6048 105.4385 179.6037 105.5772 181.5116 C 105.7648 183.0032 105.3685 184.6151 104.6412 185.9273 Z " stroke-width="0.4311120071419052"/>
    <path id="ID0.7137846001423895" fill="#7AC36F" stroke="none" stroke-linecap="round" d="M 96.3111 187.5313 C 95.9394 187.6962 95.8617 186.86 95.7136 186.4683 C 95.124 184.911 94.1599 183.487 94.1956 181.9013 C 94.1741 180.0837 94.8781 178.256 95.754 176.7415 C 96.4512 175.5306 97.4732 174.4068 98.7149 173.7658 C 99.1045 173.5657 99.2111 174.4776 99.4161 174.8579 C 100.1493 176.2194 101.4088 177.5499 101.4657 179.1262 C 101.5385 181.0495 100.7537 182.9611 99.7162 184.5682 C 98.9683 185.8723 97.6817 186.9211 96.3111 187.5313 Z " stroke-width="0.4311120200383013"/>
  </g>
  <path id="ID0.7137846001423895" fill="#7AC36F" stroke="none" stroke-linecap="round" d="M 87.755 143.794 C 87.3312 143.9098 87.8372 144.6628 87.9807 145.0917 C 88.5505 146.7979 88.7158 148.6483 89.8285 149.9512 C 91.0516 151.4873 92.889 152.5365 94.6563 153.2062 C 96.0667 153.7437 97.6896 153.9865 99.1667 153.6752 C 99.6295 153.5766 99.096 152.7405 99.008 152.2822 C 98.6919 150.6419 98.8377 148.6682 97.809 147.3099 C 96.5567 145.6502 94.5944 144.5859 92.6286 143.9491 C 91.112 143.3682 89.3189 143.3689 87.755 143.794 Z " stroke-width="0.46570934082037296"/>
  <g id="ID0.7243137410841882">
    <path id="ID0.7137846001423895" fill="#7AC36F" stroke="none" stroke-linecap="round" d="M 110.4114 143.1898 C 109.8787 143.172 110.2648 142.1412 110.3139 141.5946 C 110.508 139.4207 110.1842 137.19 111.1323 135.3398 C 112.1453 133.1835 114.02 131.4296 115.9185 130.1434 C 117.4327 129.1133 119.2804 128.3715 121.1113 128.3248 C 121.6853 128.3113 121.2901 129.4479 121.3146 130.0136 C 121.4016 132.0387 122.1272 134.3277 121.2938 136.2196 C 120.281 138.5301 118.2631 140.3367 116.121 141.6398 C 114.4937 142.7509 112.3768 143.253 110.4114 143.1898 Z " stroke-width="0.5650607242814638"/>
    <path id="ID0.7137846001423895" fill="#7AC36F" stroke="none" stroke-linecap="round" d="M 101.4121 135.2117 C 100.9742 134.9079 101.8574 134.251 102.195 133.8183 C 103.5366 132.0968 104.4739 130.0468 106.2736 129.0062 C 108.2938 127.7434 110.8199 127.2859 113.1125 127.2344 C 114.9433 127.1897 116.8981 127.568 118.4619 128.5213 C 118.9516 128.8212 118.0033 129.562 117.7172 130.0507 C 116.6925 131.7995 116.0613 134.1163 114.3353 135.2543 C 112.2317 136.6467 109.5566 137.0708 107.0502 137.0045 C 105.0804 137.0559 103.0293 136.3302 101.4121 135.2117 Z " stroke-width="0.5650607002719438"/>
    <path id="ID0.7137846001423895" fill="#7AC36F" stroke="none" stroke-linecap="round" d="M 103.5146 122.1054 C 103.3718 121.5919 104.471 121.6509 105.0071 121.5337 C 107.1391 121.0666 109.1699 120.0884 111.2193 120.4377 C 113.5802 120.757 115.8158 122.0191 117.6123 123.4441 C 119.0493 124.5795 120.3114 126.1194 120.9053 127.852 C 121.0904 128.3955 119.8875 128.3595 119.3553 128.5527 C 117.4496 129.2433 115.4838 130.6223 113.429 130.395 C 110.9211 130.1221 108.5922 128.7392 106.7064 127.0869 C 105.1583 125.8679 104.0441 123.9992 103.5146 122.1054 Z " stroke-width="0.5650606504283708"/>
  </g>
  <path id="ID0.7137846001423895" fill="#7AC36F" stroke="none" stroke-linecap="round" d="M 123.0007 102.2633 C 122.4866 102.4039 123.1005 103.3175 123.2745 103.8379 C 123.9659 105.9081 124.1666 108.1533 125.5166 109.7341 C 127.0007 111.5979 129.23 112.871 131.3743 113.6835 C 133.0856 114.3357 135.0547 114.6303 136.8469 114.2525 C 137.4085 114.133 136.7612 113.1185 136.6543 112.5624 C 136.2709 110.5721 136.4477 108.1774 135.1996 106.5293 C 133.6801 104.5156 131.2992 103.2243 128.914 102.4516 C 127.0739 101.7468 124.8982 101.7476 123.0007 102.2633 Z " stroke-width="0.5650606614218567"/>
  <path id="ID0.7137846001423895" fill="#7AC36F" stroke="none" stroke-linecap="round" d="M 123.2169 160.2823 C 123.2537 160.9214 124.4803 160.428 125.1352 160.3533 C 127.7399 160.0574 130.4277 160.3816 132.6219 159.1898 C 135.1818 157.9111 137.2335 155.6094 138.723 153.2926 C 139.9161 151.4447 140.7535 149.2047 140.7566 147.0048 C 140.7562 146.3152 139.4029 146.8227 138.7229 146.8095 C 136.2888 146.7636 133.5194 145.9585 131.2717 147.0139 C 128.5268 148.2968 126.4157 150.7721 124.913 153.3817 C 123.6259 155.3679 123.0842 157.9243 123.2169 160.2823 Z " stroke-width="0.6786869976426962"/>
  <path id="ID0.7137846001423895" fill="#7AC36F" stroke="none" stroke-linecap="round" d="M 136.4049 142.8937 C 136.4306 143.3642 137.3344 143.0038 137.8166 142.9504 C 139.7342 142.7385 141.7117 142.9833 143.3293 142.1111 C 145.2162 141.1759 146.7315 139.4866 147.8331 137.785 C 148.7154 136.4276 149.3368 134.781 149.3442 133.1619 C 149.3455 132.6544 148.3483 133.0248 147.8478 133.0135 C 146.0565 132.9741 144.0201 132.3753 142.3635 133.1469 C 140.3403 134.0848 138.781 135.9017 137.669 137.8189 C 136.7172 139.2777 136.3127 141.1579 136.4049 142.8937 Z " stroke-width="0.4995011403750269"/>
  <path id="ID0.7137846001423895" fill="#7AC36F" stroke="none" stroke-linecap="round" d="M 34.0174 110.5388 C 34.3177 110.9792 33.2579 111.2765 32.7879 111.5599 C 30.9192 112.6874 29.3105 114.2664 27.2576 114.5943 C 24.9193 115.0507 22.3967 114.5742 20.2375 113.8021 C 18.5119 113.1889 16.8218 112.1363 15.7025 110.6865 C 15.3526 110.2313 16.5032 109.8788 16.9451 109.5248 C 18.5277 108.2584 19.946 106.3207 21.9649 105.8756 C 24.4274 105.3279 27.0772 105.8889 29.3939 106.8475 C 31.2518 107.5042 32.9074 108.9157 34.0174 110.5388 Z " stroke-width="0.5650606899730315"/>
  <path id="ID0.7137846001423895" fill="#7AC36F" stroke="none" stroke-linecap="round" d="M 33.7362 137.4241 C 33.5679 137.7009 33.1371 137.1891 32.8623 137.0002 C 31.7689 136.2493 30.491 135.7557 29.7939 134.702 C 28.954 133.5226 28.584 132.0069 28.4689 130.6181 C 28.3748 129.5091 28.5328 128.3094 29.0539 127.3259 C 29.2179 127.0179 29.702 127.566 30.009 127.7217 C 31.1073 128.2794 32.5359 128.5775 33.2893 129.583 C 34.2109 130.8081 34.5661 132.4154 34.6176 133.9383 C 34.7208 135.1314 34.3556 136.4022 33.7362 137.4241 Z " stroke-width="0.34340702810353824"/>
  <path id="ID0.7137846001423895" fill="#7AC36F" stroke="none" stroke-linecap="round" d="M 13.0761 148.2598 C 12.8179 148.5384 12.4428 147.8494 12.1712 147.568 C 11.0906 146.449 9.7378 145.5826 9.1834 144.2085 C 8.4944 142.6566 8.4243 140.8283 8.6173 139.2054 C 8.7688 137.909 9.2313 136.5674 10.0605 135.5593 C 10.3211 135.2437 10.749 135.987 11.0652 136.2378 C 12.1967 137.1358 13.7685 137.8129 14.3988 139.1447 C 15.171 140.7684 15.2027 142.6986 14.9052 144.4606 C 14.7444 145.8557 14.0272 147.2304 13.0761 148.2598 Z " stroke-width="0.40272279821451695"/>
  <path id="ID0.7137846001423895" fill="#7AC36F" stroke="none" stroke-linecap="round" d="M 46.2484 177.9957 C 46.2695 178.3839 47.0153 178.0866 47.4132 178.0425 C 48.9956 177.8677 50.6273 178.0697 51.962 177.35 C 53.5191 176.5783 54.7694 175.1844 55.6784 173.7802 C 56.4064 172.6602 56.9192 171.3015 56.9253 169.9655 C 56.9263 169.5467 56.1035 169.8523 55.6905 169.843 C 54.2124 169.8106 52.5321 169.3164 51.1651 169.9531 C 49.4957 170.727 48.209 172.2262 47.2915 173.8082 C 46.5061 175.012 46.1723 176.5634 46.2484 177.9957 Z " stroke-width="0.4121650388568568"/>
  <path id="ID0.7137846001423895" fill="#7AC36F" stroke="none" stroke-linecap="round" d="M 92.4308 108.3388 C 92.1999 108.7495 93.156 108.9305 93.5915 109.1441 C 95.3234 109.9944 96.8607 111.2621 98.6936 111.3941 C 100.7878 111.6175 102.9729 111.0052 104.8156 110.1604 C 106.2885 109.4886 107.6965 108.4325 108.5715 107.0703 C 108.8449 106.6427 107.8047 106.4201 107.3885 106.1421 C 105.8981 105.1476 104.501 103.5495 102.689 103.3116 C 100.4786 103.0174 98.1878 103.7138 96.2207 104.7349 C 94.6347 105.4551 93.2844 106.8246 92.4308 108.3388 Z " stroke-width="0.4995011292391441"/>
  <path id="ID0.7137846001423895" fill="#7AC36F" stroke="none" stroke-linecap="round" d="M 87.0569 89.0111 C 86.9063 88.7531 86.5006 89.2178 86.2441 89.3874 C 85.2234 90.0615 84.0369 90.4953 83.3766 91.4552 C 82.5825 92.5286 82.2161 93.92 82.0868 95.1986 C 81.9816 96.2195 82.1072 97.3283 82.5713 98.2439 C 82.7174 98.5306 83.1729 98.0332 83.4585 97.8948 C 84.4805 97.399 85.8026 97.1479 86.5141 96.2334 C 87.3843 95.1191 87.7386 93.6431 87.8114 92.2398 C 87.9265 91.1415 87.6109 89.9637 87.0569 89.0111 Z " stroke-width="0.3166823454688454"/>
  <g id="ID0.6369820171967149">
    <path id="ID0.7137846001423895" fill="#7AC36F" stroke="none" stroke-linecap="round" d="M 61.2557 123.2823 C 61.7011 123.575 60.8345 124.2537 60.5079 124.6948 C 59.2097 126.4492 58.3239 128.522 56.5508 129.6073 C 54.5628 130.9202 52.0489 131.4407 49.7584 131.5495 C 47.9292 131.6399 45.9656 131.3106 44.3784 130.3966 C 43.8814 130.1091 44.8109 129.3448 45.0847 128.8491 C 46.0654 127.0753 46.6385 124.7434 48.3355 123.5626 C 50.4037 122.1181 53.0673 121.6272 55.5746 121.6309 C 57.5425 121.5303 59.611 122.2045 61.2557 123.2823 Z " stroke-width="0.5650606855074223"/>
    <path id="ID0.7137846001423895" fill="#7AC36F" stroke="none" stroke-linecap="round" d="M 66.9027 135.2236 C 67.0925 135.7217 65.9926 135.7648 65.4696 135.9312 C 63.3901 136.5938 61.4586 137.7559 59.3857 137.5981 C 57.0054 137.4989 54.6625 136.4494 52.7416 135.197 C 51.2056 134.1996 49.8063 132.7832 49.0544 131.1132 C 48.8197 130.5891 50.0207 130.5135 50.5328 130.2718 C 52.3662 129.4076 54.1958 127.8524 56.2629 127.8884 C 58.7853 127.9277 61.2323 129.0889 63.263 130.5593 C 64.9175 131.6296 66.2 133.3871 66.9027 135.2236 Z " stroke-width="0.5650606424936445"/>
    <path id="ID0.7137846001423895" fill="#7AC36F" stroke="none" stroke-linecap="round" d="M 53.885 145.4061 C 53.6081 145.8615 52.8993 145.0194 52.447 144.7085 C 50.6479 143.4729 48.5452 142.6607 47.3981 140.9269 C 46.016 138.9863 45.4074 136.4923 45.2179 134.2071 C 45.0631 132.3822 45.3231 130.4082 46.1806 128.7898 C 46.4504 128.283 47.247 129.185 47.752 129.4411 C 49.5593 130.3588 51.9099 130.8494 53.1497 132.5038 C 54.6662 134.5198 55.2506 137.1645 55.3353 139.6703 C 55.5051 141.6334 54.9042 143.7245 53.885 145.4061 Z " stroke-width="0.5650606619060554"/>
    <path id="ID0.7137846001423895" fill="#7AC36F" stroke="none" stroke-linecap="round" d="M 41.995 144.473 C 41.5478 144.763 41.2751 143.6966 41.0027 143.2202 C 39.9187 141.3258 38.3775 139.681 38.0972 137.6211 C 37.695 135.2728 38.2299 132.762 39.0517 130.6212 C 39.7048 128.9102 40.7963 127.245 42.2715 126.1596 C 42.7347 125.8203 43.0605 126.9787 43.4042 127.4288 C 44.6336 129.0402 46.5379 130.503 46.9362 132.5317 C 47.4266 135.0062 46.8044 137.6423 45.7924 139.9363 C 45.0928 141.7784 43.6434 143.4009 41.995 144.473 Z " stroke-width="0.5650607229800891"/>
  </g>
  <path id="ID0.7137846001423895" fill="#7AC36F" stroke="none" stroke-linecap="round" d="M 47.6589 111.8552 C 47.6217 112.1122 47.1432 111.87 46.8812 111.817 C 45.8388 111.6065 44.7412 111.6438 43.896 111.0855 C 42.9061 110.4794 42.1572 109.4776 41.636 108.4894 C 41.2183 107.7009 40.958 106.7664 41.0335 105.8772 C 41.0577 105.5985 41.587 105.8508 41.8623 105.8692 C 42.8476 105.9356 43.9949 105.7068 44.8665 106.2118 C 45.9311 106.826 46.6979 107.9 47.2142 109.0072 C 47.665 109.8548 47.7948 110.9068 47.6589 111.8552 Z " stroke-width="0.27530911573434397"/>
  <path id="ID0.7137846001423895" fill="#7AC36F" stroke="none" stroke-linecap="round" d="M 43.552 116.8221 C 43.3714 117.0087 43.1252 116.5322 42.9438 116.3358 C 42.2218 115.5551 41.3101 114.9428 40.9516 113.9955 C 40.5037 112.9246 40.4828 111.674 40.6388 110.5677 C 40.7616 109.6839 41.0976 108.7739 41.6792 108.0971 C 41.862 107.8853 42.1434 108.3997 42.3558 108.5757 C 43.1159 109.2062 44.1801 109.6924 44.5911 110.6119 C 45.0948 111.7331 45.0879 113.0527 44.8584 114.2526 C 44.7279 115.2037 44.2173 116.1327 43.552 116.8221 Z " stroke-width="0.27530910600077246"/>
  <path id="ID0.7137846001423895" fill="#7AC36F" stroke="none" stroke-linecap="round" d="M 36.3337 113.2073 C 36.0755 113.1792 36.3007 112.6924 36.3445 112.4287 C 36.5181 111.3795 36.4422 110.2839 36.9703 109.4196 C 37.5412 108.4089 38.516 107.6252 39.4853 107.0696 C 40.2586 106.6243 41.1833 106.3313 42.0746 106.3754 C 42.354 106.3898 42.1205 106.9276 42.1118 107.2034 C 42.0802 108.1904 42.3492 109.329 41.8752 110.2178 C 41.2989 111.3034 40.2525 112.1075 39.1643 112.6625 C 38.3331 113.1429 37.2862 113.3097 36.3337 113.2073 Z " stroke-width="0.27530911246309564"/>
  <path id="ID0.7137846001423895" fill="#7AC36F" stroke="none" stroke-linecap="round" d="M 37.4567 105.447 C 37.3162 105.2286 37.8362 105.0976 38.0688 104.9657 C 38.9936 104.4408 39.7977 103.6927 40.8018 103.5597 C 41.9466 103.3679 43.169 103.6328 44.2106 104.0369 C 45.0431 104.3581 45.8525 104.8928 46.3788 105.6134 C 46.5433 105.8397 45.9783 105.9964 45.7585 106.1631 C 44.9712 106.7593 44.2552 107.6845 43.2661 107.8751 C 42.0597 108.1097 40.7764 107.802 39.6605 107.305 C 38.7642 106.961 37.9762 106.252 37.4567 105.447 Z " stroke-width="0.2753091291410394"/>
  <path id="ID0.7137846001423895" fill="#7AC36F" stroke="none" stroke-linecap="round" d="M 128.0069 188.7111 C 127.8563 188.4531 127.4506 188.9178 127.1941 189.0874 C 126.1734 189.7615 124.9869 190.1953 124.3266 191.1552 C 123.5325 192.2286 123.1661 193.62 123.0368 194.8986 C 122.9316 195.9195 123.0572 197.0283 123.5213 197.9439 C 123.6674 198.2306 124.1229 197.7332 124.4085 197.5948 C 125.4305 197.099 126.7526 196.8479 127.4641 195.9334 C 128.3343 194.8191 128.6886 193.3431 128.7614 191.9398 C 128.8765 190.8415 128.5609 189.6637 128.0069 188.7111 Z " stroke-width="0.3166823454688454"/>
  <path id="ID0.7137846001423895" fill="#7AC36F" stroke="none" stroke-linecap="round" d="M 34.2007 207.3133 C 33.6866 207.4539 34.3005 208.3675 34.4745 208.8879 C 35.1659 210.9581 35.3666 213.2033 36.7166 214.7841 C 38.2007 216.6479 40.43 217.921 42.5743 218.7335 C 44.2856 219.3857 46.2547 219.6803 48.0469 219.3025 C 48.6085 219.183 47.9612 218.1685 47.8543 217.6124 C 47.4709 215.6221 47.6477 213.2274 46.3996 211.5793 C 44.8801 209.5656 42.4992 208.2743 40.114 207.5016 C 38.2739 206.7968 36.0982 206.7976 34.2007 207.3133 Z " stroke-width="0.5650606614218567"/>
  <g id="ID0.8383978735655546">
    <path id="ID0.7137846001423895" fill="#7AC36F" stroke="none" stroke-linecap="round" d="M 64.0047 196.9428 C 64.3995 197.3008 64.84 196.2921 65.1853 195.8655 C 66.5595 194.1698 68.3449 192.7939 68.9524 190.8058 C 69.7264 188.5526 69.6017 185.9884 69.1344 183.7434 C 68.7645 181.9498 67.9547 180.1309 66.6728 178.8227 C 66.2702 178.4134 65.7626 179.5044 65.3511 179.8934 C 63.8788 181.2865 61.7643 182.4245 61.0454 184.3629 C 60.164 186.7266 60.3547 189.4284 60.9852 191.855 C 61.3798 193.7856 62.5499 195.6198 64.0047 196.9428 Z " stroke-width="0.565060681458096"/>
    <path id="ID0.7137846001423895" fill="#7AC36F" stroke="none" stroke-linecap="round" d="M 76.2894 191.9211 C 76.8219 191.9442 76.5163 190.8868 76.5094 190.3381 C 76.4831 188.1557 76.9775 185.9565 76.1746 184.0389 C 75.3304 181.811 73.5962 179.9181 71.8024 178.4897 C 70.3719 177.3461 68.5867 176.4643 66.7648 176.2769 C 66.1936 176.2193 66.5002 177.383 66.4322 177.9451 C 66.1896 179.9575 65.2901 182.1839 65.9755 184.1343 C 66.8076 186.5159 68.6805 188.4724 70.716 189.9364 C 72.253 191.1694 74.3251 191.8329 76.2894 191.9211 Z " stroke-width="0.5650606640448109"/>
    <g id="ID0.7243137410841882">
      <path id="ID0.7137846001423895" fill="#7AC36F" stroke="none" stroke-linecap="round" d="M 80.5065 198.7855 C 79.9834 198.8875 80.1285 197.7964 80.0537 197.2527 C 79.7554 195.0906 78.9396 192.9894 79.4486 190.9737 C 79.9522 188.6451 81.3858 186.5155 82.9474 184.8363 C 84.1921 183.4929 85.8263 182.3555 87.6001 181.8994 C 88.1565 181.7575 88.0262 182.9538 88.1771 183.4997 C 88.716 185.4536 89.9365 187.5216 89.5485 189.5522 C 89.0797 192.031 87.5183 194.2442 85.7231 195.9944 C 84.3864 197.4422 82.436 198.4063 80.5065 198.7855 Z " stroke-width="0.5650607129281804"/>
      <path id="ID0.7137846001423895" fill="#7AC36F" stroke="none" stroke-linecap="round" d="M 69.9416 193.0556 C 69.4467 192.8577 70.1601 192.0196 70.392 191.5221 C 71.3135 189.5436 71.7671 187.3357 73.2876 185.9179 C 74.9732 184.2342 77.3323 183.2219 79.5549 182.6575 C 81.3291 182.2033 83.3189 182.1336 85.0567 182.7119 C 85.6011 182.8943 84.8431 183.829 84.674 184.3694 C 84.0675 186.3034 83.972 188.7028 82.5452 190.1989 C 80.8074 192.0276 78.2956 193.0408 75.8382 193.5383 C 73.9301 194.0302 71.7685 193.783 69.9416 193.0556 Z " stroke-width="0.5650606785761705"/>
      <path id="ID0.7137846001423895" fill="#7AC36F" stroke="none" stroke-linecap="round" d="M 69.0615 179.8101 C 68.8072 179.3417 69.8915 179.1528 70.3877 178.9183 C 72.3607 177.9849 74.1203 176.5762 76.1958 176.457 C 78.5682 176.2387 81.0299 176.9672 83.1003 177.9531 C 84.7553 178.7373 86.3306 179.955 87.2979 181.5102 C 87.6002 181.9983 86.4199 182.233 85.9445 182.5407 C 84.2423 183.641 82.6358 185.4258 80.5823 185.6651 C 78.0771 185.9616 75.4974 185.1362 73.2892 183.9489 C 71.507 183.1082 70.0021 181.5369 69.0615 179.8101 Z " stroke-width="0.565060675243248"/>
    </g>
    <g id="ID0.4154147864319384">
      <path id="ID0.7137846001423895" fill="#7AC36F" stroke="none" stroke-linecap="round" d="M 64.8883 162.2683 C 65.1733 161.8179 65.8669 162.6726 66.3135 162.9915 C 68.0902 164.2591 70.178 165.1088 71.2939 166.8629 C 72.6411 168.8279 73.205 171.3323 73.3535 173.6207 C 73.4756 175.448 73.1804 177.417 72.294 179.0198 C 72.0152 179.5217 71.2349 178.6055 70.7345 178.3404 C 68.9439 177.3906 66.6025 176.858 65.3925 175.1817 C 63.9124 173.1389 63.3754 170.4841 63.3356 167.9772 C 63.2009 166.0113 63.8392 163.9314 64.8883 162.2683 Z " stroke-width="0.565060668858042"/>
      <path id="ID0.7137846001423895" fill="#7AC36F" stroke="none" stroke-linecap="round" d="M 76.2919 158.5533 C 76.7755 158.3293 76.895 159.4235 77.0974 159.9337 C 77.9032 161.9621 79.1969 163.8079 79.1837 165.8868 C 79.2504 168.2683 78.3665 170.6785 77.2507 172.6819 C 76.3627 174.2836 75.0472 175.7781 73.4335 176.6444 C 72.927 176.9149 72.768 175.7221 72.4913 175.2281 C 71.5016 173.4592 69.8228 171.7423 69.7149 169.6777 C 69.5786 167.1588 70.5666 164.6368 71.8922 162.5087 C 72.8447 160.7838 74.5087 159.382 76.2919 158.5533 Z " stroke-width="0.5650606258430418"/>
      <path id="ID0.7137846001423895" fill="#7AC36F" stroke="none" stroke-linecap="round" d="M 86.4467 166.9616 C 86.9619 167.0984 86.3547 168.0165 86.1845 168.5382 C 85.5084 170.6134 85.3243 172.86 83.9859 174.4507 C 82.5156 176.3254 80.2958 177.6148 78.1575 178.4431 C 76.451 179.1079 74.4841 179.4171 72.6892 179.0525 C 72.1268 178.937 72.7666 177.9178 72.8693 177.361 C 73.2381 175.3679 73.0436 172.9745 74.2796 171.3173 C 75.7842 169.2924 78.1555 167.9836 80.535 167.1934 C 82.3698 166.4751 84.5455 166.4599 86.4467 166.9616 Z " stroke-width="0.5650606464921404"/>
      <path id="ID0.7137846001423895" fill="#7AC36F" stroke="none" stroke-linecap="round" d="M 91.1596 176.9955 C 91.4887 177.4147 90.4512 177.7825 90.0013 178.0967 C 88.2124 179.347 86.7132 181.0303 84.6869 181.4952 C 82.3845 182.1074 79.8357 181.8011 77.6295 181.1756 C 75.8666 180.6794 74.1098 179.7425 72.8958 178.3711 C 72.5161 177.9404 73.6405 177.5115 74.0577 177.1286 C 75.5517 175.7589 76.8369 173.7305 78.8214 173.151 C 81.2417 172.4395 83.9231 172.8215 86.2989 173.6225 C 88.1966 174.1532 89.9432 175.4505 91.1596 176.9955 Z " stroke-width="0.5650606864500404"/>
    </g>
    <path id="ID0.7137846001423895" fill="#7AC36F" stroke="none" stroke-linecap="round" d="M 78.4432 164.778 C 78.2281 165.2656 79.3243 165.3651 79.838 165.5582 C 81.8808 166.3267 83.75 167.5865 85.8283 167.5353 C 88.2106 167.5585 90.6043 166.6307 92.5869 165.4786 C 94.1721 164.5614 95.6423 163.2188 96.479 161.5895 C 96.7403 161.0783 95.5448 160.9411 95.0458 160.6734 C 93.2591 159.7162 91.5118 158.0691 89.4456 157.9988 C 86.9246 157.9086 84.4211 158.9425 82.3176 160.3068 C 80.6103 161.2907 79.2392 162.9799 78.4432 164.778 Z " stroke-width="0.5650606598441341"/>
  </g>
  <g id="ID0.8383978735655546">
    <path id="ID0.7137846001423895" fill="#7AC36F" stroke="none" stroke-linecap="round" d="M 82.983 40.4078 C 83.2326 40.8787 83.9897 40.0797 84.4595 39.796 C 86.3281 38.6683 88.4749 37.9812 89.722 36.3178 C 91.2158 34.4619 91.9701 32.008 92.2936 29.7379 C 92.5555 27.9253 92.4121 25.9394 91.6512 24.2734 C 91.4117 23.7516 90.5635 24.6052 90.0442 24.8312 C 88.1861 25.6409 85.8107 25.9924 84.4758 27.571 C 82.8434 29.4944 82.1044 32.1002 81.8725 34.5966 C 81.5875 36.5464 82.0644 38.6691 82.983 40.4078 Z " stroke-width="0.5650607160241989"/>
    <path id="ID0.7137846001423895" fill="#7AC36F" stroke="none" stroke-linecap="round" d="M 96.2263 39.9026 C 96.7192 40.1054 96.7911 39.007 96.9712 38.4886 C 97.6883 36.4272 98.9007 34.527 98.7974 32.4506 C 98.7608 30.0685 97.7732 27.6988 96.5717 25.7457 C 95.615 24.184 94.2359 22.748 92.5862 21.9525 C 92.0685 21.7041 91.9613 22.9027 91.7063 23.4083 C 90.7942 25.2184 89.1915 27.0065 89.1731 29.0738 C 89.1462 31.5963 90.2426 34.073 91.6592 36.1417 C 92.6857 37.8237 94.4088 39.1519 96.2263 39.9026 Z " stroke-width="0.5650606927389163"/>
    <g id="ID0.7243137410841882">
      <path id="ID0.7137846001423895" fill="#7AC36F" stroke="none" stroke-linecap="round" d="M 97.8487 47.785 C 97.322 47.7031 97.8294 46.7263 97.9438 46.1896 C 98.3981 44.0548 98.3451 41.8013 99.509 40.0787 C 100.7741 38.0599 102.8462 36.5444 104.8856 35.496 C 106.5127 34.6556 108.4363 34.1414 110.2595 34.3154 C 110.831 34.371 110.3018 35.4518 110.2582 36.0164 C 110.1009 38.0372 110.5458 40.3969 109.4907 42.1748 C 108.2073 44.3466 105.9866 45.8973 103.7034 46.9332 C 101.9542 47.8404 99.7922 48.0841 97.8487 47.785 Z " stroke-width="0.5650607133192206"/>
      <path id="ID0.7137846001423895" fill="#7AC36F" stroke="none" stroke-linecap="round" d="M 89.8972 38.7956 C 89.499 38.4413 90.4549 37.8955 90.842 37.5065 C 92.3811 35.959 93.5582 34.0367 95.4701 33.2201 C 97.6276 32.2096 100.1904 32.0594 102.4724 32.2841 C 104.2954 32.46 106.1904 33.0708 107.6282 34.2054 C 108.0782 34.562 107.0476 35.1833 106.7049 35.634 C 105.4772 37.2468 104.5718 39.4708 102.7214 40.3929 C 100.4655 41.522 97.7588 41.6212 95.2786 41.2538 C 93.3169 41.0678 91.3681 40.1006 89.8972 38.7956 Z " stroke-width="0.565060679743793"/>
      <path id="ID0.7137846001423895" fill="#7AC36F" stroke="none" stroke-linecap="round" d="M 93.5619 26.0608 C 93.4819 25.5338 94.566 25.7247 95.1123 25.6728 C 97.285 25.4656 99.4188 24.7389 101.4112 25.3322 C 103.7166 25.9333 105.784 27.4552 107.396 29.0861 C 108.686 30.3861 109.7536 32.0667 110.1347 33.8581 C 110.2531 34.42 109.0633 34.2395 108.5116 34.3673 C 106.5368 34.8235 104.4193 35.956 102.4067 35.483 C 99.9499 34.9104 97.8043 33.2573 96.1311 31.3901 C 94.7409 29.9937 93.8596 28.0045 93.5619 26.0608 Z " stroke-width="0.5650606995789317"/>
    </g>
    <g id="ID0.4154147864319384">
      <path id="ID0.7137846001423895" fill="#7AC36F" stroke="none" stroke-linecap="round" d="M 95.5774 8.1816 C 95.9985 7.8549 96.3603 8.8944 96.672 9.3462 C 97.912 11.1422 99.5867 12.651 100.04 14.6799 C 100.639 16.9858 100.3181 19.5329 99.68 21.7354 C 99.1737 23.4954 98.2268 25.2469 96.8484 26.453 C 96.4156 26.8302 95.9931 25.7034 95.6127 25.284 C 94.2515 23.7821 92.2305 22.4854 91.6624 20.4976 C 90.9647 18.0733 91.3621 15.394 92.1767 13.0229 C 92.7182 11.1282 94.0255 9.3891 95.5774 8.1816 Z " stroke-width="0.5650606917769004"/>
      <path id="ID0.7137846001423895" fill="#7AC36F" stroke="none" stroke-linecap="round" d="M 107.5799 8.5393 C 108.1109 8.493 107.8513 9.5627 107.8683 10.1113 C 107.9366 12.2928 108.5259 14.4685 107.8069 16.4191 C 107.0601 18.6814 105.4097 20.6477 103.6794 22.1526 C 102.2998 23.3571 100.5546 24.3154 98.7425 24.5817 C 98.1743 24.664 98.4302 23.4881 98.3379 22.9295 C 98.0083 20.9295 97.0131 18.7442 97.6133 16.7659 C 98.3413 14.3505 100.1277 12.3146 102.0977 10.7637 C 103.5799 9.4653 105.6212 8.7126 107.5799 8.5393 Z " stroke-width="0.5650606306540694"/>
      <path id="ID0.7137846001423895" fill="#7AC36F" stroke="none" stroke-linecap="round" d="M 114.2676 19.9158 C 114.7056 20.2195 113.8225 20.8766 113.4851 21.3094 C 112.1438 23.0312 111.2071 25.0814 109.4077 26.1226 C 107.3878 27.3859 104.8618 27.844 102.5693 27.8962 C 100.7384 27.9414 98.7836 27.5636 97.2195 26.6106 C 96.7297 26.3109 97.6779 25.5698 97.9638 25.081 C 98.988 23.332 99.6186 21.015 101.3444 19.8766 C 103.4476 18.4836 106.1226 18.0588 108.629 18.1244 C 110.5988 18.0725 112.65 18.7977 114.2676 19.9158 Z " stroke-width="0.5650606580107917"/>
      <path id="ID0.7137846001423895" fill="#7AC36F" stroke="none" stroke-linecap="round" d="M 115.2605 30.9084 C 115.4275 31.4146 114.3268 31.4078 113.7969 31.5504 C 111.6895 32.1182 109.7074 33.1917 107.6438 32.9402 C 105.2704 32.7333 102.9774 31.5789 101.1152 30.2408 C 99.6259 29.1749 98.2921 27.6967 97.6166 25.9943 C 97.4059 25.4602 98.609 25.439 99.1316 25.2207 C 101.0022 24.4404 102.9003 22.9696 104.9637 23.0991 C 107.4817 23.2526 109.8736 24.5233 111.8357 26.0842 C 113.44 27.2282 114.6417 29.0419 115.2605 30.9084 Z " stroke-width="0.5650606724183812"/>
    </g>
    <path id="ID0.7137846001423895" fill="#7AC36F" stroke="none" stroke-linecap="round" d="M 107.4912 15.1602 C 107.1231 15.5457 108.1203 16.0119 108.5378 16.3681 C 110.1977 17.7852 111.5274 19.6053 113.4994 20.2636 C 115.732 21.0951 118.2985 21.0362 120.5547 20.6265 C 122.3572 20.3028 124.1963 19.5398 125.537 18.292 C 125.9564 17.8999 124.8787 17.3645 124.5004 16.9432 C 123.1455 15.4357 122.0621 13.2927 120.1428 12.5244 C 117.8025 11.5826 115.0967 11.7041 112.6547 12.2721 C 110.7146 12.6171 108.851 13.7398 107.4912 15.1602 Z " stroke-width="0.565060684483526"/>
  </g>
  <g id="ID0.8383978735655546">
    <path id="ID0.7137846001423895" fill="#7AC36F" stroke="none" stroke-linecap="round" d="M 22.4426 88.5486 C 22.9714 88.6158 22.7543 87.5367 22.7929 86.9893 C 22.9474 84.8122 23.6222 82.6615 22.9809 80.684 C 22.3241 78.3938 20.7526 76.3638 19.0832 74.7918 C 17.7523 73.5337 16.0464 72.5071 14.2462 72.1695 C 13.6817 72.0648 13.8909 73.2498 13.7766 73.8044 C 13.3682 75.7897 12.2874 77.934 12.8089 79.9345 C 13.4409 82.3768 15.1454 84.4817 17.0526 86.1092 C 18.4823 87.4652 20.4923 88.298 22.4426 88.5486 Z " stroke-width="0.5650606734590194"/>
    <path id="ID0.7137846001423895" fill="#7AC36F" stroke="none" stroke-linecap="round" d="M 29.6344 77.4156 C 30.0841 77.1294 29.2277 76.438 28.9076 75.9921 C 27.6355 74.2186 26.7805 72.133 25.0237 71.0215 C 23.0553 69.6794 20.5494 69.1218 18.2607 68.979 C 16.4331 68.8615 14.4648 69.1618 12.8643 70.0522 C 12.3631 70.3323 13.2812 71.1103 13.5476 71.61 C 14.5019 73.3981 15.0404 75.7382 16.7198 76.944 C 18.7663 78.4189 21.4225 78.9492 23.9295 78.9827 C 25.8957 79.1124 27.974 78.4689 29.6344 77.4156 Z " stroke-width="0.5650606700705134"/>
    <g id="ID0.7243137410841882">
      <path id="ID0.7137846001423895" fill="#7AC36F" stroke="none" stroke-linecap="round" d="M 37.0513 80.6198 C 36.681 81.0032 36.1747 80.0258 35.8019 79.6231 C 34.3185 78.0221 32.4459 76.7675 31.708 74.8239 C 30.7865 72.6269 30.7411 70.0601 31.0587 67.7891 C 31.3089 65.9749 31.9966 64.1064 33.1889 62.7161 C 33.5636 62.2811 34.1423 63.3361 34.5787 63.697 C 36.14 64.9896 38.3252 65.985 39.1709 67.8715 C 40.207 70.1716 40.1956 72.8801 39.7272 75.3432 C 39.4613 77.2957 38.4153 79.2034 37.0513 80.6198 Z " stroke-width="0.5650606875617821"/>
      <path id="ID0.7137846001423895" fill="#7AC36F" stroke="none" stroke-linecap="round" d="M 25.1139 81.9879 C 24.5949 82.1094 24.6993 81.0136 24.6043 80.4731 C 24.2257 78.3236 23.3324 76.2541 23.766 74.221 C 24.1827 71.8752 25.536 69.6938 27.0342 67.9577 C 28.2279 66.5688 29.8187 65.3715 31.5744 64.8497 C 32.1251 64.6872 32.0394 65.8875 32.2104 66.4274 C 32.8217 68.3599 34.1182 70.381 33.8061 72.4247 C 33.4298 74.9192 31.9519 77.1889 30.223 79.0048 C 28.9411 80.5012 27.0279 81.5372 25.1139 81.9879 Z " stroke-width="0.5650606688061904"/>
      <path id="ID0.7137846001423895" fill="#7AC36F" stroke="none" stroke-linecap="round" d="M 16.8355 71.6504 C 16.3587 71.4123 17.1391 70.6361 17.4114 70.1596 C 18.4935 68.2641 19.1285 66.1013 20.7611 64.8143 C 22.5803 63.276 25.0152 62.4625 27.2769 62.0841 C 29.0826 61.7785 31.0713 61.8737 32.7553 62.594 C 33.2828 62.8209 32.4499 63.6895 32.2366 64.2141 C 31.4721 66.0913 31.1782 68.4745 29.6324 69.8472 C 27.7491 71.5257 25.162 72.3275 22.6719 72.6198 C 20.7296 72.952 18.5959 72.5266 16.8355 71.6504 Z " stroke-width="0.5650606542504746"/>
    </g>
    <g id="ID0.4154147864319384">
      <path id="ID0.7137846001423895" fill="#7AC36F" stroke="none" stroke-linecap="round" d="M 3.3666 59.6215 C 3.3421 59.089 4.4003 59.392 4.9491 59.3975 C 7.1315 59.4183 9.3295 58.9183 11.2491 59.7164 C 13.4791 60.5549 15.3764 62.2843 16.8093 64.0746 C 17.9564 65.5022 18.8427 67.2851 19.0348 69.1065 C 19.0938 69.6776 17.9294 69.3739 17.3674 69.4434 C 15.3557 69.691 13.1316 70.5962 11.1794 69.9157 C 8.7958 69.0896 6.8345 67.2216 5.3654 65.1899 C 4.1285 63.656 3.4598 61.5856 3.3666 59.6215 Z " stroke-width="0.5650606539516901"/>
      <path id="ID0.7137846001423895" fill="#7AC36F" stroke="none" stroke-linecap="round" d="M 10.5887 50.1169 C 10.8568 49.6562 11.5817 50.4845 12.0399 50.7866 C 13.8625 51.9873 15.9805 52.7587 17.1609 54.47 C 18.5802 56.3836 19.2369 58.8653 19.4704 61.1465 C 19.6604 62.968 19.4386 64.9467 18.6125 66.5813 C 18.3525 67.0932 17.5387 66.2068 17.0288 65.9605 C 15.2042 65.0779 12.8445 64.6328 11.573 63.0026 C 10.0179 61.0163 9.3825 58.3833 9.2495 55.8796 C 9.0417 53.9202 9.6022 51.8179 10.5887 50.1169 Z " stroke-width="0.5650605996326266"/>
      <path id="ID0.7137846001423895" fill="#7AC36F" stroke="none" stroke-linecap="round" d="M 23.7199 51.1872 C 24.2204 51.004 24.2489 52.1044 24.4083 52.6295 C 25.0434 54.7176 26.1798 56.6643 25.9944 58.7349 C 25.8637 61.1138 24.7833 63.4425 23.5054 65.3466 C 22.4878 66.8692 21.053 68.2497 19.3731 68.9794 C 18.846 69.2071 18.7863 68.0052 18.5515 67.4899 C 17.7117 65.6452 16.1808 63.7952 16.2442 61.7287 C 16.317 59.2071 17.5105 56.7757 19.0077 54.7646 C 20.0999 53.1245 21.8742 51.8654 23.7199 51.1872 Z " stroke-width="0.5650606233460538"/>
      <path id="ID0.7137846001423895" fill="#7AC36F" stroke="none" stroke-linecap="round" d="M 33.3067 56.7197 C 33.8167 56.8747 33.1772 57.7705 32.9884 58.2859 C 32.2388 60.3357 31.9747 62.5742 30.5805 64.1163 C 29.0443 65.9373 26.7799 67.1468 24.6134 67.8983 C 22.8843 68.5019 20.9077 68.7407 19.1269 68.3124 C 18.5689 68.177 19.2447 67.1812 19.3672 66.6284 C 19.8068 64.6497 19.6978 62.251 20.9921 60.6389 C 22.5679 58.6689 24.9843 57.4455 27.3905 56.7406 C 29.2498 56.0881 31.4245 56.1504 33.3067 56.7197 Z " stroke-width="0.5650606725690385"/>
    </g>
    <path id="ID0.7137846001423895" fill="#7AC36F" stroke="none" stroke-linecap="round" d="M 15.9125 53.9247 C 16.0157 54.4477 16.9711 53.9011 17.5027 53.7649 C 19.6173 53.2242 21.871 53.1856 23.5449 51.9528 C 25.5106 50.6067 26.9408 48.4747 27.9054 46.3944 C 28.679 44.7344 29.1146 42.7916 28.8667 40.9769 C 28.7879 40.4082 27.7295 40.9808 27.1671 41.0474 C 25.1544 41.2867 22.7786 40.938 21.045 42.0644 C 18.9272 43.435 17.4679 45.7169 16.5257 48.0403 C 15.6903 49.8249 15.5346 51.995 15.9125 53.9247 Z " stroke-width="0.56506064144174"/>
  </g>
  <g id="ID0.4154147864319384">
    <path id="ID0.7137846001423895" fill="#7AC36F" stroke="none" stroke-linecap="round" d="M 21.0377 47.9901 C 21.13 47.4651 22.0965 47.9919 22.6309 48.117 C 24.7562 48.6137 27.0102 48.6057 28.7093 49.8036 C 30.7025 51.1087 32.1764 53.2106 33.184 55.2705 C 33.9918 56.9141 34.4675 58.8475 34.2572 60.6669 C 34.1902 61.2371 33.1201 60.6866 32.5565 60.6317 C 30.5393 60.4341 28.1712 60.8319 26.4147 59.7416 C 24.2689 58.4151 22.7627 56.164 21.7726 53.8606 C 20.9004 52.0936 20.6998 49.9272 21.0377 47.9901 Z " stroke-width="0.5650606670290467"/>
    <path id="ID0.7137846001423895" fill="#7AC36F" stroke="none" stroke-linecap="round" d="M 30.1806 40.2161 C 30.5427 39.825 31.0694 40.7916 31.4505 41.1864 C 32.9671 42.756 34.8655 43.9713 35.6439 45.899 C 36.6112 48.0762 36.7102 50.6415 36.4401 52.9186 C 36.2279 54.7377 35.5795 56.6202 34.4165 58.035 C 34.051 58.4779 33.4503 57.4351 33.0065 57.0834 C 31.4185 55.8238 29.213 54.8743 28.328 53.0059 C 27.244 50.7279 27.1988 48.0198 27.6156 45.5474 C 27.8406 43.5899 28.8465 41.6607 30.1806 40.2161 Z " stroke-width="0.5650606437029003"/>
    <path id="ID0.7137846001423895" fill="#7AC36F" stroke="none" stroke-linecap="round" d="M 42.7551 44.1098 C 43.2836 44.0404 43.0712 45.1204 43.1121 45.6677 C 43.276 47.8441 43.96 49.9919 43.3271 51.9721 C 42.6801 54.265 41.1174 56.3017 39.4547 57.8809 C 38.1292 59.1447 36.4277 60.1786 34.629 60.5239 C 34.0649 60.6311 34.269 59.4451 34.1523 58.891 C 33.7355 56.9075 32.6455 54.7679 33.1584 52.7651 C 33.78 50.3202 35.4755 48.208 37.3757 46.5723 C 38.7995 45.2102 40.8059 44.3688 42.7551 44.1098 Z " stroke-width="0.5650606602739991"/>
    <path id="ID0.7137846001423895" fill="#7AC36F" stroke="none" stroke-linecap="round" d="M 50.9224 51.6613 C 51.3862 51.9239 50.5665 52.6585 50.2699 53.1202 C 49.0908 54.9569 48.3444 57.0838 46.6471 58.2843 C 44.7505 59.7261 42.2766 60.412 39.9983 60.6724 C 38.1792 60.8839 36.1981 60.6855 34.5538 59.8787 C 34.0388 59.6248 34.9156 58.8006 35.1559 58.2878 C 36.0169 56.4529 36.4341 54.0881 38.0492 52.7975 C 40.017 51.219 42.6423 50.5527 45.1443 50.3901 C 47.1012 50.1593 49.2099 50.6949 50.9224 51.6613 Z " stroke-width="0.5650606808144032"/>
  </g>
  <g id="ID0.4154147864319384">
    <path id="ID0.7137846001423895" fill="#7AC36F" stroke="none" stroke-linecap="round" d="M 47.9377 8.5901 C 48.03 8.0651 48.9965 8.5919 49.5309 8.717 C 51.6562 9.2137 53.9102 9.2057 55.6093 10.4036 C 57.6025 11.7087 59.0764 13.8106 60.084 15.8705 C 60.8918 17.5141 61.3675 19.4475 61.1572 21.2669 C 61.0902 21.8371 60.0201 21.2866 59.4565 21.2317 C 57.4393 21.0341 55.0712 21.4319 53.3147 20.3416 C 51.1689 19.0151 49.6627 16.764 48.6726 14.4606 C 47.8004 12.6936 47.5998 10.5272 47.9377 8.5901 Z " stroke-width="0.5650606670290467"/>
    <path id="ID0.7137846001423895" fill="#7AC36F" stroke="none" stroke-linecap="round" d="M 57.0306 0.7661 C 57.3927 0.375 57.9194 1.3416 58.3005 1.7364 C 59.8171 3.306 61.7155 4.5213 62.4939 6.449 C 63.4612 8.6262 63.5602 11.1915 63.2901 13.4686 C 63.0779 15.2877 62.4295 17.1702 61.2665 18.585 C 60.901 19.0279 60.3003 17.9851 59.8565 17.6334 C 58.2685 16.3738 56.063 15.4243 55.178 13.5559 C 54.094 11.2779 54.0488 8.5698 54.4656 6.0974 C 54.6906 4.1399 55.6965 2.2107 57.0306 0.7661 Z " stroke-width="0.5650606437029003"/>
    <path id="ID0.7137846001423895" fill="#7AC36F" stroke="none" stroke-linecap="round" d="M 69.6551 4.6598 C 70.1836 4.5904 69.9712 5.6704 70.0121 6.2177 C 70.176 8.3941 70.86 10.5419 70.2271 12.5221 C 69.5801 14.815 68.0174 16.8517 66.3547 18.4309 C 65.0292 19.6947 63.3277 20.7286 61.529 21.0739 C 60.9649 21.1811 61.169 19.9951 61.0523 19.441 C 60.6355 17.4575 59.5455 15.3179 60.0584 13.3151 C 60.68 10.8702 62.3755 8.758 64.2757 7.1223 C 65.6995 5.7602 67.7059 4.9188 69.6551 4.6598 Z " stroke-width="0.5650606602739991"/>
    <path id="ID0.7137846001423895" fill="#7AC36F" stroke="none" stroke-linecap="round" d="M 77.8224 12.2113 C 78.2862 12.4739 77.4665 13.2085 77.1699 13.6702 C 75.9908 15.5069 75.2444 17.6338 73.5471 18.8343 C 71.6505 20.2761 69.1766 20.962 66.8983 21.2224 C 65.0792 21.4339 63.0981 21.2355 61.4538 20.4287 C 60.9388 20.1748 61.8156 19.3506 62.0559 18.8378 C 62.9169 17.0029 63.3341 14.6381 64.9492 13.3475 C 66.917 11.769 69.5423 11.1027 72.0443 10.9401 C 74.0012 10.7093 76.1099 11.2449 77.8224 12.2113 Z " stroke-width="0.5650606808144032"/>
  </g>
  <path id="ID0.7137846001423895" fill="#7AC36F" stroke="none" stroke-linecap="round" d="M 55.9507 77.5633 C 55.4366 77.7039 56.0505 78.6175 56.2245 79.1379 C 56.9159 81.2081 57.1166 83.4533 58.4666 85.0341 C 59.9507 86.8979 62.18 88.171 64.3243 88.9835 C 66.0356 89.6357 68.0047 89.9303 69.7969 89.5525 C 70.3585 89.433 69.7112 88.4185 69.6043 87.8624 C 69.2209 85.8721 69.3977 83.4774 68.1496 81.8293 C 66.6301 79.8156 64.2492 78.5243 61.864 77.7516 C 60.0239 77.0468 57.8482 77.0476 55.9507 77.5633 Z " stroke-width="0.5650606614218567"/>
  <path id="ID0.7137846001423895" fill="#7AC36F" stroke="none" stroke-linecap="round" d="M 59.2808 57.7388 C 59.0499 58.1495 60.006 58.3305 60.4415 58.5441 C 62.1734 59.3944 63.7107 60.6621 65.5436 60.7941 C 67.6378 61.0175 69.8229 60.4052 71.6656 59.5604 C 73.1385 58.8886 74.5465 57.8325 75.4215 56.4703 C 75.6949 56.0427 74.6547 55.8201 74.2385 55.5421 C 72.7481 54.5476 71.351 52.9495 69.539 52.7116 C 67.3286 52.4174 65.0378 53.1138 63.0707 54.1349 C 61.4847 54.8551 60.1344 56.2246 59.2808 57.7388 Z " stroke-width="0.4995011292391441"/>
  <path id="ID0.7137846001423895" fill="#7AC36F" stroke="none" stroke-linecap="round" d="M 96.0761 74.6098 C 95.8179 74.8884 95.4428 74.1994 95.1712 73.918 C 94.0906 72.799 92.7378 71.9326 92.1834 70.5585 C 91.4944 69.0066 91.4243 67.1783 91.6173 65.5554 C 91.7688 64.259 92.2313 62.9174 93.0605 61.9093 C 93.3211 61.5937 93.749 62.337 94.0652 62.5878 C 95.1967 63.4858 96.7685 64.1629 97.3988 65.4947 C 98.171 67.1184 98.2027 69.0486 97.9052 70.8106 C 97.7444 72.2057 97.0272 73.5804 96.0761 74.6098 Z " stroke-width="0.40272279821451695"/>
  <g id="ID0.7243137410841882">
    <path id="ID0.7137846001423895" fill="#7AC36F" stroke="none" stroke-linecap="round" d="M 101.2577 92.8445 C 100.7875 92.8288 101.1283 91.9188 101.1716 91.4362 C 101.343 89.5171 101.0572 87.5478 101.8942 85.9145 C 102.7885 84.0108 104.4434 82.4625 106.1194 81.327 C 107.4562 80.4176 109.0873 79.7627 110.7037 79.7215 C 111.2105 79.7096 110.8615 80.713 110.8832 81.2124 C 110.96 83.0002 111.6006 85.0209 110.8648 86.6912 C 109.9707 88.7308 108.1893 90.3258 106.2983 91.4762 C 104.8616 92.457 102.9928 92.9003 101.2577 92.8445 Z " stroke-width="0.4988426580049411"/>
    <path id="ID0.7137846001423895" fill="#7AC36F" stroke="none" stroke-linecap="round" d="M 93.3326 85.8052 C 92.9459 85.537 93.7257 84.9572 94.0237 84.5751 C 95.2081 83.0554 96.0356 81.2456 97.6243 80.3269 C 99.4078 79.2121 101.6379 78.8083 103.6618 78.7627 C 105.2781 78.7233 107.0038 79.0573 108.3844 79.8989 C 108.8166 80.1636 107.9794 80.8176 107.7269 81.249 C 106.8223 82.7929 106.2651 84.8382 104.7413 85.8428 C 102.8842 87.072 100.5226 87.4465 98.3099 87.388 C 96.571 87.4334 94.7603 86.7927 93.3326 85.8052 Z " stroke-width="0.4988426498198912"/>
    <path id="ID0.7137846001423895" fill="#7AC36F" stroke="none" stroke-linecap="round" d="M 95.2364 74.2544 C 95.1103 73.8011 96.0806 73.8532 96.5539 73.7497 C 98.4361 73.3373 100.2289 72.4738 102.0381 72.7821 C 104.1224 73.064 106.0959 74.1782 107.6819 75.4362 C 108.9505 76.4385 110.0647 77.798 110.589 79.3275 C 110.7524 79.8074 109.6906 79.7756 109.2206 79.9461 C 107.5383 80.5558 105.8029 81.7732 103.9888 81.5725 C 101.7749 81.3316 99.7189 80.1108 98.0541 78.6521 C 96.6874 77.5759 95.7038 75.9262 95.2364 74.2544 Z " stroke-width="0.49884259496683037"/>
  </g>
</svg>