<svg xmlns="http://www.w3.org/2000/svg" xmlns:xlink="http://www.w3.org/1999/xlink" version="1.1" width="134.8360211743685" height="130.4923169507357" viewBox="-0.3335088438676035 1.0544911675764883 134.8360211743685 130.4923169507357">
  <defs>
    <linearGradient id="grad_1" x2="1">
      <stop offset="0" stop-color="#7AC36F" stop-opacity="1"/>
      <stop offset="1" stop-color="#7AC36F" stop-opacity="1"/>
    </linearGradient>
    <linearGradient id="grad_2" x2="1">
      <stop offset="0" stop-color="#7AC36F" stop-opacity="1"/>
      <stop offset="1" stop-color="#7AC36F" stop-opacity="1"/>
    </linearGradient>
  <linearGradient id="grad_1-.6400675773620605,0,0,5.9889068603515625,-929.95,-1067.1" x2="129.1454" x1="5.0236" y1="6.4116" y2="6.4116" gradientUnits="userSpaceOnUse">
      <stop offset="0" stop-color="#7AC36F" stop-opacity="1"/>
      <stop offset="1" stop-color="#7AC36F" stop-opacity="1"/>
    </linearGradient><linearGradient id="grad_2-.6400675773620605,0,0,5.9889068603515625,-929.95,-1067.1" x2="129.1454" x1="5.0236" y1="6.4116" y2="6.4116" gradientUnits="userSpaceOnUse">
      <stop offset="0" stop-color="#7AC36F" stop-opacity="1"/>
      <stop offset="1" stop-color="#7AC36F" stop-opacity="1"/>
    </linearGradient></defs>
  <!-- Exported by Scratch - http://scratch.mit.edu/ -->
  <path id="ID0.12809083331376314" fill="url(#grad_1-.6400675773620605,0,0,5.9889068603515625,-929.95,-1067.1)" stroke="url(#grad_2-.6400675773620605,0,0,5.9889068603515625,-929.95,-1067.1)" stroke-width="10.714217890677102" d="M 5.0236 6.4116 L 129.1454 6.4116 L 129.1454 126.1897 L 5.0236 126.1897 L 5.0236 6.4116 Z " style="stroke-linejoin: round; stroke-linecap: round;"/>
  <g id="ID0.7001365819014609">
    <path id="ID0.7590375300496817" fill="#FFFFFF" d="M 50.352 48.4295 L 53.9734 48.4295 L 53.9734 54.8314 C 53.1138 55.4592 52.0597 55.9708 50.8119 56.3676 C 49.5713 56.7558 48.3903 56.9502 47.2687 56.9502 C 45.6471 56.9502 44.1819 56.5879 42.8738 55.8625 C 41.5658 55.1306 40.5347 54.1289 39.7798 52.8581 C 39.0322 51.5874 38.6583 50.1638 38.6583 48.5867 C 38.6583 47.0246 39.0436 45.6118 39.8136 44.3489 C 40.5906 43.0853 41.6555 42.0951 43.0087 41.3776 C 44.3613 40.6601 45.8746 40.3013 47.5493 40.3013 C 48.7375 40.3013 49.9301 40.5216 51.1255 40.9629 C 52.3216 41.3962 53.3341 41.9789 54.1643 42.7115 L 51.7756 45.6491 C 51.1929 45.0959 50.5199 44.6589 49.7579 44.3374 C 49.003 44.016 48.2589 43.8552 47.5271 43.8552 C 46.6674 43.8552 45.8939 44.0648 45.2058 44.4831 C 44.5184 44.8942 43.9724 45.4582 43.5691 46.1757 C 43.1731 46.8933 42.975 47.6969 42.975 48.5867 C 42.975 49.4908 43.1731 50.3095 43.5691 51.0421 C 43.9724 51.7668 44.5256 52.3351 45.2281 52.7462 C 45.9313 53.1574 46.7119 53.3626 47.5715 53.3626 C 48.3788 53.3626 49.3058 53.105 50.352 52.5891 L 50.352 48.4295 Z M 61.8476 40.5481 L 74.5501 40.5481 L 74.5501 43.9004 L 66.0517 43.9004 L 66.0517 46.9162 L 73.7207 46.9162 L 73.7207 50.2456 L 66.0517 50.2686 L 66.0517 53.2951 L 74.774 53.2951 L 74.774 56.6474 L 61.8476 56.6474 L 61.8476 40.5481 Z M 81.0424 40.5481 L 94.8435 40.5481 L 94.8435 44.0231 L 90.0224 44.0231 L 90.0224 56.6474 L 85.8183 56.6474 L 85.8183 44.0231 L 81.0424 44.0231 L 81.0424 40.5481 Z " stroke-width="0.7175350189208984"/>
    <path id="ID0.9157314910553396" fill="#FFFFFF" d="M 28.802 75.6959 L 32.4234 75.6959 L 32.4234 82.0977 C 31.5638 82.7255 30.5097 83.2371 29.2619 83.6339 C 28.0213 84.0221 26.8403 84.2166 25.7187 84.2166 C 24.0971 84.2166 22.6319 83.8542 21.3238 83.1288 C 20.0158 82.3969 18.9847 81.3952 18.2298 80.1245 C 17.4822 78.8537 17.1083 77.4301 17.1083 75.853 C 17.1083 74.2909 17.4936 72.8781 18.2636 71.6152 C 19.0406 70.3517 20.1055 69.3615 21.4587 68.6439 C 22.8113 67.9264 24.3246 67.5676 25.9993 67.5676 C 27.1875 67.5676 28.3801 67.7879 29.5755 68.2292 C 30.7716 68.6626 31.7841 69.2452 32.6143 69.9778 L 30.2256 72.9154 C 29.6429 72.3622 28.9699 71.9252 28.2079 71.6037 C 27.453 71.2823 26.7089 71.1216 25.9771 71.1216 C 25.1174 71.1216 24.3439 71.3311 23.6558 71.7494 C 22.9684 72.1606 22.4224 72.7245 22.0191 73.4421 C 21.6231 74.1596 21.425 74.9632 21.425 75.853 C 21.425 76.7571 21.6231 77.5758 22.0191 78.3084 C 22.4224 79.0331 22.9756 79.6014 23.6781 80.0125 C 24.3813 80.4237 25.1619 80.6289 26.0215 80.6289 C 26.8288 80.6289 27.7558 80.3713 28.802 79.8554 L 28.802 75.6959 Z M 49.9621 83.9138 L 47.6301 79.4629 L 47.5289 79.4629 L 44.5017 79.4629 L 44.5017 83.9138 L 40.2976 83.9138 L 40.2976 67.8144 L 47.5289 67.8144 C 49.6593 67.8144 51.3075 68.311 52.4735 69.3055 C 53.6466 70.2921 54.2336 71.6784 54.2336 73.465 C 54.2336 74.6755 53.9868 75.7224 53.4931 76.6043 C 53.0073 77.4782 52.2977 78.1627 51.3634 78.6557 L 54.7158 83.9138 L 49.9621 83.9138 Z M 44.5017 76.1106 L 47.5512 76.1106 C 48.4108 76.1106 49.0724 75.8975 49.5359 75.472 C 50.0066 75.0379 50.2419 74.4143 50.2419 73.5992 C 50.2419 72.8221 50.0066 72.2244 49.5359 71.8054 C 49.0724 71.3792 48.4108 71.1668 47.5512 71.1668 L 44.5017 71.1668 L 44.5017 76.1106 Z M 62.0188 67.8144 L 74.7214 67.8144 L 74.7214 71.1668 L 66.2229 71.1668 L 66.2229 74.1826 L 73.8919 74.1826 L 73.8919 77.5119 L 66.2229 77.5349 L 66.2229 80.5615 L 74.9452 80.5615 L 74.9452 83.9138 L 62.0188 83.9138 L 62.0188 67.8144 Z M 82.615 67.8144 L 95.3175 67.8144 L 95.3175 71.1668 L 86.819 71.1668 L 86.819 74.1826 L 94.488 74.1826 L 94.488 77.5119 L 86.819 77.5349 L 86.819 80.5615 L 95.5421 80.5615 L 95.5421 83.9138 L 82.615 83.9138 L 82.615 67.8144 Z M 114.2095 67.8144 L 118.1114 67.8144 L 118.1114 83.9138 L 114.4448 83.9138 L 107.1353 74.2945 L 107.1353 83.9138 L 103.2111 83.9138 L 103.2111 67.8144 L 106.9107 67.8144 L 114.2317 77.5119 L 114.2095 67.8144 Z " stroke-width="0.7175350189208984"/>
  </g>
</svg>