<svg xmlns="http://www.w3.org/2000/svg" xmlns:xlink="http://www.w3.org/1999/xlink" version="1.1" width="6.5929999351501465" height="12.468999862670898" viewBox="-0.32999998331069946 -0.2239999771118164 6.5929999351501465 12.468999862670898">
  <!-- Exported by Scratch - http://scratch.mit.edu/ -->
  <g id="ID0.14778411155566573">
    <g id="ID0.9440975249744952">
      <path id="ID0.9983737762086093" fill="#999999" d="M 0.17 9.151 C 0.17 8.745 0.237 8.24 0.373 7.636 L 2.138 7.636 L 2.138 8.792 C 2.138 9.25 2.191 9.563 2.295 9.729 C 2.409 9.896 2.592 9.979 2.842 9.979 C 3.081 9.979 3.253 9.886 3.357 9.698 C 3.472 9.511 3.529 9.208 3.529 8.792 L 3.529 6.698 C 3.529 6.448 3.508 6.255 3.467 6.12 C 3.435 5.985 3.394 5.886 3.342 5.823 C 3.289 5.761 3.227 5.719 3.154 5.698 C 3.092 5.677 3.008 5.667 2.904 5.667 C 2.727 5.667 2.571 5.719 2.435 5.823 C 2.31 5.917 2.175 6.089 2.029 6.339 L 0.388 6.339 L 0.388 0.276 L 5.592 0.276 L 5.592 2.261 L 2.295 2.261 L 2.185 4.276 C 2.154 4.193 2.289 4.089 2.592 3.964 C 2.904 3.828 3.222 3.761 3.545 3.761 C 4.305 3.761 4.862 4.021 5.217 4.542 C 5.581 5.052 5.763 5.776 5.763 6.714 L 5.763 8.542 C 5.763 9.136 5.68 9.641 5.513 10.057 C 5.357 10.464 5.144 10.792 4.873 11.042 C 4.612 11.292 4.31 11.474 3.967 11.589 C 3.633 11.693 3.284 11.745 2.92 11.745 C 2.482 11.745 2.092 11.688 1.748 11.573 C 1.414 11.448 1.128 11.271 0.888 11.042 C 0.649 10.813 0.467 10.542 0.342 10.229 C 0.227 9.906 0.17 9.547 0.17 9.151 Z " stroke-width="1"/>
    </g>
  </g>
</svg>