<svg xmlns="http://www.w3.org/2000/svg" xmlns:xlink="http://www.w3.org/1999/xlink" version="1.1" width="6.860000133514404" height="12.562999725341797" viewBox="-0.3400000035762787 -0.11799997091293335 6.860000133514404 12.562999725341797">
  <!-- Exported by Scratch - http://scratch.mit.edu/ -->
  <g id="ID0.889647675678134">
    <g id="ID0.11536474199965596">
      <path id="ID0.5747947888448834" fill="#999999" d="M 0.16 3.914 C 0.16 3.393 0.207 2.945 0.301 2.57 C 0.395 2.185 0.525 1.856 0.692 1.586 C 0.858 1.315 1.051 1.101 1.27 0.945 C 1.499 0.789 1.723 0.669 1.942 0.586 C 2.171 0.492 2.395 0.435 2.613 0.414 C 2.832 0.393 3.03 0.382 3.207 0.382 C 3.676 0.382 4.077 0.445 4.41 0.57 C 4.754 0.695 5.041 0.867 5.27 1.086 C 5.499 1.294 5.66 1.544 5.754 1.836 C 5.858 2.117 5.91 2.408 5.91 2.711 C 5.91 2.867 5.895 3.044 5.863 3.242 C 5.843 3.429 5.775 3.679 5.66 3.992 L 3.957 3.992 L 3.957 3.398 C 3.957 3.086 3.942 2.841 3.91 2.664 C 3.879 2.487 3.832 2.356 3.77 2.273 C 3.718 2.19 3.645 2.132 3.551 2.101 C 3.468 2.07 3.353 2.054 3.207 2.054 C 2.926 2.054 2.712 2.153 2.567 2.351 C 2.421 2.539 2.348 2.872 2.348 3.351 L 2.223 5.086 C 2.192 5.002 2.322 4.893 2.613 4.757 C 2.905 4.622 3.244 4.554 3.629 4.554 C 3.9 4.554 4.176 4.601 4.457 4.695 C 4.749 4.778 5.009 4.935 5.238 5.164 C 5.478 5.382 5.666 5.685 5.801 6.07 C 5.947 6.445 6.02 6.919 6.02 7.492 L 6.02 8.539 C 6.02 9.153 5.952 9.674 5.817 10.101 C 5.692 10.528 5.504 10.882 5.254 11.164 C 5.004 11.445 4.702 11.648 4.348 11.773 C 3.994 11.888 3.603 11.945 3.176 11.945 C 2.707 11.945 2.28 11.882 1.895 11.757 C 1.52 11.622 1.202 11.408 0.942 11.117 C 0.681 10.815 0.483 10.44 0.348 9.992 C 0.223 9.533 0.16 8.992 0.16 8.367 L 0.16 3.914 Z M 2.348 8.976 C 2.348 9.424 2.41 9.737 2.535 9.914 C 2.671 10.091 2.879 10.179 3.16 10.179 C 3.389 10.179 3.561 10.096 3.676 9.929 C 3.791 9.752 3.848 9.455 3.848 9.039 L 3.848 7.429 C 3.848 7.19 3.827 6.997 3.785 6.851 C 3.744 6.705 3.692 6.596 3.629 6.523 C 3.577 6.44 3.509 6.382 3.426 6.351 C 3.353 6.32 3.254 6.304 3.129 6.304 C 3.046 6.304 2.962 6.32 2.879 6.351 C 2.796 6.372 2.718 6.403 2.645 6.445 C 2.582 6.487 2.52 6.539 2.457 6.601 C 2.405 6.664 2.369 6.705 2.348 6.726 L 2.348 8.976 Z " stroke-width="1"/>
    </g>
  </g>
</svg>