<svg xmlns="http://www.w3.org/2000/svg" xmlns:xlink="http://www.w3.org/1999/xlink" version="1.1" width="6.8429999351501465" height="12.563000679016113" viewBox="0.42000001668930054 -0.1679999828338623 6.8429999351501465 12.563000679016113">
  <!-- Exported by Scratch - http://scratch.mit.edu/ -->
  <g id="ID0.3477922813035548">
    <g id="ID0.5901746242307127">
      <path id="ID0.0116705815307796" fill="#999999" d="M 6.763 8.364 C 6.763 8.885 6.717 9.338 6.623 9.723 C 6.529 10.098 6.399 10.421 6.232 10.692 C 6.076 10.963 5.888 11.176 5.67 11.332 C 5.461 11.489 5.243 11.614 5.013 11.707 C 4.795 11.791 4.576 11.843 4.357 11.864 C 4.149 11.885 3.956 11.895 3.779 11.895 C 3.3 11.895 2.883 11.838 2.529 11.723 C 2.185 11.598 1.899 11.426 1.67 11.207 C 1.441 10.989 1.274 10.739 1.17 10.457 C 1.066 10.166 1.013 9.869 1.013 9.567 C 1.013 9.411 1.024 9.239 1.045 9.051 C 1.076 8.853 1.149 8.598 1.263 8.286 L 2.967 8.286 L 2.967 8.786 C 2.967 9.088 2.982 9.332 3.013 9.52 C 3.055 9.697 3.107 9.827 3.17 9.911 C 3.232 9.994 3.31 10.051 3.404 10.082 C 3.498 10.114 3.623 10.129 3.779 10.129 C 4.029 10.129 4.222 10.036 4.357 9.848 C 4.503 9.65 4.576 9.312 4.576 8.832 L 4.701 7.192 C 4.753 7.275 4.633 7.39 4.342 7.536 C 4.05 7.671 3.711 7.739 3.326 7.739 C 3.045 7.739 2.763 7.697 2.482 7.614 C 2.201 7.52 1.941 7.358 1.701 7.129 C 1.461 6.9 1.269 6.598 1.123 6.223 C 0.987 5.838 0.92 5.358 0.92 4.786 L 0.92 3.739 C 0.92 3.124 0.982 2.603 1.107 2.176 C 1.243 1.749 1.435 1.395 1.685 1.114 C 1.935 0.832 2.232 0.635 2.576 0.52 C 2.93 0.395 3.321 0.332 3.748 0.332 C 4.227 0.332 4.649 0.395 5.013 0.52 C 5.388 0.645 5.706 0.848 5.967 1.129 C 6.237 1.411 6.435 1.78 6.56 2.239 C 6.696 2.687 6.763 3.223 6.763 3.848 L 6.763 8.364 Z M 4.576 3.114 C 4.576 2.895 4.555 2.718 4.513 2.582 C 4.482 2.437 4.435 2.332 4.373 2.27 C 4.321 2.197 4.243 2.145 4.138 2.114 C 4.045 2.072 3.92 2.051 3.763 2.051 C 3.534 2.051 3.362 2.14 3.248 2.317 C 3.144 2.483 3.092 2.77 3.092 3.176 L 3.092 4.848 C 3.092 5.088 3.112 5.28 3.154 5.426 C 3.196 5.572 3.243 5.687 3.295 5.77 C 3.357 5.843 3.425 5.895 3.498 5.926 C 3.581 5.957 3.68 5.973 3.795 5.973 C 3.878 5.973 3.961 5.963 4.045 5.942 C 4.128 5.911 4.206 5.874 4.279 5.832 C 4.352 5.78 4.415 5.728 4.467 5.676 C 4.529 5.614 4.566 5.577 4.576 5.567 L 4.576 3.114 Z " stroke-width="1"/>
    </g>
  </g>
</svg>