<svg xmlns="http://www.w3.org/2000/svg" xmlns:xlink="http://www.w3.org/1999/xlink" version="1.1" width="6.812999725341797" height="12.562999725341797" viewBox="0.4320000410079956 -0.267999991774559 6.812999725341797 12.562999725341797">
  <!-- Exported by Scratch - http://scratch.mit.edu/ -->
  <g id="ID0.33276838483288884">
    <g id="ID0.1313669909723103">
      <path id="ID0.4268300929106772" fill="#999999" d="M 0.963 9.232 C 0.963 9.035 0.974 8.821 0.995 8.592 C 1.026 8.363 1.083 8.061 1.167 7.686 L 2.932 7.686 L 2.932 8.498 C 2.932 8.821 2.958 9.087 3.01 9.295 C 3.062 9.493 3.125 9.644 3.198 9.748 C 3.271 9.842 3.354 9.915 3.448 9.967 C 3.552 10.008 3.661 10.029 3.776 10.029 C 3.901 10.029 4.005 10.014 4.088 9.982 C 4.182 9.951 4.26 9.904 4.323 9.842 C 4.385 9.769 4.432 9.67 4.463 9.545 C 4.505 9.41 4.526 9.238 4.526 9.029 L 4.526 7.842 C 4.526 7.633 4.51 7.456 4.479 7.311 C 4.448 7.154 4.401 7.035 4.338 6.951 C 4.276 6.857 4.193 6.79 4.088 6.748 C 3.984 6.696 3.844 6.67 3.667 6.67 L 2.698 6.67 L 2.698 4.967 L 3.667 4.967 C 3.771 4.967 3.859 4.956 3.932 4.936 C 4.016 4.904 4.088 4.852 4.151 4.779 C 4.213 4.696 4.266 4.592 4.307 4.467 C 4.349 4.342 4.37 4.186 4.37 3.998 L 4.37 2.857 C 4.37 2.524 4.312 2.29 4.198 2.154 C 4.094 2.019 3.927 1.951 3.698 1.951 C 3.469 1.951 3.276 2.076 3.12 2.326 C 2.974 2.566 2.901 2.951 2.901 3.482 L 2.901 4.357 L 1.151 4.357 C 1.078 4.003 1.021 3.717 0.979 3.498 C 0.948 3.269 0.932 3.035 0.932 2.795 C 0.932 2.493 0.99 2.191 1.104 1.889 C 1.219 1.576 1.391 1.3 1.62 1.061 C 1.849 0.811 2.135 0.613 2.479 0.467 C 2.823 0.311 3.229 0.232 3.698 0.232 C 4.198 0.232 4.625 0.29 4.979 0.404 C 5.344 0.519 5.646 0.696 5.885 0.936 C 6.125 1.175 6.297 1.462 6.401 1.795 C 6.516 2.118 6.573 2.488 6.573 2.904 L 6.573 3.561 C 6.573 3.904 6.526 4.212 6.432 4.482 C 6.349 4.743 6.234 4.972 6.088 5.17 C 5.953 5.368 5.797 5.54 5.62 5.686 C 5.453 5.821 5.266 5.863 5.057 5.811 L 5.042 5.764 C 5.292 5.712 5.516 5.753 5.713 5.889 C 5.922 6.014 6.099 6.18 6.245 6.389 C 6.401 6.597 6.521 6.842 6.604 7.123 C 6.698 7.404 6.745 7.738 6.745 8.123 L 6.745 8.842 C 6.745 9.373 6.661 9.831 6.495 10.217 C 6.338 10.592 6.12 10.899 5.838 11.139 C 5.568 11.368 5.25 11.535 4.885 11.639 C 4.531 11.743 4.161 11.795 3.776 11.795 C 2.87 11.795 2.172 11.571 1.682 11.123 C 1.203 10.665 0.963 10.035 0.963 9.232 Z " stroke-width="1"/>
    </g>
  </g>
</svg>