<svg xmlns="http://www.w3.org/2000/svg" xmlns:xlink="http://www.w3.org/1999/xlink" version="1.1" width="6.8429999351501465" height="12.562999725341797" viewBox="-0.35500000417232513 -0.06799998879432678 6.8429999351501465 12.562999725341797">
  <!-- Exported by Scratch - http://scratch.mit.edu/ -->
  <g id="ID0.5082099777646363">
    <g id="ID0.18587802816182375">
      <path id="ID0.9295433196239173" fill="#999999" d="M 0.145 3.886 C 0.145 3.396 0.186 2.969 0.27 2.604 C 0.363 2.229 0.488 1.917 0.645 1.667 C 0.811 1.406 0.994 1.193 1.192 1.026 C 1.4 0.86 1.613 0.735 1.832 0.651 C 2.061 0.557 2.28 0.5 2.488 0.479 C 2.707 0.448 2.905 0.432 3.082 0.432 C 3.249 0.432 3.436 0.443 3.645 0.464 C 3.853 0.485 4.061 0.542 4.27 0.636 C 4.488 0.719 4.702 0.839 4.91 0.995 C 5.129 1.151 5.317 1.36 5.473 1.62 C 5.629 1.88 5.754 2.198 5.848 2.573 C 5.942 2.948 5.988 3.386 5.988 3.886 L 5.988 8.479 C 5.988 8.969 5.942 9.401 5.848 9.776 C 5.754 10.141 5.624 10.458 5.457 10.729 C 5.301 10.99 5.119 11.208 4.91 11.386 C 4.712 11.552 4.504 11.677 4.285 11.761 C 4.067 11.844 3.848 11.901 3.629 11.932 C 3.421 11.974 3.238 11.995 3.082 11.995 C 2.895 11.995 2.692 11.974 2.473 11.932 C 2.254 11.901 2.035 11.844 1.817 11.761 C 1.598 11.677 1.384 11.552 1.176 11.386 C 0.978 11.208 0.801 10.99 0.645 10.729 C 0.488 10.458 0.363 10.141 0.27 9.776 C 0.186 9.401 0.145 8.969 0.145 8.479 L 0.145 3.886 Z M 2.348 9.167 C 2.348 9.552 2.405 9.818 2.52 9.964 C 2.645 10.11 2.832 10.182 3.082 10.182 C 3.322 10.182 3.499 10.11 3.613 9.964 C 3.728 9.818 3.785 9.552 3.785 9.167 L 3.785 3.292 C 3.785 2.886 3.723 2.604 3.598 2.448 C 3.483 2.281 3.311 2.198 3.082 2.198 C 2.832 2.198 2.645 2.281 2.52 2.448 C 2.405 2.604 2.348 2.886 2.348 3.292 L 2.348 9.167 Z " stroke-width="1"/>
    </g>
  </g>
</svg>